{
.appVersion = "1230";
copyright = "Copyright © 2019 by Abbie Gonzalez. All rights reserved.";
date = "2019-07-31 02:23:48 +0000";
designer = "Abbie Gonzalez";
designerURL = "https://abbiecod.es";
familyName = OpenDyslexic;
fontMaster = (
{
alignmentZones = (
"{800, 16}",
"{700, 16}",
"{500, 16}",
"{0, -16}",
"{-200, -16}"
);
ascender = 800;
capHeight = 700;
descender = -200;
guideLines = (
{
position = "{249, 144}";
},
{
angle = -18.2659;
position = "{167, 549}";
},
{
angle = -9.1002;
position = "{311, 295}";
}
);
iconName = SemiLight_SemiExtended;
id = "BA196CD0-EE58-4274-B8DF-4393D3617A29";
userData = {
GSCornerRadius = 25;
GSOffsetHorizontal = 12;
GSOffsetMakeStroke = 1;
GSOffsetPosition = 0.1;
GSOffsetProportional = 1;
GSOffsetVertical = -10;
};
weightValue = 400;
xHeight = 500;
}
);
glyphs = (
{
color = 6;
glyphname = A;
lastChange = "2019-08-16 19:05:22 +0000";
layers = (
{
anchors = (
{
name = abovecomb;
position = "{416, 766}";
},
{
name = bottom;
position = "{414, 0}";
},
{
name = dotbelow;
position = "{424, 6}";
},
{
name = dotbelowcomb;
position = "{421, 7}";
},
{
name = greekcap;
position = "{206, 603}";
},
{
name = ogonek;
position = "{643, 0}";
},
{
name = polyomicron;
position = "{215, 605}";
},
{
name = top;
position = "{415, 759}";
}
);
layerId = "BA196CD0-EE58-4274-B8DF-4393D3617A29";
paths = (
{
closed = 1;
nodes = (
"280 235 LINE",
"413 668 LINE",
"549 235 LINE"
);
},
{
closed = 1;
nodes = (
"214 0 LINE",
"251 119 LINE",
"579 119 LINE",
"607 0 LINE",
"748 0 LINE",
"461 729 LINE",
"368 729 LINE",
"80 0 LINE"
);
}
);
width = 828;
}
);
unicode = 0041;
},
{
glyphname = "Alpha-latin";
lastChange = "2019-08-15 00:06:48 +0000";
layers = (
{
anchors = (
{
name = bottom;
position = "{328, 0}";
},
{
name = ogonek;
position = "{489, 29}";
},
{
name = top;
position = "{317, 577}";
}
);
layerId = "BA196CD0-EE58-4274-B8DF-4393D3617A29";
paths = (
{
closed = 1;
nodes = (
"433 655 OFFCURVE",
"393 677 OFFCURVE",
"340 677 CURVE SMOOTH",
"330 677 OFFCURVE",
"319 676 OFFCURVE",
"307 674 CURVE SMOOTH",
"210 660 OFFCURVE",
"84 548 OFFCURVE",
"35 387 CURVE SMOOTH",
"14 318 OFFCURVE",
"5 261 OFFCURVE",
"5 214 CURVE SMOOTH",
"5 13 OFFCURVE",
"169 -14 OFFCURVE",
"296 -14 CURVE SMOOTH",
"376 -14 OFFCURVE",
"448 17 OFFCURVE",
"486 82 CURVE",
"486 0 LINE",
"594 0 LINE",
"594 75 OFFCURVE",
"574 60 OFFCURVE",
"574 329 CURVE SMOOTH",
"574 605 OFFCURVE",
"607 600 OFFCURVE",
"607 673 CURVE",
"512 673 LINE",
"488 602 LINE"
);
},
{
closed = 1;
nodes = (
"132 485 OFFCURVE",
"245 600 OFFCURVE",
"306 610 CURVE SMOOTH",
"316 612 OFFCURVE",
"327 613 OFFCURVE",
"340 613 CURVE SMOOTH",
"399 613 OFFCURVE",
"475 581 OFFCURVE",
"475 396 CURVE SMOOTH",
"475 368 OFFCURVE",
"473 335 OFFCURVE",
"469 299 CURVE SMOOTH",
"455 173 OFFCURVE",
"465 138 OFFCURVE",
"284 138 CURVE SMOOTH",
"160 138 OFFCURVE",
"81 205 OFFCURVE",
"81 296 CURVE SMOOTH",
"81 314 OFFCURVE",
"84 333 OFFCURVE",
"90 352 CURVE"
);
}
);
width = 656;
}
);
unicode = 2C6D;
},
{
color = 6;
glyphname = B;
lastChange = "2019-08-15 14:59:18 +0000";
layers = (
{
anchors = (
{
name = bottom;
position = "{344, 0}";
},
{
name = top;
position = "{344, 700}";
},
{
name = top_hook;
position = "{-59, 470}";
}
);
layerId = "BA196CD0-EE58-4274-B8DF-4393D3617A29";
paths = (
{
closed = 1;
nodes = (
"390 348 OFFCURVE",
"430 338 OFFCURVE",
"455 316 CURVE SMOOTH",
"481 293 OFFCURVE",
"498 268 OFFCURVE",
"498 248 CURVE SMOOTH",
"498 160 OFFCURVE",
"443 145 OFFCURVE",
"337 145 CURVE SMOOTH",
"179 145 LINE",
"179 348 LINE",
"337 348 LINE SMOOTH"
);
},
{
closed = 1;
nodes = (
"421 663 OFFCURVE",
"468 612 OFFCURVE",
"468 538 CURVE SMOOTH",
"468 464 OFFCURVE",
"421 428 OFFCURVE",
"325 428 CURVE SMOOTH",
"179 428 LINE",
"179 663 LINE",
"325 663 LINE SMOOTH"
);
},
{
closed = 1;
nodes = (
"342 0 LINE SMOOTH",
"506 0 OFFCURVE",
"607 0 OFFCURVE",
"607 204 CURVE SMOOTH",
"607 303 OFFCURVE",
"549 372 OFFCURVE",
"420 393 CURVE",
"500 406 OFFCURVE",
"543 459 OFFCURVE",
"543 549 CURVE SMOOTH",
"543 664 OFFCURVE",
"458 729 OFFCURVE",
"308 729 CURVE SMOOTH",
"80 729 LINE",
"80 0 LINE"
);
}
);
width = 687;
}
);
unicode = 0042;
},
{
color = 6;
glyphname = C;
lastChange = "2019-08-15 15:01:34 +0000";
layers = (
{
anchors = (
{
name = bottom;
position = "{389, 0}";
},
{
name = top;
position = "{389, 729}";
},
{
name = top_hook;
position = "{616, 682}";
}
);
layerId = "BA196CD0-EE58-4274-B8DF-4393D3617A29";
paths = (
{
closed = 1;
nodes = (
"548 744 OFFCURVE",
"524 746 OFFCURVE",
"436 746 CURVE SMOOTH",
"215 746 OFFCURVE",
"80 602 OFFCURVE",
"80 368 CURVE SMOOTH",
"80 0 OFFCURVE",
"115 -13 OFFCURVE",
"305 -13 CURVE SMOOTH",
"389 -13 OFFCURVE",
"419 -13 OFFCURVE",
"616 -13 CURVE",
"616 159 LINE",
"567 144 OFFCURVE",
"527 139 OFFCURVE",
"442 139 CURVE SMOOTH",
"276 139 OFFCURVE",
"166 197 OFFCURVE",
"166 368 CURVE SMOOTH",
"166 561 OFFCURVE",
"276 672 OFFCURVE",
"442 672 CURVE SMOOTH",
"527 672 OFFCURVE",
"527 672 OFFCURVE",
"623 656 CURVE",
"637 732 LINE"
);
}
);
width = 717;
}
);
unicode = 0043;
},
{
color = 6;
glyphname = D;
lastChange = "2019-08-15 14:56:59 +0000";
layers = (
{
anchors = (
{
name = bottom;
position = "{387, 0}";
},
{
name = dash;
position = "{201, 378}";
},
{
name = hook_top;
position = "{68, 669}";
},
{
name = top;
position = "{361, 729}";
}
);
layerId = "BA196CD0-EE58-4274-B8DF-4393D3617A29";
paths = (
{
closed = 1;
nodes = (
"504 659 OFFCURVE",
"613 573 OFFCURVE",
"613 393 CURVE SMOOTH",
"613 271 OFFCURVE",
"555 190 OFFCURVE",
"303 190 CURVE SMOOTH",
"184 190 LINE",
"184 659 LINE",
"303 659 LINE SMOOTH"
);
},
{
closed = 1;
nodes = (
"283 0 LINE SMOOTH",
"565 0 OFFCURVE",
"693 0 OFFCURVE",
"693 365 CURVE SMOOTH",
"693 615 OFFCURVE",
"566 729 OFFCURVE",
"283 729 CURVE SMOOTH",
"80 729 LINE",
"80 0 LINE"
);
}
);
width = 773;
}
);
unicode = 0044;
},
{
color = 6;
glyphname = E;
lastChange = "2019-08-15 01:23:27 +0000";
layers = (
{
anchors = (
{
name = bottom;
position = "{331, 0}";
},
{
name = ogonek;
position = "{342, 9}";
},
{
name = top;
position = "{332, 766}";
},
{
name = topleft;
position = "{25, 700}";
}
);
layerId = "BA196CD0-EE58-4274-B8DF-4393D3617A29";
paths = (
{
closed = 1;
nodes = (
"563 0 LINE",
"530 151 LINE",
"197 151 LINE",
"197 331 LINE",
"442 347 LINE",
"442 430 LINE",
"197 419 LINE",
"197 637 LINE",
"527 656 LINE",
"548 729 LINE",
"104 715 LINE",
"80 0 LINE"
);
}
);
width = 643;
}
);
unicode = 0045;
},
{
color = 6;
glyphname = F;
lastChange = "2019-08-15 15:40:52 +0000";
layers = (
{
anchors = (
{
name = bottom;
position = "{292, 0}";
},
{
name = bottom_hook;
position = "{114, -38}";
},
{
name = top;
position = "{292, 700}";
}
);
layerId = "BA196CD0-EE58-4274-B8DF-4393D3617A29";
paths = (
{
closed = 1;
nodes = (
"211 0 LINE",
"194 348 LINE",
"457 366 LINE",
"457 468 LINE",
"189 450 LINE",
"213 646 LINE",
"503 663 LINE",
"503 729 LINE",
"119 717 LINE",
"80 0 LINE"
);
}
);
width = 583;
}
);
unicode = 0046;
},
{
color = 6;
glyphname = G;
lastChange = "2019-08-15 15:29:21 +0000";
layers = (
{
anchors = (
{
name = bottom;
position = "{411, 0}";
},
{
name = top;
position = "{441, 716}";
},
{
name = top_hook;
position = "{616, 700}";
}
);
layerId = "BA196CD0-EE58-4274-B8DF-4393D3617A29";
paths = (
{
closed = 1;
nodes = (
"581 157 OFFCURVE",
"522 145 OFFCURVE",
"452 145 CURVE SMOOTH",
"274 145 OFFCURVE",
"191 194 OFFCURVE",
"184 374 CURVE",
"184 654 OFFCURVE",
"274 665 OFFCURVE",
"452 665 CURVE SMOOTH",
"501 665 OFFCURVE",
"578 661 OFFCURVE",
"654 644 CURVE",
"643 722 LINE",
"619 726 OFFCURVE",
"539 736 OFFCURVE",
"444 736 CURVE SMOOTH",
"216 736 OFFCURVE",
"80 685 OFFCURVE",
"80 364 CURVE SMOOTH",
"80 126 OFFCURVE",
"216 -14 OFFCURVE",
"444 -14 CURVE SMOOTH",
"548 -14 OFFCURVE",
"620 -14 OFFCURVE",
"702 40 CURVE",
"691 246 LINE",
"759 245 LINE",
"742 341 LINE",
"460 373 LINE",
"470 279 LINE",
"605 261 LINE",
"605 182 LINE"
);
}
);
width = 839;
}
);
unicode = 0047;
},
{
color = 6;
glyphname = H;
lastChange = "2019-08-15 23:40:47 +0000";
layers = (
{
anchors = (
{
name = bottom;
position = "{386, 0}";
},
{
name = caccent;
position = "{715, 153}";
},
{
name = center;
position = "{383, 365}";
},
{
name = eng;
position = "{622, 52}";
},
{
name = greek_top;
position = "{46, 654}";
},
{
name = top;
position = "{383, 729}";
},
{
name = top_hook;
position = "{-29, 473}";
},
{
name = topleft;
position = "{25, 700}";
}
);
layerId = "BA196CD0-EE58-4274-B8DF-4393D3617A29";
paths = (
{
closed = 1;
nodes = (
"80 0 LINE",
"232 0 LINE",
"204 729 LINE",
"100 729 LINE"
);
},
{
closed = 1;
nodes = (
"532 0 LINE",
"691 0 LINE",
"660 729 LINE",
"556 729 LINE"
);
},
{
closed = 1;
nodes = (
"181 187 LINE",
"575 187 LINE",
"582 332 LINE",
"181 332 LINE"
);
}
);
width = 771;
}
);
unicode = 0048;
},
{
color = 6;
glyphname = I;
lastChange = "2019-08-12 14:58:45 +0000";
layers = (
{
anchors = (
{
name = bottom;
position = "{155, 4}";
},
{
name = ogonek;
position = "{131, 0}";
},
{
name = top;
position = "{144, 779}";
},
{
name = topleft;
position = "{25, 700}";
}
);
layerId = "BA196CD0-EE58-4274-B8DF-4393D3617A29";
paths = (
{
closed = 1;
nodes = (
"220 0 LINE",
"194 243 OFFCURVE",
"184 492 OFFCURVE",
"194 729 CURVE",
"85 729 LINE",
"95 632 OFFCURVE",
"111 292 OFFCURVE",
"80 0 CURVE"
);
}
);
width = 300;
}
);
unicode = 0049;
},
{
color = 6;
glyphname = J;
lastChange = "2019-08-11 02:27:54 +0000";
layers = (
{
anchors = (
{
name = bottom;
position = "{241, 0}";
},
{
name = top;
position = "{282, 729}";
}
);
layerId = "BA196CD0-EE58-4274-B8DF-4393D3617A29";
paths = (
{
closed = 1;
nodes = (
"286 727 LINE",
"401 727 LINE",
"367 31 LINE SMOOTH",
"358 -145 OFFCURVE",
"302 -209 OFFCURVE",
"146 -211 CURVE",
"80 -205 LINE",
"87 -44 LINE",
"137 -55 LINE SMOOTH",
"222 -74 OFFCURVE",
"261 -16 OFFCURVE",
"263 37 CURVE SMOOTH"
);
}
);
width = 481;
}
);
unicode = 004A;
},
{
color = 6;
glyphname = K;
lastChange = "2019-08-15 15:39:04 +0000";
layers = (
{
anchors = (
{
name = bottom;
position = "{312, 0}";
},
{
name = top;
position = "{370, 729}";
},
{
name = top_hook;
position = "{587, 515}";
}
);
layerId = "BA196CD0-EE58-4274-B8DF-4393D3617A29";
paths = (
{
closed = 1;
nodes = (
"208 0 LINE",
"220 289 LINE",
"417 0 LINE",
"650 0 LINE",
"312 327 LINE",
"555 729 LINE",
"428 729 LINE",
"220 359 LINE",
"233 729 LINE",
"145 729 LINE",
"80 0 LINE"
);
}
);
width = 730;
}
);
unicode = 004B;
},
{
color = 6;
glyphname = L;
lastChange = "2019-08-15 01:32:20 +0000";
layers = (
{
anchors = (
{
name = "_ circumflexbelowcomb";
position = "{320, -26}";
},
{
name = bottom;
position = "{317, 5}";
},
{
name = center;
position = "{315, 350}";
},
{
name = right;
position = "{322, 644}";
},
{
name = top;
position = "{143, 729}";
},
{
name = topright;
position = "{604, 700}";
}
);
layerId = "BA196CD0-EE58-4274-B8DF-4393D3617A29";
paths = (
{
closed = 1;
nodes = (
"549 0 LINE",
"539 151 LINE",
"184 145 LINE",
"184 729 LINE",
"106 729 LINE",
"80 0 LINE"
);
}
);
width = 629;
}
);
unicode = 004C;
},
{
color = 6;
glyphname = M;
lastChange = "2019-08-15 23:24:04 +0000";
layers = (
{
anchors = (
{
name = _top;
position = "{408, 663}";
},
{
name = bottom;
position = "{437, 0}";
},
{
name = hookbelow;
position = "{801, 157}";
},
{
name = top;
position = "{437, 700}";
}
);
layerId = "BA196CD0-EE58-4274-B8DF-4393D3617A29";
paths = (
{
closed = 1;
nodes = (
"223 0 LINE",
"177 671 LINE",
"385 63 LINE",
"494 63 LINE",
"683 671 LINE",
"633 0 LINE",
"794 0 LINE",
"763 729 LINE",
"626 729 LINE",
"442 289 LINE",
"253 729 LINE",
"106 729 LINE",
"80 0 LINE"
);
}
);
width = 874;
}
);
unicode = 004D;
},
{
color = 6;
glyphname = N;
lastChange = "2019-08-12 14:46:25 +0000";
layers = (
{
anchors = (
{
name = _;
position = "{415, 0}";
},
{
name = bottom;
position = "{379, 0}";
},
{
name = eng;
position = "{564, 12}";
},
{
name = top;
position = "{415, 729}";
}
);
layerId = "BA196CD0-EE58-4274-B8DF-4393D3617A29";
paths = (
{
closed = 1;
nodes = (
"241 0 LINE",
"221 616 LINE",
"476 0 LINE",
"637 0 LINE",
"677 727 LINE",
"586 727 LINE",
"537 139 LINE",
"261 700 LINE",
"138 700 LINE",
"80 0 LINE"
);
}
);
width = 757;
}
);
unicode = 004E;
},
{
color = 6;
glyphname = O;
lastChange = "2019-08-16 17:25:05 +0000";
layers = (
{
anchors = (
{
name = abovecomb;
position = "{413, 811}";
},
{
name = bottom;
position = "{418, -54}";
},
{
name = center;
position = "{418, 387}";
},
{
name = horn;
position = "{641, 639}";
},
{
name = ogonek;
position = "{748, 10}";
},
{
name = polyomicron;
position = "{114, 672}";
},
{
name = top;
position = "{414, 815}";
},
{
name = topleft;
position = "{25, 700}";
},
{
name = topright;
position = "{810, 700}";
}
);
layerId = "BA196CD0-EE58-4274-B8DF-4393D3617A29";
paths = (
{
closed = 1;
nodes = (
"561 672 OFFCURVE",
"651 548 OFFCURVE",
"651 364 CURVE SMOOTH",
"651 213 OFFCURVE",
"561 173 OFFCURVE",
"418 173 CURVE SMOOTH",
"275 173 OFFCURVE",
"184 213 OFFCURVE",
"184 364 CURVE SMOOTH",
"184 548 OFFCURVE",
"275 672 OFFCURVE",
"418 672 CURVE SMOOTH"
);
},
{
closed = 1;
nodes = (
"213 742 OFFCURVE",
"80 594 OFFCURVE",
"80 364 CURVE SMOOTH",
"80 54 OFFCURVE",
"185 -12 OFFCURVE",
"418 -14 CURVE SMOOTH",
"672 -16 OFFCURVE",
"748 54 OFFCURVE",
"755 364 CURVE SMOOTH",
"760 594 OFFCURVE",
"623 742 OFFCURVE",
"418 742 CURVE SMOOTH"
);
}
);
width = 835;
}
);
unicode = 004F;
},
{
color = 6;
glyphname = P;
lastChange = "2019-08-15 15:06:46 +0000";
layers = (
{
anchors = (
{
name = bottom;
position = "{323, 0}";
},
{
name = top;
position = "{323, 700}";
},
{
name = top_hook;
position = "{-36, 455}";
}
);
layerId = "BA196CD0-EE58-4274-B8DF-4393D3617A29";
paths = (
{
closed = 1;
nodes = (
"441 651 OFFCURVE",
"480 584 OFFCURVE",
"480 549 CURVE SMOOTH",
"480 441 OFFCURVE",
"435 423 OFFCURVE",
"337 419 CURVE SMOOTH",
"203 413 LINE",
"203 651 LINE",
"311 651 LINE SMOOTH"
);
},
{
closed = 1;
nodes = (
"228 0 LINE",
"208 274 LINE",
"327 280 LINE SMOOTH",
"491 288 OFFCURVE",
"566 361 OFFCURVE",
"566 505 CURVE SMOOTH",
"566 601 OFFCURVE",
"491 716 OFFCURVE",
"307 716 CURVE SMOOTH",
"121 716 LINE",
"80 0 LINE"
);
}
);
width = 646;
}
);
unicode = 0050;
},
{
glyphname = Thorn;
lastChange = "2019-08-12 15:00:00 +0000";
layers = (
{
layerId = "BA196CD0-EE58-4274-B8DF-4393D3617A29";
paths = (
{
closed = 1;
nodes = (
"80 0 LINE",
"168 0 LINE",
"168 700 LINE",
"80 700 LINE"
);
},
{
closed = 1;
nodes = (
"301 144 OFFCURVE",
"480 245 OFFCURVE",
"480 371 CURVE SMOOTH",
"480 496 OFFCURVE",
"300 597 OFFCURVE",
"156 597 CURVE",
"92 459 OFFCURVE",
"90 282 OFFCURVE",
"156 144 CURVE"
);
},
{
closed = 1;
nodes = (
"155 231 OFFCURVE",
"107 329 OFFCURVE",
"107 375 CURVE SMOOTH",
"107 421 OFFCURVE",
"150 520 OFFCURVE",
"203 520 CURVE SMOOTH",
"255 520 OFFCURVE",
"409 421 OFFCURVE",
"409 375 CURVE SMOOTH",
"409 329 OFFCURVE",
"260 231 OFFCURVE",
"208 231 CURVE SMOOTH"
);
}
);
width = 560;
}
);
unicode = 00DE;
},
{
color = 6;
glyphname = Q;
lastChange = "2019-08-12 15:00:07 +0000";
layers = (
{
anchors = (
{
name = bottom;
position = "{435, 0}";
},
{
name = top;
position = "{435, 700}";
}
);
layerId = "BA196CD0-EE58-4274-B8DF-4393D3617A29";
paths = (
{
closed = 1;
nodes = (
"561 662 OFFCURVE",
"648 548 OFFCURVE",
"648 364 CURVE SMOOTH",
"648 288 OFFCURVE",
"619 185 OFFCURVE",
"589 185 CURVE SMOOTH",
"549 185 OFFCURVE",
"494 206 OFFCURVE",
"441 234 CURVE",
"408 158 LINE",
"355 156 LINE SMOOTH",
"299 154 OFFCURVE",
"187 153 OFFCURVE",
"187 364 CURVE SMOOTH",
"187 519 OFFCURVE",
"275 662 OFFCURVE",
"418 662 CURVE SMOOTH"
);
},
{
closed = 1;
nodes = (
"692 106 OFFCURVE",
"752 194 OFFCURVE",
"752 364 CURVE SMOOTH",
"752 594 OFFCURVE",
"623 742 OFFCURVE",
"418 742 CURVE SMOOTH",
"213 742 OFFCURVE",
"80 565 OFFCURVE",
"80 364 CURVE SMOOTH",
"80 40 OFFCURVE",
"215 -14 OFFCURVE",
"413 -14 CURVE SMOOTH",
"424 -14 OFFCURVE",
"433 -14 OFFCURVE",
"454 -12 CURVE",
"557 -129 LINE",
"789 -129 LINE",
"634 42 LINE"
);
}
);
width = 869;
}
);
unicode = 0051;
},
{
color = 6;
glyphname = R;
lastChange = "2019-08-15 15:40:16 +0000";
layers = (
{
anchors = (
{
name = bottom;
position = "{320, 0}";
},
{
name = bottom_hook;
position = "{125, -20}";
},
{
name = top;
position = "{320, 729}";
}
);
layerId = "BA196CD0-EE58-4274-B8DF-4393D3617A29";
paths = (
{
closed = 1;
nodes = (
"494 373 OFFCURVE",
"536 423 OFFCURVE",
"536 519 CURVE SMOOTH",
"536 660 OFFCURVE",
"450 729 OFFCURVE",
"303 729 CURVE SMOOTH",
"125 729 LINE",
"80 0 LINE",
"237 0 LINE",
"220 282 LINE",
"272 291 LINE SMOOTH",
"332 301 OFFCURVE",
"439 294 OFFCURVE",
"434 187 CURVE SMOOTH",
"425 0 LINE",
"605 0 LINE",
"548 199 LINE SMOOTH",
"526 277 OFFCURVE",
"468 340 OFFCURVE",
"426 362 CURVE"
);
},
{
closed = 1;
nodes = (
"388 677 OFFCURVE",
"466 644 OFFCURVE",
"466 519 CURVE SMOOTH",
"466 456 OFFCURVE",
"388 405 OFFCURVE",
"313 405 CURVE SMOOTH",
"189 405 LINE",
"189 677 LINE",
"313 677 LINE SMOOTH"
);
}
);
width = 685;
}
);
unicode = 0052;
},
{
color = 6;
glyphname = S;
lastChange = "2019-08-12 15:07:58 +0000";
layers = (
{
anchors = (
{
name = bottom;
position = "{375, 13}";
},
{
name = top;
position = "{375, 729}";
}
);
layerId = "BA196CD0-EE58-4274-B8DF-4393D3617A29";
paths = (
{
closed = 1;
nodes = (
"493 737 OFFCURVE",
"451 742 OFFCURVE",
"383 742 CURVE SMOOTH",
"223 742 OFFCURVE",
"127 663 OFFCURVE",
"127 534 CURVE SMOOTH",
"127 423 OFFCURVE",
"189 364 OFFCURVE",
"336 335 CURVE SMOOTH",
"396 323 LINE SMOOTH",
"496 303 OFFCURVE",
"565 268 OFFCURVE",
"562 208 CURVE SMOOTH",
"557 110 OFFCURVE",
"493 100 OFFCURVE",
"393 100 CURVE SMOOTH",
"338 100 OFFCURVE",
"240 138 OFFCURVE",
"202 167 CURVE",
"80 85 LINE",
"144 -14 OFFCURVE",
"232 -14 OFFCURVE",
"361 -14 CURVE SMOOTH",
"596 -14 OFFCURVE",
"680 -14 OFFCURVE",
"680 201 CURVE SMOOTH",
"680 320 OFFCURVE",
"575 387 OFFCURVE",
"425 417 CURVE SMOOTH",
"366 429 LINE SMOOTH",
"279 447 OFFCURVE",
"201 485 OFFCURVE",
"201 549 CURVE SMOOTH",
"201 626 OFFCURVE",
"287 662 OFFCURVE",
"394 662 CURVE SMOOTH",
"464 662 OFFCURVE",
"477 659 OFFCURVE",
"526 646 CURVE",
"567 720 LINE"
);
}
);
width = 760;
}
);
unicode = 0053;
},
{
glyphname = Saltillo;
lastChange = "2019-08-15 15:41:55 +0000";
layers = (
{
layerId = "BA196CD0-EE58-4274-B8DF-4393D3617A29";
paths = (
{
closed = 1;
nodes = (
"270 120 LINE",
"373 120 LINE",
"424 763 LINE",
"192 763 LINE"
);
}
);
width = 600;
}
);
unicode = A78B;
},
{
color = 6;
glyphname = T;
lastChange = "2019-08-15 15:42:49 +0000";
layers = (
{
anchors = (
{
name = bottom;
position = "{388, 0}";
},
{
name = bottom_hook;
position = "{417, -29}";
},
{
name = center;
position = "{388, 365}";
},
{
name = hook_top;
position = "{107, 691}";
},
{
name = top;
position = "{388, 729}";
}
);
layerId = "BA196CD0-EE58-4274-B8DF-4393D3617A29";
paths = (
{
closed = 1;
nodes = (
"339 656 LINE",
"320 0 LINE",
"458 0 LINE",
"438 656 LINE",
"697 646 LINE",
"697 729 LINE",
"80 729 LINE",
"80 646 LINE"
);
}
);
width = 777;
}
);
unicode = 0054;
},
{
color = 6;
glyphname = U;
lastChange = "2019-08-16 00:17:03 +0000";
layers = (
{
anchors = (
{
name = bottom;
position = "{378, 0}";
},
{
name = horn;
position = "{688, 672}";
},
{
name = ogonek;
position = "{526, 35}";
},
{
name = top;
position = "{380, 809}";
},
{
name = top_hook;
position = "{621, 663}";
},
{
name = topright;
position = "{731, 700}";
}
);
layerId = "BA196CD0-EE58-4274-B8DF-4393D3617A29";
paths = (
{
closed = 1;
nodes = (
"106 -14 OFFCURVE",
"191 -14 OFFCURVE",
"376 -14 CURVE SMOOTH",
"559 -14 OFFCURVE",
"640 -14 OFFCURVE",
"654 274 CURVE SMOOTH",
"676 729 LINE",
"546 729 LINE",
"560 354 LINE SMOOTH",
"568 142 OFFCURVE",
"502 142 OFFCURVE",
"376 142 CURVE SMOOTH",
"249 142 OFFCURVE",
"182 142 OFFCURVE",
"190 354 CURVE SMOOTH",
"204 729 LINE",
"80 729 LINE",
"96 274 LINE SMOOTH"
);
}
);
width = 756;
}
);
unicode = 0055;
},
{
color = 6;
glyphname = V;
lastChange = "2019-08-15 21:18:48 +0000";
layers = (
{
anchors = (
{
name = bottom;
position = "{414, 0}";
},
{
name = top;
position = "{414, 700}";
},
{
name = top_hook;
position = "{677, 622}";
}
);
layerId = "BA196CD0-EE58-4274-B8DF-4393D3617A29";
paths = (
{
closed = 1;
nodes = (
"748 729 LINE",
"646 729 LINE",
"428 214 LINE",
"381 214 LINE",
"183 729 LINE",
"80 729 LINE",
"307 0 LINE",
"511 0 LINE"
);
}
);
width = 828;
}
);
unicode = 0056;
},
{
glyphname = Gammaafrican;
lastChange = "2019-08-15 15:46:53 +0000";
layers = (
{
layerId = "BA196CD0-EE58-4274-B8DF-4393D3617A29";
paths = (
{
closed = 1;
nodes = (
"277 749 CURVE SMOOTH",
"265 771 OFFCURVE",
"261 775 OFFCURVE",
"244 800 CURVE",
"85 800 LINE",
"98 780 OFFCURVE",
"123 738 OFFCURVE",
"130.644 725.896 CURVE SMOOTH",
"559 16 OFFCURVE",
"636 -78 OFFCURVE",
"469 -73 CURVE SMOOTH",
"257 -67 OFFCURVE",
"362 98 OFFCURVE",
"817.536 712.547 CURVE SMOOTH",
"825 723 OFFCURVE",
"874 783 OFFCURVE",
"887 800 CURVE",
"703 800 LINE",
"691 783 OFFCURVE",
"693 789 OFFCURVE",
"683 772 CURVE SMOOTH",
"268 93 OFFCURVE",
"-55 -194 OFFCURVE",
"473 -200 CURVE SMOOTH",
"910 -205 OFFCURVE",
"655 27 OFFCURVE"
);
}
);
width = 948;
}
);
unicode = 0194;
},
{
color = 6;
glyphname = W;
lastChange = "2019-08-15 15:33:47 +0000";
layers = (
{
anchors = (
{
name = bottom;
position = "{542, 0}";
},
{
name = top;
position = "{539, 729}";
},
{
name = top_hook;
position = "{1066, 500}";
}
);
layerId = "BA196CD0-EE58-4274-B8DF-4393D3617A29";
paths = (
{
closed = 1;
nodes = (
"397 0 LINE",
"542 394 LINE",
"676 0 LINE",
"820 0 LINE",
"1003 729 LINE",
"908 729 LINE",
"740 196 LINE",
"582 543 LINE",
"496 543 LINE",
"323 206 LINE",
"175 729 LINE",
"80 729 LINE",
"243 0 LINE"
);
}
);
width = 1083;
}
);
unicode = 0057;
},
{
color = 6;
glyphname = X;
lastChange = "2019-08-15 23:07:33 +0000";
layers = (
{
anchors = (
{
name = bottom;
position = "{395, 0}";
},
{
name = bottom_hook;
position = "{618, 21}";
},
{
name = top;
position = "{395, 700}";
}
);
layerId = "BA196CD0-EE58-4274-B8DF-4393D3617A29";
paths = (
{
closed = 1;
nodes = (
"550 0 LINE",
"709 0 LINE",
"207 729 LINE",
"118 729 LINE"
);
},
{
closed = 1;
nodes = (
"80 2 LINE",
"241 0 LINE",
"685 730 LINE",
"597 730 LINE"
);
}
);
width = 789;
}
);
unicode = 0058;
},
{
color = 6;
glyphname = Y;
lastChange = "2019-08-15 16:18:18 +0000";
layers = (
{
anchors = (
{
name = bottom;
position = "{382, 0}";
},
{
name = top;
position = "{382, 785}";
},
{
name = top_hook;
position = "{735, 500}";
},
{
name = topleft;
position = "{25, 700}";
}
);
layerId = "BA196CD0-EE58-4274-B8DF-4393D3617A29";
paths = (
{
closed = 1;
nodes = (
"314 0 LINE",
"447 0 LINE",
"447 250 LINE",
"684 729 LINE",
"578 729 LINE",
"383 356 LINE",
"186 729 LINE",
"80 729 LINE",
"314 250 LINE"
);
}
);
width = 764;
}
);
unicode = 0059;
},
{
color = 6;
glyphname = Z;
lastChange = "2019-08-11 02:27:54 +0000";
layers = (
{
anchors = (
{
name = bottom;
position = "{403, 0}";
},
{
name = center;
position = "{403, 350}";
},
{
name = top;
position = "{400, 729}";
}
);
layerId = "BA196CD0-EE58-4274-B8DF-4393D3617A29";
paths = (
{
closed = 1;
nodes = (
"152 681 LINE",
"725 681 LINE",
"725 606 LINE",
"203 146 LINE",
"656 146 LINE",
"703 6 LINE",
"80 0 LINE",
"80 139 LINE",
"602 598 LINE",
"197 604 LINE"
);
}
);
width = 805;
}
);
unicode = 005A;
},
{
glyphname = Gsmallhook;
lastChange = "2019-08-11 03:17:35 +0000";
layers = (
{
anchors = (
{
name = _top_hook;
position = "{688, 66}";
},
{
name = center;
position = "{692, 299}";
}
);
components = (
{
name = Gsmall;
}
);
layerId = "BA196CD0-EE58-4274-B8DF-4393D3617A29";
paths = (
{
closed = 1;
nodes = (
"370 683 OFFCURVE",
"346 677 OFFCURVE",
"342 565 CURVE SMOOTH",
"340 515 OFFCURVE",
"340 531 OFFCURVE",
"340 461 CURVE",
"425 461 LINE",
"425 492 OFFCURVE",
"425 517 OFFCURVE",
"425 546 CURVE SMOOTH",
"425 594 OFFCURVE",
"428 597 OFFCURVE",
"496 597 CURVE",
"496 682 LINE"
);
}
);
width = 883;
}
);
unicode = 029B;
},
{
color = 7;
glyphname = a;
lastChange = "2019-08-16 00:21:42 +0000";
layers = (
{
anchors = (
{
name = abovecomb;
position = "{314, 580}";
},
{
name = bottom;
position = "{313, 0}";
},
{
name = dotbelow;
position = "{310, -8}";
},
{
name = ogonek;
position = "{538, 50}";
},
{
name = top;
position = "{317, 581}";
}
);
background = {
components = (
{
alignment = -1;
name = "";
transform = "{1, 0, 0, 1, 49, 150}";
},
{
alignment = -1;
name = "";
transform = "{1, 0, 0, 1, 49, 200}";
},
{
alignment = -1;
name = "";
transform = "{1, 0, 0, 1, 99, 50}";
},
{
alignment = -1;
name = "";
transform = "{1, 0, 0, 1, 99, 100}";
},
{
alignment = -1;
name = "";
transform = "{1, 0, 0, 1, 99, 150}";
},
{
alignment = -1;
name = "";
transform = "{1, 0, 0, 1, 99, 200}";
},
{
alignment = -1;
name = "";
transform = "{1, 0, 0, 1, 99, 250}";
},
{
alignment = -1;
name = "";
transform = "{1, 0, 0, 1, 99, 300}";
},
{
alignment = -1;
name = "";
transform = "{1, 0, 0, 1, 99, 350}";
},
{
alignment = -1;
name = "";
transform = "{1, 0, 0, 1, 149, 0}";
},
{
alignment = -1;
name = "";
transform = "{1, 0, 0, 1, 149, 50}";
},
{
alignment = -1;
name = "";
transform = "{1, 0, 0, 1, 149, 100}";
},
{
alignment = -1;
name = "";
transform = "{1, 0, 0, 1, 149, 400}";
},
{
alignment = -1;
name = "";
transform = "{1, 0, 0, 1, 199, 0}";
},
{
alignment = -1;
name = "";
transform = "{1, 0, 0, 1, 199, 50}";
},
{
alignment = -1;
name = "";
transform = "{1, 0, 0, 1, 199, 100}";
},
{
alignment = -1;
name = "";
transform = "{1, 0, 0, 1, 199, 450}";
},
{
alignment = -1;
name = "";
transform = "{1, 0, 0, 1, 249, 0}";
},
{
alignment = -1;
name = "";
transform = "{1, 0, 0, 1, 249, 50}";
},
{
alignment = -1;
name = "";
transform = "{1, 0, 0, 1, 249, 100}";
},
{
alignment = -1;
name = "";
transform = "{1, 0, 0, 1, 249, 450}";
},
{
alignment = -1;
name = "";
transform = "{1, 0, 0, 1, 299, 0}";
},
{
alignment = -1;
name = "";
transform = "{1, 0, 0, 1, 299, 50}";
},
{
alignment = -1;
name = "";
transform = "{1, 0, 0, 1, 299, 100}";
},
{
alignment = -1;
name = "";
transform = "{1, 0, 0, 1, 299, 450}";
},
{
alignment = -1;
name = "";
transform = "{1, 0, 0, 1, 349, 0}";
},
{
alignment = -1;
name = "";
transform = "{1, 0, 0, 1, 349, 50}";
},
{
alignment = -1;
name = "";
transform = "{1, 0, 0, 1, 349, 100}";
},
{
alignment = -1;
name = "";
transform = "{1, 0, 0, 1, 349, 450}";
},
{
alignment = -1;
name = "";
transform = "{1, 0, 0, 1, 399, 0}";
},
{
alignment = -1;
name = "";
transform = "{1, 0, 0, 1, 399, 50}";
},
{
alignment = -1;
name = "";
transform = "{1, 0, 0, 1, 399, 100}";
},
{
alignment = -1;
name = "";
transform = "{1, 0, 0, 1, 399, 450}";
},
{
alignment = -1;
name = "";
transform = "{1, 0, 0, 1, 449, 50}";
},
{
alignment = -1;
name = "";
transform = "{1, 0, 0, 1, 449, 100}";
},
{
alignment = -1;
name = "";
transform = "{1, 0, 0, 1, 449, 150}";
},
{
alignment = -1;
name = "";
transform = "{1, 0, 0, 1, 449, 200}";
},
{
alignment = -1;
name = "";
transform = "{1, 0, 0, 1, 449, 250}";
},
{
alignment = -1;
name = "";
transform = "{1, 0, 0, 1, 449, 300}";
},
{
alignment = -1;
name = "";
transform = "{1, 0, 0, 1, 449, 350}";
},
{
alignment = -1;
name = "";
transform = "{1, 0, 0, 1, 449, 400}";
},
{
alignment = -1;
name = "";
transform = "{1, 0, 0, 1, 449, 450}";
},
{
alignment = -1;
name = "";
transform = "{1, 0, 0, 1, 449, 500}";
},
{
alignment = -1;
name = "";
transform = "{1, 0, 0, 1, 499, 0}";
},
{
alignment = -1;
name = "";
transform = "{1, 0, 0, 1, 499, 50}";
},
{
alignment = -1;
name = "";
transform = "{1, 0, 0, 1, 499, 100}";
},
{
alignment = -1;
name = "";
transform = "{1, 0, 0, 1, 499, 150}";
},
{
alignment = -1;
name = "";
transform = "{1, 0, 0, 1, 499, 200}";
},
{
alignment = -1;
name = "";
transform = "{1, 0, 0, 1, 499, 250}";
},
{
alignment = -1;
name = "";
transform = "{1, 0, 0, 1, 499, 300}";
},
{
alignment = -1;
name = "";
transform = "{1, 0, 0, 1, 499, 350}";
}
);
paths = (
{
closed = 1;
nodes = (
"458 525 LINE",
"509 525 LINE",
"576 0 LINE",
"486 0 LINE",
"486 82 LINE",
"448 17 OFFCURVE",
"376 -14 OFFCURVE",
"296 -14 CURVE SMOOTH",
"134 -14 OFFCURVE",
"34 105 OFFCURVE",
"79 273 CURVE SMOOTH",
"118 419 OFFCURVE",
"205 525 OFFCURVE",
"296 525 CURVE SMOOTH",
"367 525 OFFCURVE",
"434 504 OFFCURVE",
"470 446 CURVE"
);
},
{
closed = 1;
nodes = (
"111 175 OFFCURVE",
"134 136 OFFCURVE",
"284 138 CURVE SMOOTH",
"465 140 OFFCURVE",
"469 170 OFFCURVE",
"469 299 CURVE SMOOTH",
"469 448 OFFCURVE",
"362 476 OFFCURVE",
"295 476 CURVE",
"234 476 OFFCURVE",
"175 434 OFFCURVE",
"141 296 CURVE SMOOTH"
);
}
);
};
layerId = "BA196CD0-EE58-4274-B8DF-4393D3617A29";
paths = (
{
closed = 1;
nodes = (
"434 504 OFFCURVE",
"367 525 OFFCURVE",
"296 525 CURVE SMOOTH",
"205 525 OFFCURVE",
"116 404 OFFCURVE",
"86 251 CURVE SMOOTH",
"57 101 OFFCURVE",
"139 -14 OFFCURVE",
"296 -14 CURVE SMOOTH",
"376 -14 OFFCURVE",
"448 17 OFFCURVE",
"486 82 CURVE",
"486 0 LINE",
"576 0 LINE",
"509 525 LINE",
"458 525 LINE",
"470 446 LINE"
);
},
{
closed = 1;
nodes = (
"189 434 OFFCURVE",
"234 476 OFFCURVE",
"295 476 CURVE",
"362 476 OFFCURVE",
"469 448 OFFCURVE",
"469 299 CURVE SMOOTH",
"469 170 OFFCURVE",
"465 138 OFFCURVE",
"284 138 CURVE SMOOTH",
"136 138 OFFCURVE",
"125 175 OFFCURVE",
"155 296 CURVE SMOOTH"
);
}
);
width = 656;
}
);
leftKerningGroup = Round;
unicode = 0061;
},
{
color = 7;
glyphname = a.ss001;
lastChange = "2019-08-12 16:49:11 +0000";
layers = (
{
anchors = (
{
name = bottom;
position = "{328, 0}";
},
{
name = ogonek;
position = "{489, 29}";
},
{
name = top;
position = "{317, 577}";
}
);
background = {
components = (
{
alignment = -1;
name = "";
transform = "{1, 0, 0, 1, 49, 150}";
},
{
alignment = -1;
name = "";
transform = "{1, 0, 0, 1, 49, 200}";
},
{
alignment = -1;
name = "";
transform = "{1, 0, 0, 1, 99, 50}";
},
{
alignment = -1;
name = "";
transform = "{1, 0, 0, 1, 99, 100}";
},
{
alignment = -1;
name = "";
transform = "{1, 0, 0, 1, 99, 150}";
},
{
alignment = -1;
name = "";
transform = "{1, 0, 0, 1, 99, 200}";
},
{
alignment = -1;
name = "";
transform = "{1, 0, 0, 1, 99, 250}";
},
{
alignment = -1;
name = "";
transform = "{1, 0, 0, 1, 99, 300}";
},
{
alignment = -1;
name = "";
transform = "{1, 0, 0, 1, 99, 350}";
},
{
alignment = -1;
name = "";
transform = "{1, 0, 0, 1, 149, 0}";
},
{
alignment = -1;
name = "";
transform = "{1, 0, 0, 1, 149, 50}";
},
{
alignment = -1;
name = "";
transform = "{1, 0, 0, 1, 149, 100}";
},
{
alignment = -1;
name = "";
transform = "{1, 0, 0, 1, 149, 400}";
},
{
alignment = -1;
name = "";
transform = "{1, 0, 0, 1, 199, 0}";
},
{
alignment = -1;
name = "";
transform = "{1, 0, 0, 1, 199, 50}";
},
{
alignment = -1;
name = "";
transform = "{1, 0, 0, 1, 199, 100}";
},
{
alignment = -1;
name = "";
transform = "{1, 0, 0, 1, 199, 450}";
},
{
alignment = -1;
name = "";
transform = "{1, 0, 0, 1, 249, 0}";
},
{
alignment = -1;
name = "";
transform = "{1, 0, 0, 1, 249, 50}";
},
{
alignment = -1;
name = "";
transform = "{1, 0, 0, 1, 249, 100}";
},
{
alignment = -1;
name = "";
transform = "{1, 0, 0, 1, 249, 450}";
},
{
alignment = -1;
name = "";
transform = "{1, 0, 0, 1, 299, 0}";
},
{
alignment = -1;
name = "";
transform = "{1, 0, 0, 1, 299, 50}";
},
{
alignment = -1;
name = "";
transform = "{1, 0, 0, 1, 299, 100}";
},
{
alignment = -1;
name = "";
transform = "{1, 0, 0, 1, 299, 450}";
},
{
alignment = -1;
name = "";
transform = "{1, 0, 0, 1, 349, 0}";
},
{
alignment = -1;
name = "";
transform = "{1, 0, 0, 1, 349, 50}";
},
{
alignment = -1;
name = "";
transform = "{1, 0, 0, 1, 349, 100}";
},
{
alignment = -1;
name = "";
transform = "{1, 0, 0, 1, 349, 450}";
},
{
alignment = -1;
name = "";
transform = "{1, 0, 0, 1, 399, 0}";
},
{
alignment = -1;
name = "";
transform = "{1, 0, 0, 1, 399, 50}";
},
{
alignment = -1;
name = "";
transform = "{1, 0, 0, 1, 399, 100}";
},
{
alignment = -1;
name = "";
transform = "{1, 0, 0, 1, 399, 450}";
},
{
alignment = -1;
name = "";
transform = "{1, 0, 0, 1, 449, 50}";
},
{
alignment = -1;
name = "";
transform = "{1, 0, 0, 1, 449, 100}";
},
{
alignment = -1;
name = "";
transform = "{1, 0, 0, 1, 449, 150}";
},
{
alignment = -1;
name = "";
transform = "{1, 0, 0, 1, 449, 200}";
},
{
alignment = -1;
name = "";
transform = "{1, 0, 0, 1, 449, 250}";
},
{
alignment = -1;
name = "";
transform = "{1, 0, 0, 1, 449, 300}";
},
{
alignment = -1;
name = "";
transform = "{1, 0, 0, 1, 449, 350}";
},
{
alignment = -1;
name = "";
transform = "{1, 0, 0, 1, 449, 400}";
},
{
alignment = -1;
name = "";
transform = "{1, 0, 0, 1, 449, 450}";
},
{
alignment = -1;
name = "";
transform = "{1, 0, 0, 1, 449, 500}";
},
{
alignment = -1;
name = "";
transform = "{1, 0, 0, 1, 499, 0}";
},
{
alignment = -1;
name = "";
transform = "{1, 0, 0, 1, 499, 50}";
},
{
alignment = -1;
name = "";
transform = "{1, 0, 0, 1, 499, 100}";
},
{
alignment = -1;
name = "";
transform = "{1, 0, 0, 1, 499, 150}";
},
{
alignment = -1;
name = "";
transform = "{1, 0, 0, 1, 499, 200}";
},
{
alignment = -1;
name = "";
transform = "{1, 0, 0, 1, 499, 250}";
},
{
alignment = -1;
name = "";
transform = "{1, 0, 0, 1, 499, 300}";
},
{
alignment = -1;
name = "";
transform = "{1, 0, 0, 1, 499, 350}";
}
);
paths = (
{
closed = 1;
nodes = (
"458 525 LINE",
"509 525 LINE",
"576 0 LINE",
"486 0 LINE",
"486 82 LINE",
"448 17 OFFCURVE",
"376 -14 OFFCURVE",
"296 -14 CURVE SMOOTH",
"134 -14 OFFCURVE",
"34 105 OFFCURVE",
"79 273 CURVE SMOOTH",
"118 419 OFFCURVE",
"205 525 OFFCURVE",
"296 525 CURVE SMOOTH",
"367 525 OFFCURVE",
"434 504 OFFCURVE",
"470 446 CURVE"
);
},
{
closed = 1;
nodes = (
"111 175 OFFCURVE",
"134 136 OFFCURVE",
"284 138 CURVE SMOOTH",
"465 140 OFFCURVE",
"469 170 OFFCURVE",
"469 299 CURVE SMOOTH",
"469 448 OFFCURVE",
"362 476 OFFCURVE",
"295 476 CURVE",
"234 476 OFFCURVE",
"175 434 OFFCURVE",
"141 296 CURVE SMOOTH"
);
}
);
};
layerId = "BA196CD0-EE58-4274-B8DF-4393D3617A29";
paths = (
{
closed = 1;
nodes = (
"283 276 LINE SMOOTH",
"173 276 OFFCURVE",
"139 252 OFFCURVE",
"134 196 CURVE SMOOTH",
"133 186 OFFCURVE",
"133 178 OFFCURVE",
"137 167 CURVE SMOOTH",
"150 126 OFFCURVE",
"190 122 OFFCURVE",
"243 122 CURVE SMOOTH",
"324 122 OFFCURVE",
"356 141 OFFCURVE",
"356 256 CURVE SMOOTH",
"356 252 LINE SMOOTH",
"356 268 OFFCURVE",
"347 276 OFFCURVE",
"334 276 CURVE SMOOTH"
);
},
{
closed = 1;
nodes = (
"482 24 LINE SMOOTH",
"482 9 OFFCURVE",
"482 21 OFFCURVE",
"482 0 CURVE",
"401 0 LINE",
"401 13 OFFCURVE",
"401 8 OFFCURVE",
"401 24 CURVE SMOOTH",
"401 35 LINE SMOOTH",
"401 56 OFFCURVE",
"391 60 OFFCURVE",
"376 45 CURVE SMOOTH",
"341 6 OFFCURVE",
"294 -14 OFFCURVE",
"230 -14 CURVE SMOOTH",
"131 -14 OFFCURVE",
"66 53 OFFCURVE",
"66 157 CURVE SMOOTH",
"66 279 OFFCURVE",
"140 342 OFFCURVE",
"287 342 CURVE SMOOTH",
"379 342 LINE SMOOTH",
"393 342 OFFCURVE",
"401 345 OFFCURVE",
"401 350 CURVE SMOOTH",
"401 433 OFFCURVE",
"356 482 OFFCURVE",
"261 489 CURVE",
"214 489 OFFCURVE",
"169 478 OFFCURVE",
"128 458 CURVE SMOOTH",
"113 450 OFFCURVE",
"115 452 OFFCURVE",
"102 441 CURVE",
"102 516 LINE",
"105 517 OFFCURVE",
"108 519 OFFCURVE",
"120 524 CURVE SMOOTH",
"172 545 OFFCURVE",
"222 554 OFFCURVE",
"269 554 CURVE SMOOTH",
"412 554 OFFCURVE",
"482 474 OFFCURVE",
"482 309 CURVE SMOOTH"
);
}
);
width = 656;
}
);
leftKerningGroup = Round;
},
{
color = 7;
glyphname = b;
lastChange = "2019-08-15 01:06:28 +0000";
layers = (
{
anchors = (
{
name = _hook_top;
position = "{130, 778}";
},
{
name = bottom;
position = "{327, -37}";
},
{
name = top;
position = "{327, 800}";
},
{
name = top_hook;
position = "{128, 717}";
}
);
hints = (
{
place = "{99, 65}";
type = Stem;
}
);
layerId = "BA196CD0-EE58-4274-B8DF-4393D3617A29";
paths = (
{
closed = 1;
nodes = (
"502 193 OFFCURVE",
"449 152 OFFCURVE",
"369 146 CURVE",
"239 146 OFFCURVE",
"217 187 OFFCURVE",
"217 289 CURVE SMOOTH",
"217 395 OFFCURVE",
"274 468 OFFCURVE",
"369 468 CURVE SMOOTH",
"465 468 OFFCURVE",
"515 392 OFFCURVE",
"515 293 CURVE"
);
},
{
closed = 1;
nodes = (
"162 27 OFFCURVE",
"205 -14 OFFCURVE",
"348 -14 CURVE SMOOTH",
"481 -14 OFFCURVE",
"573 101 OFFCURVE",
"573 273 CURVE SMOOTH",
"573 417 OFFCURVE",
"481 532 OFFCURVE",
"348 532 CURVE SMOOTH",
"240 532 OFFCURVE",
"174 399 OFFCURVE",
"174 474 CURVE SMOOTH",
"174 793 LINE",
"80 793 LINE",
"110 430 OFFCURVE",
"115 144 OFFCURVE",
"136 99 CURVE"
);
}
);
width = 653;
}
);
rightKerningGroup = RoundRight;
unicode = 0062;
},
{
color = 7;
glyphname = c;
lastChange = "2019-08-11 02:27:54 +0000";
layers = (
{
anchors = (
{
name = bottom;
position = "{317, 0}";
},
{
name = top;
position = "{317, 547}";
},
{
name = top_hook;
position = "{398, 533}";
}
);
layerId = "BA196CD0-EE58-4274-B8DF-4393D3617A29";
paths = (
{
closed = 1;
nodes = (
"423 555 OFFCURVE",
"386 560 OFFCURVE",
"359 560 CURVE SMOOTH",
"189 560 OFFCURVE",
"80 451 OFFCURVE",
"80 273 CURVE SMOOTH",
"80 97 OFFCURVE",
"142 0 OFFCURVE",
"349 -14 CURVE SMOOTH",
"410 -18 OFFCURVE",
"463 -2 OFFCURVE",
"513 21 CURVE",
"410 135 LINE",
"305 73 OFFCURVE",
"190 143 OFFCURVE",
"180 273 CURVE",
"180 406 OFFCURVE",
"222 489 OFFCURVE",
"339 489 CURVE SMOOTH",
"367 489 OFFCURVE",
"412 487 OFFCURVE",
"444 477 CURVE",
"444 548 LINE"
);
}
);
width = 593;
}
);
leftKerningGroup = Round;
unicode = 0063;
},
{
glyphname = ccurl;
lastChange = "2019-08-11 02:27:54 +0000";
layers = (
{
anchors = (
{
name = _curl;
position = "{152, 459}";
},
{
name = bottom;
position = "{317, 0}";
},
{
name = top;
position = "{317, 540}";
}
);
layerId = "BA196CD0-EE58-4274-B8DF-4393D3617A29";
paths = (
{
closed = 1;
nodes = (
"423 555 OFFCURVE",
"386 560 OFFCURVE",
"359 560 CURVE SMOOTH",
"189 560 OFFCURVE",
"80 451 OFFCURVE",
"80 273 CURVE SMOOTH",
"80 97 OFFCURVE",
"143 -14 OFFCURVE",
"349 -14 CURVE SMOOTH",
"474 -14 OFFCURVE",
"606 83 OFFCURVE",
"606 183 CURVE SMOOTH",
"606 223 OFFCURVE",
"585 263 OFFCURVE",
"535 298 CURVE SMOOTH",
"499 323 OFFCURVE",
"464 334 OFFCURVE",
"433 334 CURVE SMOOTH",
"358 334 OFFCURVE",
"306 269 OFFCURVE",
"306 176 CURVE SMOOTH",
"306 40 OFFCURVE",
"306 -79 OFFCURVE",
"306 -200 CURVE",
"416 -200 LINE",
"416 -137 OFFCURVE",
"412 -75 OFFCURVE",
"408 -10 CURVE SMOOTH",
"405 42 OFFCURVE",
"400 95 OFFCURVE",
"400 152 CURVE SMOOTH",
"400 213 OFFCURVE",
"421 239 OFFCURVE",
"448 239 CURVE SMOOTH",
"462 239 OFFCURVE",
"478 232 OFFCURVE",
"494 220 CURVE SMOOTH",
"502 214 OFFCURVE",
"505 206 OFFCURVE",
"505 197 CURVE SMOOTH",
"505 158 OFFCURVE",
"436 97 OFFCURVE",
"324 97 CURVE SMOOTH",
"213 97 OFFCURVE",
"181 203 OFFCURVE",
"180 273 CURVE",
"180 406 OFFCURVE",
"222 489 OFFCURVE",
"339 489 CURVE SMOOTH",
"367 489 OFFCURVE",
"412 487 OFFCURVE",
"444 477 CURVE",
"444 548 LINE"
);
}
);
width = 686;
}
);
unicode = 0255;
},
{
color = 7;
glyphname = d;
lastChange = "2019-08-15 16:25:00 +0000";
layers = (
{
anchors = (
{
name = bottom;
position = "{298, -42}";
},
{
name = bottom_hook;
position = "{518, 27}";
},
{
name = center;
position = "{375, 273}";
},
{
name = circumflexbelow;
position = "{304, -54}";
},
{
name = croat;
position = "{534, 624}";
},
{
name = dotbelow;
position = "{298, -51}";
},
{
name = ezh;
position = "{540, 601}";
},
{
name = right;
position = "{631, 674}";
},
{
name = right_el;
position = "{679, 526}";
},
{
name = top;
position = "{304, 560}";
},
{
name = top_hook;
position = "{525, 700}";
},
{
name = topright;
position = "{641, 500}";
}
);
layerId = "BA196CD0-EE58-4274-B8DF-4393D3617A29";
paths = (
{
closed = 1;
nodes = (
"442 505 OFFCURVE",
"384 536 OFFCURVE",
"304 536 CURVE SMOOTH",
"172 536 OFFCURVE",
"80 421 OFFCURVE",
"80 273 CURVE SMOOTH",
"80 101 OFFCURVE",
"147 -19 OFFCURVE",
"304 -14 CURVE SMOOTH",
"384 -11 OFFCURVE",
"442 17 OFFCURVE",
"479 82 CURVE",
"479 0 LINE",
"574 -2 LINE",
"562 235 LINE",
"586 800 LINE",
"496 800 LINE",
"479 440 LINE"
);
},
{
closed = 1;
nodes = (
"145 391 OFFCURVE",
"202 471 OFFCURVE",
"298 471 CURVE SMOOTH",
"393 471 OFFCURVE",
"439 398 OFFCURVE",
"439 290 CURVE SMOOTH",
"439 169 OFFCURVE",
"390 149 OFFCURVE",
"295 149 CURVE SMOOTH",
"200 149 OFFCURVE",
"145 188 OFFCURVE",
"145 283 CURVE SMOOTH"
);
}
);
width = 666;
}
);
leftKerningGroup = Round;
unicode = 0064;
},
{
glyphname = dzaltone;
lastChange = "2019-08-11 02:27:54 +0000";
layers = (
{
components = (
{
name = d;
},
{
name = z;
transform = "{1, 0, 0, 1, 496, -13}";
}
);
layerId = "BA196CD0-EE58-4274-B8DF-4393D3617A29";
paths = (
{
closed = 1;
nodes = (
"519 469 LINE",
"723 469 LINE",
"723 536 LINE",
"519 536 LINE"
);
}
);
width = 1167;
}
);
unicode = 02A3;
},
{
glyphname = dzcurl;
lastChange = "2019-08-11 02:27:54 +0000";
layers = (
{
components = (
{
name = d;
},
{
name = zcurl;
transform = "{1, 0, 0, 1, 503, -1}";
}
);
layerId = "BA196CD0-EE58-4274-B8DF-4393D3617A29";
paths = (
{
closed = 1;
nodes = (
"521 481 LINE",
"730 481 LINE",
"730 548 LINE",
"521 548 LINE"
);
}
);
width = 1229;
}
);
unicode = 02A5;
},
{
color = 7;
glyphname = e;
lastChange = "2019-08-15 01:30:45 +0000";
layers = (
{
anchors = (
{
name = _hook;
position = "{353, 539}";
},
{
name = bottom;
position = "{336, 0}";
},
{
name = center;
position = "{117, 267}";
},
{
name = dotbelow;
position = "{350, -22}";
},
{
name = ogonek;
position = "{434, -7}";
},
{
name = righthook;
position = "{575, 274}";
},
{
name = top;
position = "{336, 599}";
}
);
layerId = "BA196CD0-EE58-4274-B8DF-4393D3617A29";
paths = (
{
closed = 1;
nodes = (
"461 551 OFFCURVE",
"349 560 CURVE",
"184 560 OFFCURVE",
"87 447 OFFCURVE",
"80 268 CURVE",
"80 95 OFFCURVE",
"190 -14 OFFCURVE",
"364 -14 CURVE SMOOTH",
"435 -14 OFFCURVE",
"500 0 OFFCURVE",
"565 28 CURVE",
"565 152 LINE",
"488 119 OFFCURVE",
"441 122 OFFCURVE",
"367 119 CURVE SMOOTH",
"226 114 OFFCURVE",
"161 192 OFFCURVE",
"161 287 CURVE",
"574 315 LINE",
"542 496 OFFCURVE"
);
},
{
closed = 1;
nodes = (
"184 440 OFFCURVE",
"249 513 OFFCURVE",
"349 513 CURVE SMOOTH",
"438 513 OFFCURVE",
"494 446 OFFCURVE",
"504 385 CURVE",
"184 374 LINE"
);
}
);
width = 654;
}
);
leftKerningGroup = Round;
unicode = 0065;
},
{
glyphname = eopen;
lastChange = "2019-08-15 16:09:14 +0000";
layers = (
{
anchors = (
{
name = top;
position = "{253, 520}";
}
);
layerId = "BA196CD0-EE58-4274-B8DF-4393D3617A29";
paths = (
{
closed = 1;
nodes = (
"118 286 OFFCURVE",
"91 318 OFFCURVE",
"91 372 CURVE SMOOTH",
"91 451 OFFCURVE",
"154 500 OFFCURVE",
"256 500 CURVE SMOOTH",
"296 500 OFFCURVE",
"383 476 OFFCURVE",
"383 388 CURVE",
"338 379 LINE",
"339 438 OFFCURVE",
"299 456 OFFCURVE",
"263 456 CURVE SMOOTH",
"195 456 OFFCURVE",
"139 431 OFFCURVE",
"139 377 CURVE SMOOTH",
"139 314 OFFCURVE",
"186 295 OFFCURVE",
"252 295 CURVE",
"275 295 LINE",
"287 242 LINE",
"265 242 LINE SMOOTH",
"191 243 OFFCURVE",
"152 210 OFFCURVE",
"152 165 CURVE",
"152 120 OFFCURVE",
"178 80 OFFCURVE",
"246 79 CURVE SMOOTH",
"295 78 OFFCURVE",
"346 79 OFFCURVE",
"320 182 CURVE",
"400 189 LINE",
"458 17 OFFCURVE",
"295 -12 OFFCURVE",
"253 -12 CURVE SMOOTH",
"161 -12 OFFCURVE",
"80 40 OFFCURVE",
"80 147 CURVE SMOOTH",
"80 210 OFFCURVE",
"103 252 OFFCURVE",
"182 263 CURVE"
);
}
);
width = 492;
}
);
unicode = 025B;
},
{
glyphname = eopenreversedclosed;
lastChange = "2019-08-11 02:27:54 +0000";
layers = (
{
layerId = "BA196CD0-EE58-4274-B8DF-4393D3617A29";
paths = (
{
closed = 1;
nodes = (
"80 369 OFFCURVE",
"126 500 OFFCURVE",
"324 500 CURVE SMOOTH",
"426 500 OFFCURVE",
"489 451 OFFCURVE",
"489 372 CURVE SMOOTH",
"489 318 OFFCURVE",
"485 290 OFFCURVE",
"398 263 CURVE",
"477 252 OFFCURVE",
"500 210 OFFCURVE",
"500 147 CURVE SMOOTH",
"500 40 OFFCURVE",
"419 -16 OFFCURVE",
"327 -12 CURVE SMOOTH",
"149 -4 OFFCURVE",
"80 119 OFFCURVE",
"80 249 CURVE SMOOTH"
);
},
{
closed = 1;
nodes = (
"142 194 OFFCURVE",
"184 79 OFFCURVE",
"334 79 CURVE SMOOTH",
"402 79 OFFCURVE",
"428 120 OFFCURVE",
"428 165 CURVE SMOOTH",
"428 210 OFFCURVE",
"389 243 OFFCURVE",
"315 242 CURVE SMOOTH",
"293 242 LINE",
"305 295 LINE",
"328 295 LINE SMOOTH",
"394 295 OFFCURVE",
"441 314 OFFCURVE",
"441 377 CURVE SMOOTH",
"441 431 OFFCURVE",
"385 456 OFFCURVE",
"317 456 CURVE SMOOTH",
"191 456 OFFCURVE",
"142 346 OFFCURVE",
"142 252 CURVE SMOOTH"
);
}
);
width = 580;
}
);
unicode = 025E;
},
{
glyphname = esh;
lastChange = "2019-08-11 02:27:54 +0000";
layers = (
{
layerId = "BA196CD0-EE58-4274-B8DF-4393D3617A29";
paths = (
{
closed = 1;
nodes = (
"749 754 OFFCURVE",
"717 760 OFFCURVE",
"682 760 CURVE SMOOTH",
"584 760 OFFCURVE",
"514 694 OFFCURVE",
"494 575 CURVE SMOOTH",
"455 344 LINE",
"417 83 LINE",
"395 -25 OFFCURVE",
"363 -65 OFFCURVE",
"300 -65 CURVE SMOOTH",
"269 -65 OFFCURVE",
"238 -54 OFFCURVE",
"205 -33 CURVE",
"80 -98 LINE",
"129 -180 OFFCURVE",
"238 -208 OFFCURVE",
"275 -208 CURVE SMOOTH",
"389 -208 OFFCURVE",
"472 -216 OFFCURVE",
"516 107 CURVE SMOOTH",
"548 344 LINE",
"585 576 LINE SMOOTH",
"599 662 OFFCURVE",
"637 700 OFFCURVE",
"700 700 CURVE SMOOTH",
"729 700 OFFCURVE",
"754 691 OFFCURVE",
"779 672 CURVE",
"779 742 LINE"
);
}
);
width = 859;
}
);
unicode = 0283;
},
{
glyphname = ezh;
lastChange = "2019-08-16 19:24:59 +0000";
layers = (
{
anchors = (
{
name = _ezh;
position = "{95, 623}";
},
{
name = bottom;
position = "{348, 0}";
},
{
name = top;
position = "{337, 693}";
}
);
layerId = "BA196CD0-EE58-4274-B8DF-4393D3617A29";
paths = (
{
closed = 1;
nodes = (
"461 406 OFFCURVE",
"486 427 OFFCURVE",
"576 527 CURVE",
"568 598 OFFCURVE",
"570 598 OFFCURVE",
"558 667 CURVE",
"478 671 OFFCURVE",
"181 667 OFFCURVE",
"83 667 CURVE",
"83 573 LINE",
"230 572 OFFCURVE",
"365 572 OFFCURVE",
"478 573 CURVE",
"384 468 OFFCURVE",
"329 430 OFFCURVE",
"217 325 CURVE",
"217 232 LINE",
"357 245 OFFCURVE",
"471 205 OFFCURVE",
"478 126 CURVE",
"481 -23 OFFCURVE",
"348 -111 OFFCURVE",
"207 27 CURVE",
"80 -77 LINE",
"207 -202 OFFCURVE",
"332 -200 OFFCURVE",
"365 -200 CURVE SMOOTH",
"579 -200 OFFCURVE",
"617 -57 OFFCURVE",
"603 107 CURVE SMOOTH",
"595 203 OFFCURVE",
"489 305 OFFCURVE",
"369 314 CURVE"
);
}
);
width = 686;
}
);
unicode = 0292;
},
{
color = 7;
glyphname = f;
lastChange = "2019-08-16 19:23:00 +0000";
layers = (
{
anchors = (
{
name = bottom;
position = "{242, 0}";
},
{
name = center;
position = "{212, 265}";
},
{
name = top;
position = "{242, 800}";
}
);
layerId = "BA196CD0-EE58-4274-B8DF-4393D3617A29";
paths = (
{
closed = 1;
nodes = (
"212 795 OFFCURVE",
"161 761 OFFCURVE",
"161 547 CURVE",
"80 547 LINE",
"80 458 LINE",
"161 458 LINE",
"146 0 LINE",
"276 0 LINE",
"261 458 LINE",
"404 458 LINE",
"404 547 LINE",
"249 545 LINE",
"240 584 OFFCURVE",
"225 720 OFFCURVE",
"314 720 CURVE",
"395 720 LINE",
"395 795 LINE",
"315 795 LINE"
);
}
);
width = 484;
}
);
unicode = 0066;
},
{
color = 7;
glyphname = g;
lastChange = "2019-08-15 16:17:48 +0000";
layers = (
{
anchors = (
{
name = bottom;
position = "{301, -261}";
},
{
name = comma;
position = "{307, -262}";
},
{
name = top;
position = "{340, 547}";
},
{
name = top_hook;
position = "{528, 353}";
}
);
layerId = "BA196CD0-EE58-4274-B8DF-4393D3617A29";
paths = (
{
closed = 1;
nodes = (
"440 156 OFFCURVE",
"377 146 OFFCURVE",
"280 146 CURVE SMOOTH",
"184 146 OFFCURVE",
"147 156 OFFCURVE",
"134 285 CURVE",
"134 416 OFFCURVE",
"191 490 OFFCURVE",
"287 490 CURVE SMOOTH",
"383 490 OFFCURVE",
"440 416 OFFCURVE",
"440 285 CURVE SMOOTH"
);
},
{
closed = 1;
nodes = (
"489 547 LINE",
"468 477 LINE",
"413 518 OFFCURVE",
"384 560 OFFCURVE",
"304 560 CURVE SMOOTH",
"170 560 OFFCURVE",
"80 449 OFFCURVE",
"80 280 CURVE SMOOTH",
"80 111 OFFCURVE",
"170 0 OFFCURVE",
"304 0 CURVE SMOOTH",
"384 0 OFFCURVE",
"444 37 OFFCURVE",
"474 82 CURVE",
"474 52 LINE",
"461 -13 OFFCURVE",
"411 -124 OFFCURVE",
"293 -124 CURVE SMOOTH",
"240 -124 OFFCURVE",
"189 -111 OFFCURVE",
"136 -82 CURVE",
"99 -214 LINE",
"161 -245 OFFCURVE",
"238 -261 OFFCURVE",
"301 -261 CURVE SMOOTH",
"472 -261 OFFCURVE",
"548 -152 OFFCURVE",
"558 69 CURVE SMOOTH",
"579 547 LINE"
);
}
);
width = 659;
}
);
unicode = 0067;
},
{
glyphname = "gamma-latin";
lastChange = "2019-08-11 02:27:54 +0000";
layers = (
{
layerId = "BA196CD0-EE58-4274-B8DF-4393D3617A29";
paths = (
{
closed = 1;
nodes = (
"182 481 CURVE SMOOTH",
"170 493 OFFCURVE",
"165 500 OFFCURVE",
"153 515 CURVE",
"80 455 LINE",
"90 443 OFFCURVE",
"89 442 OFFCURVE",
"97 435 CURVE SMOOTH",
"510 41 OFFCURVE",
"472 -103 OFFCURVE",
"348 -100 CURVE SMOOTH",
"191 -96 OFFCURVE",
"224 74 OFFCURVE",
"607 427 CURVE SMOOTH",
"614 433 OFFCURVE",
"617 439 OFFCURVE",
"624 448 CURVE",
"549 515 LINE",
"540 505 OFFCURVE",
"534 495 OFFCURVE",
"525 485 CURVE SMOOTH",
"172 94 OFFCURVE",
"-41 -193 OFFCURVE",
"351 -197 CURVE SMOOTH",
"676 -200 OFFCURVE",
"573 88 OFFCURVE"
);
}
);
width = 704;
}
);
unicode = 0263;
},
{
glyphname = glottalstop;
lastChange = "2019-08-11 02:27:54 +0000";
layers = (
{
layerId = "BA196CD0-EE58-4274-B8DF-4393D3617A29";
paths = (
{
closed = 1;
nodes = (
"213 43 OFFCURVE",
"258 54 OFFCURVE",
"258 61 CURVE",
"258 91 OFFCURVE",
"259 285 OFFCURVE",
"259 325 CURVE SMOOTH",
"259 365 OFFCURVE",
"404 373 OFFCURVE",
"398 528 CURVE SMOOTH",
"395 600 OFFCURVE",
"367 660 OFFCURVE",
"284 679 CURVE SMOOTH",
"220 694 OFFCURVE",
"80 669 OFFCURVE",
"80 553 CURVE",
"116 553 OFFCURVE",
"129 553 OFFCURVE",
"162 553 CURVE",
"162 620 OFFCURVE",
"205 630 OFFCURVE",
"272 616 CURVE SMOOTH",
"317 607 OFFCURVE",
"337 570 OFFCURVE",
"337 517 CURVE SMOOTH",
"337 446 OFFCURVE",
"231 429 OFFCURVE",
"202 384 CURVE SMOOTH",
"176 343 OFFCURVE",
"173 329 OFFCURVE",
"173 272 CURVE SMOOTH",
"173 227 OFFCURVE",
"172 66 OFFCURVE",
"172 32 CURVE"
);
}
);
width = 478;
}
);
unicode = 0294;
},
{
glyphname = glottalstopsmall;
lastChange = "2019-08-15 14:56:08 +0000";
layers = (
{
layerId = "BA196CD0-EE58-4274-B8DF-4393D3617A29";
paths = (
{
closed = 1;
nodes = (
"274 220 OFFCURVE",
"322 220 CURVE",
"325 258 OFFCURVE",
"318 300 OFFCURVE",
"318 340 CURVE SMOOTH",
"318 380 OFFCURVE",
"463 388 OFFCURVE",
"457 543 CURVE SMOOTH",
"454 615 OFFCURVE",
"426 675 OFFCURVE",
"343 694 CURVE SMOOTH",
"279 709 OFFCURVE",
"139 684 OFFCURVE",
"139 568 CURVE",
"175 568 OFFCURVE",
"188 568 OFFCURVE",
"221 568 CURVE",
"221 635 OFFCURVE",
"264 644 OFFCURVE",
"331 631 CURVE SMOOTH",
"376 622 OFFCURVE",
"396 585 OFFCURVE",
"396 532 CURVE SMOOTH",
"396 461 OFFCURVE",
"290 444 OFFCURVE",
"261 399 CURVE SMOOTH",
"235 358 OFFCURVE",
"225 277 OFFCURVE",
"225 220 CURVE",
"254 220 OFFCURVE"
);
}
);
width = 600;
}
);
unicode = 0242;
},
{
color = 7;
glyphname = h;
lastChange = "2019-08-15 20:56:43 +0000";
layers = (
{
anchors = (
{
name = bottom;
position = "{338, 0}";
},
{
name = bottom_hook;
position = "{518, 0}";
},
{
name = center;
position = "{302, 273}";
},
{
name = top;
position = "{302, 547}";
},
{
name = top_hook;
position = "{181, 482}";
}
);
layerId = "BA196CD0-EE58-4274-B8DF-4393D3617A29";
paths = (
{
closed = 1;
nodes = (
"563 522 OFFCURVE",
"510 548 OFFCURVE",
"384 548 CURVE SMOOTH",
"308 548 OFFCURVE",
"276 532 OFFCURVE",
"208 469 CURVE",
"228 800 LINE",
"138 800 LINE",
"80 0 LINE",
"228 0 LINE",
"174 385 OFFCURVE",
"205 476 OFFCURVE",
"364 476 CURVE SMOOTH",
"520 476 OFFCURVE",
"532 365 OFFCURVE",
"458 0 CURVE",
"596 0 LINE",
"575 330 LINE SMOOTH"
);
}
);
width = 676;
}
);
unicode = 0068;
},
{
color = 7;
glyphname = i;
lastChange = "2019-08-11 03:10:24 +0000";
layers = (
{
anchors = (
{
name = bottom;
position = "{141, 0}";
},
{
name = center;
position = "{155, 285}";
}
);
layerId = "BA196CD0-EE58-4274-B8DF-4393D3617A29";
paths = (
{
closed = 1;
nodes = (
"202 0 LINE",
"172 192 OFFCURVE",
"172 341 OFFCURVE",
"179 506 CURVE",
"99 506 LINE",
"99 285 OFFCURVE",
"93 192 OFFCURVE",
"80 0 CURVE"
);
},
{
closed = 1;
nodes = (
"184 646 LINE",
"179 760 LINE",
"99 760 LINE",
"94 646 LINE"
);
}
);
width = 282;
}
);
unicode = 0069;
},
{
glyphname = idotless;
lastChange = "2019-08-16 00:25:36 +0000";
layers = (
{
anchors = (
{
name = bottom;
position = "{141, 0}";
},
{
name = ogonek;
position = "{141, 0}";
},
{
name = top;
position = "{137, 566}";
}
);
layerId = "BA196CD0-EE58-4274-B8DF-4393D3617A29";
paths = (
{
closed = 1;
nodes = (
"202 0 LINE",
"172 192 OFFCURVE",
"172 341 OFFCURVE",
"179 506 CURVE",
"99 506 LINE",
"99 285 OFFCURVE",
"93 192 OFFCURVE",
"80 0 CURVE"
);
}
);
width = 282;
}
);
unicode = 0131;
},
{
glyphname = "iota-latin";
lastChange = "2019-08-15 15:49:30 +0000";
layers = (
{
anchors = (
{
name = bottom;
position = "{141, 0}";
},
{
name = ogonek;
position = "{141, 0}";
},
{
name = top;
position = "{137, 517}";
}
);
layerId = "BA196CD0-EE58-4274-B8DF-4393D3617A29";
paths = (
{
closed = 1;
nodes = (
"268 67 LINE",
"232 67 OFFCURVE",
"226 56 OFFCURVE",
"178 79 CURVE",
"180 172 OFFCURVE",
"175 412 OFFCURVE",
"179 506 CURVE",
"99 506 LINE",
"99 389 OFFCURVE",
"116 263 OFFCURVE",
"94 44 CURVE",
"118 0 OFFCURVE",
"108 0 OFFCURVE",
"261 0 CURVE"
);
}
);
width = 282;
}
);
unicode = 0269;
},
{
glyphname = jdotless;
lastChange = "2019-08-11 03:24:34 +0000";
layers = (
{
layerId = "BA196CD0-EE58-4274-B8DF-4393D3617A29";
paths = (
{
closed = 1;
nodes = (
"157 -132 OFFCURVE",
"152 -131 OFFCURVE",
"102 -111 CURVE",
"80 -223 LINE",
"123 -225 OFFCURVE",
"236 -231 OFFCURVE",
"264 -200 CURVE SMOOTH",
"289 -173 OFFCURVE",
"294 -121 OFFCURVE",
"301 -14 CURVE SMOOTH",
"336 520 LINE",
"251 520 LINE",
"240 118 OFFCURVE",
"238 -27 OFFCURVE",
"199 -78 CURVE SMOOTH"
);
}
);
width = 426;
}
);
unicode = 0237;
},
{
glyphname = jcrossedtail;
lastChange = "2019-08-11 03:21:58 +0000";
layers = (
{
anchors = (
{
name = _curl;
position = "{782, 459}";
},
{
name = bottom;
position = "{947, 0}";
},
{
name = top;
position = "{947, 540}";
}
);
components = (
{
name = jdotless;
transform = "{1, 0, 0, 1, 221, 4}";
}
);
layerId = "BA196CD0-EE58-4274-B8DF-4393D3617A29";
paths = (
{
closed = 1;
nodes = (
"544 85 OFFCURVE",
"516 74 OFFCURVE",
"452 67 CURVE",
"452 -45 OFFCURVE",
"391 -114 OFFCURVE",
"352 -114 CURVE SMOOTH",
"281 -114 OFFCURVE",
"297 -9 OFFCURVE",
"397 -9 CURVE SMOOTH",
"454 -9 OFFCURVE",
"485 -14 OFFCURVE",
"537 -17 CURVE SMOOTH",
"602 -21 OFFCURVE",
"686 -25 OFFCURVE",
"749 -25 CURVE",
"749 85 LINE",
"628 85 OFFCURVE",
"509 85 OFFCURVE",
"373 85 CURVE SMOOTH",
"280 85 OFFCURVE",
"215 33 OFFCURVE",
"215 -42 CURVE SMOOTH",
"215 -243 OFFCURVE",
"258 -224 OFFCURVE",
"366 -224 CURVE SMOOTH",
"516 -224 OFFCURVE",
"523 -215 OFFCURVE",
"541 42 CURVE SMOOTH"
);
}
);
width = 829;
}
);
unicode = 029D;
},
{
color = 7;
glyphname = k;
lastChange = "2019-08-11 02:27:54 +0000";
layers = (
{
anchors = (
{
name = bottom;
position = "{269, 0}";
},
{
name = top;
position = "{330, 800}";
},
{
name = top_hook;
position = "{159, 378}";
}
);
layerId = "BA196CD0-EE58-4274-B8DF-4393D3617A29";
paths = (
{
closed = 1;
nodes = (
"200 0 LINE",
"191 255 LINE",
"375 0 LINE",
"580 0 LINE",
"269 299 LINE",
"432 500 LINE",
"334 502 LINE",
"185 331 LINE",
"212 793 LINE",
"122 793 LINE",
"80 0 LINE"
);
}
);
width = 660;
}
);
unicode = 006B;
},
{
color = 7;
glyphname = l;
lastChange = "2019-08-15 15:49:46 +0000";
layers = (
{
anchors = (
{
name = bottom;
position = "{198, 0}";
},
{
name = center;
position = "{142, 400}";
},
{
name = dot;
position = "{226, 406}";
},
{
name = ezh;
position = "{145, 547}";
},
{
name = right;
position = "{251, 587}";
},
{
name = right_el;
position = "{370, 538}";
},
{
name = top;
position = "{156, 750}";
},
{
name = topright;
position = "{264, 641}";
}
);
layerId = "BA196CD0-EE58-4274-B8DF-4393D3617A29";
paths = (
{
closed = 1;
nodes = (
"310 0 LINE",
"294 111 LINE",
"175 111 LINE",
"175 124 OFFCURVE",
"180 544 OFFCURVE",
"207 784 CURVE",
"122 784 LINE",
"93 506 OFFCURVE",
"80 111 OFFCURVE",
"80 0 CURVE"
);
}
);
width = 390;
}
);
unicode = 006C;
},
{
glyphname = lbelt;
lastChange = "2019-08-11 02:27:54 +0000";
layers = (
{
anchors = (
{
name = _curl;
position = "{725, 459}";
},
{
name = bottom;
position = "{890, 0}";
},
{
name = top;
position = "{890, 540}";
}
);
components = (
{
name = l;
transform = "{1, 0, 0, 1, 198, 0}";
}
);
layerId = "BA196CD0-EE58-4274-B8DF-4393D3617A29";
paths = (
{
closed = 1;
nodes = (
"592 398 LINE",
"522 398 OFFCURVE",
"462 401 OFFCURVE",
"351 401 CURVE SMOOTH",
"255 401 OFFCURVE",
"170 462 OFFCURVE",
"170 501 CURVE SMOOTH",
"170 510 OFFCURVE",
"173 518 OFFCURVE",
"181 524 CURVE SMOOTH",
"197 536 OFFCURVE",
"213 543 OFFCURVE",
"227 543 CURVE SMOOTH",
"254 543 OFFCURVE",
"291 517 OFFCURVE",
"291 456 CURVE SMOOTH",
"291 399 OFFCURVE",
"286 346 OFFCURVE",
"283 294 CURVE SMOOTH",
"279 229 OFFCURVE",
"275 167 OFFCURVE",
"275 104 CURVE",
"369 104 LINE",
"369 225 OFFCURVE",
"369 344 OFFCURVE",
"369 480 CURVE SMOOTH",
"369 573 OFFCURVE",
"317 638 OFFCURVE",
"242 638 CURVE SMOOTH",
"211 638 OFFCURVE",
"168 633 OFFCURVE",
"132 608 CURVE SMOOTH",
"82 573 OFFCURVE",
"67 524 OFFCURVE",
"92 456 CURVE SMOOTH",
"145 313 OFFCURVE",
"303 292 OFFCURVE",
"592 290 CURVE"
);
}
);
width = 672;
}
);
unicode = 026C;
},
{
glyphname = lezh;
lastChange = "2019-08-11 02:27:54 +0000";
layers = (
{
components = (
{
name = l;
},
{
name = ezh;
transform = "{1, 0, 0, 1, 93, -76}";
}
);
layerId = "BA196CD0-EE58-4274-B8DF-4393D3617A29";
paths = (
{
closed = 1;
nodes = (
"289 111 LINE",
"305 0 LINE",
"170 0 LINE",
"170 111 LINE"
);
}
);
width = 779;
}
);
unicode = 026E;
},
{
glyphname = lhookretroflex;
lastChange = "2019-08-11 02:27:54 +0000";
layers = (
{
anchors = (
{
name = bottom;
position = "{139, 0}";
},
{
name = center;
position = "{212, 400}";
},
{
name = dot;
position = "{243, 406}";
},
{
name = top;
position = "{165, 685}";
},
{
name = topright;
position = "{281, 641}";
}
);
layerId = "BA196CD0-EE58-4274-B8DF-4393D3617A29";
paths = (
{
closed = 1;
nodes = (
"464 -258 OFFCURVE",
"372 -245 OFFCURVE",
"139 -245 CURVE SMOOTH",
"73 -245 OFFCURVE",
"79 -122 OFFCURVE",
"82 -55 CURVE SMOOTH",
"96 226 OFFCURVE",
"121 608 OFFCURVE",
"139 784 CURVE",
"224 784 LINE",
"207 637 OFFCURVE",
"211 150 OFFCURVE",
"210 -55 CURVE SMOOTH",
"209 -163 OFFCURVE",
"362 -168 OFFCURVE",
"362 0 CURVE",
"475 20 LINE"
);
}
);
width = 555;
}
);
unicode = 026D;
},
{
glyphname = lsdigraph;
lastChange = "2019-08-11 02:27:54 +0000";
layers = (
{
components = (
{
name = l;
},
{
name = s;
transform = "{1, 0, 0, 1, 229, 9}";
}
);
layerId = "BA196CD0-EE58-4274-B8DF-4393D3617A29";
paths = (
{
closed = 1;
nodes = (
"128 0 LINE",
"575 0 LINE",
"575 112 LINE",
"128 112 LINE"
);
}
);
width = 858;
}
);
unicode = 02AA;
},
{
glyphname = lzdigraph;
lastChange = "2019-08-11 02:27:54 +0000";
layers = (
{
components = (
{
name = l;
},
{
name = z;
transform = "{1, 0, 0, 1, 187, -1}";
}
);
layerId = "BA196CD0-EE58-4274-B8DF-4393D3617A29";
paths = (
{
closed = 1;
nodes = (
"282 111 LINE",
"262 0 LINE",
"227 0 LINE",
"215 111 LINE"
);
},
{
closed = 1;
nodes = (
"139 482 LINE",
"370 482 LINE",
"370 549 LINE",
"139 549 LINE"
);
}
);
width = 858;
}
);
unicode = 02AB;
},
{
color = 7;
glyphname = m;
lastChange = "2019-08-15 16:03:02 +0000";
layers = (
{
anchors = (
{
name = bottom;
position = "{512, 0}";
},
{
name = center;
position = "{544, 279}";
},
{
name = eng;
position = "{882, 11}";
},
{
name = top;
position = "{574, 560}";
}
);
layerId = "BA196CD0-EE58-4274-B8DF-4393D3617A29";
paths = (
{
closed = 1;
nodes = (
"547 519 OFFCURVE",
"481 560 OFFCURVE",
"401 560 CURVE SMOOTH",
"322 560 OFFCURVE",
"266 529 OFFCURVE",
"225 462 CURVE",
"235 547 LINE",
"145 547 LINE",
"80 0 LINE",
"205 0 LINE",
"231 353 LINE",
"274 491 OFFCURVE",
"298 501 OFFCURVE",
"390 501 CURVE SMOOTH",
"467 501 OFFCURVE",
"504 416 OFFCURVE",
"504 347 CURVE",
"433 0 LINE",
"557 0 LINE",
"599 309 LINE SMOOTH",
"615 425 OFFCURVE",
"651 497 OFFCURVE",
"745 497 CURVE SMOOTH",
"821 497 OFFCURVE",
"843 447 OFFCURVE",
"843 342 CURVE",
"809 0 LINE",
"944 0 LINE",
"933 330 LINE SMOOTH",
"930 421 OFFCURVE",
"869 560 OFFCURVE",
"755 560 CURVE SMOOTH",
"671 560 OFFCURVE",
"619 522 OFFCURVE",
"574 442 CURVE"
);
}
);
width = 1024;
}
);
unicode = 006D;
},
{
glyphname = mlonglegturned;
lastChange = "2019-08-11 02:27:54 +0000";
layers = (
{
components = (
{
name = mturned;
transform = "{1, 0, 0, 1, 10, 0}";
}
);
layerId = "BA196CD0-EE58-4274-B8DF-4393D3617A29";
paths = (
{
closed = 1;
nodes = (
"784 -200 LINE",
"893 -200 LINE",
"948 496 LINE",
"824 496 LINE"
);
}
);
width = 1028;
}
);
unicode = 0270;
},
{
color = 7;
glyphname = n;
lastChange = "2019-08-16 19:26:44 +0000";
layers = (
{
anchors = (
{
name = bottom;
position = "{321, 0}";
},
{
name = center;
position = "{338, 269}";
},
{
name = eng;
position = "{525, 19}";
},
{
name = top;
position = "{321, 547}";
},
{
name = topright;
position = "{661, 726}";
}
);
layerId = "BA196CD0-EE58-4274-B8DF-4393D3617A29";
paths = (
{
closed = 1;
nodes = (
"555 497 OFFCURVE",
"489 555 OFFCURVE",
"364 555 CURVE SMOOTH",
"288 555 OFFCURVE",
"246 524 OFFCURVE",
"203 495 CURVE",
"186 556 LINE",
"120 556 LINE",
"80 0 LINE",
"218 0 LINE",
"194 314 LINE SMOOTH",
"186 419 OFFCURVE",
"244 482 OFFCURVE",
"354 482 CURVE SMOOTH",
"434 482 OFFCURVE",
"490 439 OFFCURVE",
"481 339 CURVE SMOOTH",
"450 0 LINE",
"589 0 LINE",
"567 323 LINE SMOOTH"
);
}
);
width = 669;
}
);
unicode = 006E;
},
{
glyphname = nhookleft;
lastChange = "2019-08-11 02:27:54 +0000";
layers = (
{
components = (
{
name = n;
transform = "{1, 0, 0, 1, 82, 0}";
}
);
layerId = "BA196CD0-EE58-4274-B8DF-4393D3617A29";
paths = (
{
closed = 1;
nodes = (
"181 -198 OFFCURVE",
"208 -198 OFFCURVE",
"247 -198 CURVE SMOOTH",
"294 -198 OFFCURVE",
"294 -145 OFFCURVE",
"294 0 CURVE",
"157 0 LINE",
"157 -79 OFFCURVE",
"156 -90 OFFCURVE",
"80 -90 CURVE",
"80 -198 LINE"
);
}
);
width = 751;
}
);
unicode = 0272;
},
{
glyphname = nhookretroflex;
lastChange = "2019-08-11 02:27:54 +0000";
layers = (
{
anchors = (
{
name = _bottom_hook;
position = "{967.809, 379.718}";
}
);
components = (
{
name = n;
}
);
layerId = "BA196CD0-EE58-4274-B8DF-4393D3617A29";
paths = (
{
closed = 1;
nodes = (
"661 -87 LINE",
"585 -87 OFFCURVE",
"584 -76 OFFCURVE",
"584 3 CURVE",
"447 3 LINE",
"447 -142 OFFCURVE",
"447 -195 OFFCURVE",
"494 -195 CURVE SMOOTH",
"533 -195 OFFCURVE",
"560 -195 OFFCURVE",
"661 -195 CURVE"
);
}
);
width = 741;
}
);
unicode = 0273;
},
{
color = 7;
glyphname = o;
lastChange = "2019-08-16 00:27:14 +0000";
layers = (
{
anchors = (
{
name = _;
position = "{331, 555}";
},
{
name = bottom;
position = "{331, 0}";
},
{
name = center;
position = "{331, 250}";
},
{
name = dotbelow;
position = "{337, -35}";
},
{
name = horn;
position = "{549, 435}";
},
{
name = ogonek;
position = "{592, 10}";
},
{
name = top;
position = "{331, 599}";
},
{
name = topright;
position = "{637, 500}";
}
);
layerId = "BA196CD0-EE58-4274-B8DF-4393D3617A29";
paths = (
{
closed = 1;
nodes = (
"427 483 OFFCURVE",
"487 403 OFFCURVE",
"487 289 CURVE SMOOTH",
"487 163 OFFCURVE",
"466 141 OFFCURVE",
"331 141 CURVE SMOOTH",
"216 141 OFFCURVE",
"175 161 OFFCURVE",
"175 289 CURVE SMOOTH",
"175 405 OFFCURVE",
"235 483 OFFCURVE",
"331 483 CURVE SMOOTH"
);
},
{
closed = 1;
nodes = (
"174 549 OFFCURVE",
"80 442 OFFCURVE",
"80 273 CURVE SMOOTH",
"80 94 OFFCURVE",
"174 -14 OFFCURVE",
"331 -14 CURVE SMOOTH",
"487 -14 OFFCURVE",
"582 94 OFFCURVE",
"582 273 CURVE SMOOTH",
"582 442 OFFCURVE",
"487 549 OFFCURVE",
"331 549 CURVE SMOOTH"
);
}
);
width = 662;
}
);
leftKerningGroup = Round;
rightKerningGroup = RoundRight;
unicode = 006F;
},
{
color = 7;
glyphname = p;
lastChange = "2019-08-11 02:27:54 +0000";
layers = (
{
anchors = (
{
name = bottom;
position = "{366, 0}";
},
{
name = center;
position = "{162, -97}";
},
{
name = top;
position = "{366, 500}";
},
{
name = top_hook;
position = "{188, 202}";
}
);
hints = (
{
place = "{141, 115}";
type = Stem;
},
{
horizontal = 1;
place = "{497, 63}";
type = Stem;
},
{
horizontal = 1;
place = "{-3, 140}";
type = Stem;
},
{
place = "{562, 63}";
type = Stem;
}
);
layerId = "BA196CD0-EE58-4274-B8DF-4393D3617A29";
paths = (
{
closed = 1;
nodes = (
"289 17 OFFCURVE",
"347 -14 OFFCURVE",
"427 -14 CURVE SMOOTH",
"560 -14 OFFCURVE",
"651 101 OFFCURVE",
"651 273 CURVE SMOOTH",
"651 438 OFFCURVE",
"560 553 OFFCURVE",
"427 553 CURVE SMOOTH",
"347 553 OFFCURVE",
"289 522 OFFCURVE",
"252 457 CURVE",
"234 532 LINE",
"144 532 LINE",
"160 237 LINE",
"80 -212 LINE",
"209 -204 LINE",
"252 82 LINE"
);
},
{
closed = 1;
nodes = (
"593 156 OFFCURVE",
"540 134 OFFCURVE",
"445 134 CURVE SMOOTH",
"350 134 OFFCURVE",
"288 156 OFFCURVE",
"288 289 CURVE SMOOTH",
"288 414 OFFCURVE",
"345 493 OFFCURVE",
"440 493 CURVE SMOOTH",
"536 493 OFFCURVE",
"593 414 OFFCURVE",
"593 289 CURVE SMOOTH"
);
}
);
width = 731;
}
);
rightKerningGroup = RoundRight;
unicode = 0070;
},
{
glyphname = thorn;
lastChange = "2019-08-11 02:27:54 +0000";
layers = (
{
layerId = "BA196CD0-EE58-4274-B8DF-4393D3617A29";
paths = (
{
closed = 1;
nodes = (
"168 800 LINE",
"184 -180 LINE",
"96 -180 LINE",
"80 800 LINE"
);
},
{
closed = 1;
nodes = (
"85 188 OFFCURVE",
"92 498 OFFCURVE",
"156 636 CURVE",
"300 636 OFFCURVE",
"483 535 OFFCURVE",
"480 371 CURVE SMOOTH",
"476 151 OFFCURVE",
"296 50 OFFCURVE",
"151 50 CURVE"
);
},
{
closed = 1;
nodes = (
"255 137 OFFCURVE",
"406 235 OFFCURVE",
"409 375 CURVE SMOOTH",
"411 460 OFFCURVE",
"255 559 OFFCURVE",
"203 559 CURVE SMOOTH",
"150 559 OFFCURVE",
"109 460 OFFCURVE",
"107 375 CURVE SMOOTH",
"104 235 OFFCURVE",
"150 137 OFFCURVE",
"203 137 CURVE SMOOTH"
);
}
);
width = 560;
}
);
unicode = 00FE;
},
{
color = 7;
glyphname = q;
lastChange = "2019-08-15 15:52:42 +0000";
layers = (
{
associatedMasterId = "BA196CD0-EE58-4274-B8DF-4393D3617A29";
layerId = "550EFC85-22CC-4D43-B167-1DAEAAA2FB65";
name = "Regular May 31 12, 16:28";
paths = (
{
closed = 1;
nodes = (
"157 153 OFFCURVE",
"212 136 OFFCURVE",
"308 136 CURVE SMOOTH",
"403 136 OFFCURVE",
"463 153 OFFCURVE",
"463 286 CURVE SMOOTH",
"463 418 OFFCURVE",
"405 498 OFFCURVE",
"310 498 CURVE SMOOTH",
"215 498 OFFCURVE",
"157 418 OFFCURVE",
"157 286 CURVE SMOOTH"
);
},
{
closed = 1;
nodes = (
"497 82 LINE",
"459 17 OFFCURVE",
"402 -14 OFFCURVE",
"321 -14 CURVE SMOOTH",
"189 -14 OFFCURVE",
"98 101 OFFCURVE",
"98 273 CURVE SMOOTH",
"98 445 OFFCURVE",
"189 560 OFFCURVE",
"321 560 CURVE SMOOTH",
"402 560 OFFCURVE",
"459 529 OFFCURVE",
"497 464 CURVE",
"511 547 LINE",
"598 547 LINE",
"561 -118 LINE SMOOTH",
"557 -208 LINE",
"474 -208 LINE"
);
}
);
width = 718;
},
{
anchors = (
{
name = bottom;
position = "{385, 0}";
},
{
name = bottom_hook;
position = "{555, -127}";
},
{
name = top;
position = "{385, 500}";
},
{
name = top_hook;
position = "{530, 218}";
}
);
layerId = "BA196CD0-EE58-4274-B8DF-4393D3617A29";
paths = (
{
closed = 1;
nodes = (
"140 418 OFFCURVE",
"194 492 OFFCURVE",
"290 492 CURVE SMOOTH",
"385 492 OFFCURVE",
"446 418 OFFCURVE",
"446 286 CURVE SMOOTH",
"446 153 OFFCURVE",
"385 137 OFFCURVE",
"290 137 CURVE",
"195 137 OFFCURVE",
"140 153 OFFCURVE",
"140 286 CURVE SMOOTH"
);
},
{
closed = 1;
nodes = (
"684 -140 LINE",
"690 -20 LINE",
"604 -50 LINE",
"534 -70 LINE",
"546 186 LINE",
"581 547 LINE",
"494 547 LINE",
"494 427 LINE",
"440 512 OFFCURVE",
"397 554 OFFCURVE",
"301 554 CURVE SMOOTH",
"169 554 OFFCURVE",
"80 445 OFFCURVE",
"80 273 CURVE SMOOTH",
"80 101 OFFCURVE",
"172 -14 OFFCURVE",
"304 -14 CURVE SMOOTH",
"384 -14 OFFCURVE",
"441 17 OFFCURVE",
"479 82 CURVE",
"452 -208 LINE"
);
}
);
width = 770;
}
);
leftKerningGroup = Round;
unicode = 0071;
},
{
glyphname = qhooktail;
lastChange = "2019-08-15 15:57:56 +0000";
layers = (
{
components = (
{
name = q;
},
{
name = od_bottom_wide_hook;
transform = "{0.84741, 0.53094, -0.53094, 0.84741, 589, -516}";
}
);
layerId = "BA196CD0-EE58-4274-B8DF-4393D3617A29";
paths = (
{
closed = 1;
nodes = (
"534 -70 LINE",
"604 -50 LINE",
"690 -20 LINE",
"684 -140 LINE",
"452 -208 LINE",
"468 -39 LINE",
"534 -20 LINE"
);
}
);
width = 770;
}
);
unicode = 024B;
},
{
color = 7;
glyphname = r;
lastChange = "2019-08-11 02:27:54 +0000";
layers = (
{
anchors = (
{
name = bottom;
position = "{172, 0}";
},
{
name = bottom_wide;
position = "{203, 0}";
},
{
name = center;
position = "{165, 274}";
},
{
name = top;
position = "{221, 547}";
}
);
layerId = "BA196CD0-EE58-4274-B8DF-4393D3617A29";
paths = (
{
closed = 1;
nodes = (
"302 543 OFFCURVE",
"274 528 OFFCURVE",
"219 486 CURVE",
"219 542 LINE",
"126 545 LINE",
"126 317 OFFCURVE",
"121 196 OFFCURVE",
"80 0 CURVE",
"251 0 LINE",
"222 164 OFFCURVE",
"219 256 OFFCURVE",
"219 314 CURVE SMOOTH",
"219 411 OFFCURVE",
"271 443 OFFCURVE",
"432 459 CURVE",
"418 549 LINE"
);
}
);
width = 512;
}
);
unicode = 0072;
},
{
glyphname = ramshorn;
lastChange = "2019-08-11 02:27:54 +0000";
layers = (
{
anchors = (
{
name = _curl;
position = "{209, 459}";
},
{
name = bottom;
position = "{374, 0}";
},
{
name = top;
position = "{374, 540}";
}
);
layerId = "BA196CD0-EE58-4274-B8DF-4393D3617A29";
paths = (
{
closed = 1;
nodes = (
"616 397 OFFCURVE",
"611 515 OFFCURVE",
"489 513 CURVE SMOOTH",
"362 511 OFFCURVE",
"343 427 OFFCURVE",
"288 295 CURVE SMOOTH",
"239 178 OFFCURVE",
"194 96 OFFCURVE",
"224 51 CURVE SMOOTH",
"258 0 OFFCURVE",
"282 -8 OFFCURVE",
"342 -8 CURVE SMOOTH",
"385 -8 OFFCURVE",
"437 1 OFFCURVE",
"472 51 CURVE SMOOTH",
"507 102 OFFCURVE",
"468 172 OFFCURVE",
"421 268 CURVE SMOOTH",
"361 391 OFFCURVE",
"310 511 OFFCURVE",
"223 511 CURVE SMOOTH",
"80 511 OFFCURVE",
"80 422 OFFCURVE",
"80 339 CURVE",
"142 339 LINE",
"142 422 OFFCURVE",
"150 448 OFFCURVE",
"226 448 CURVE SMOOTH",
"286 448 OFFCURVE",
"315 345 OFFCURVE",
"351 224 CURVE SMOOTH",
"383 117 OFFCURVE",
"406 57 OFFCURVE",
"342 57 CURVE SMOOTH",
"290 57 OFFCURVE",
"306 115 OFFCURVE",
"351 224 CURVE SMOOTH",
"405 354 OFFCURVE",
"430 453 OFFCURVE",
"489 453 CURVE SMOOTH",
"532 453 OFFCURVE",
"547 397 OFFCURVE",
"551 339 CURVE",
"616 339 LINE"
);
}
);
width = 696;
}
);
unicode = 0264;
},
{
glyphname = rfishhook;
lastChange = "2019-08-11 02:27:54 +0000";
layers = (
{
anchors = (
{
name = _top_hook;
position = "{121, 66}";
},
{
name = center;
position = "{125, 299}";
}
);
layerId = "BA196CD0-EE58-4274-B8DF-4393D3617A29";
paths = (
{
closed = 1;
nodes = (
"80 4 LINE",
"165 4 LINE",
"165 399 LINE",
"80 399 LINE"
);
},
{
closed = 1;
nodes = (
"110 567 OFFCURVE",
"86 561 OFFCURVE",
"82 449 CURVE SMOOTH",
"80 399 OFFCURVE",
"80 415 OFFCURVE",
"80 345 CURVE",
"165 345 LINE",
"165 376 OFFCURVE",
"165 401 OFFCURVE",
"165 430 CURVE SMOOTH",
"165 478 OFFCURVE",
"168 481 OFFCURVE",
"236 481 CURVE",
"236 566 LINE"
);
}
);
width = 316;
}
);
unicode = 027E;
},
{
glyphname = rlonglegturned;
lastChange = "2019-08-11 02:27:54 +0000";
layers = (
{
components = (
{
name = rturned;
transform = "{1, 0, 0, 1, 10, 0}";
}
);
layerId = "BA196CD0-EE58-4274-B8DF-4393D3617A29";
paths = (
{
closed = 1;
nodes = (
"266 500 LINE",
"434 500 LINE",
"459 800 LINE",
"234 800 LINE"
);
}
);
width = 539;
}
);
unicode = 027A;
},
{
color = 7;
glyphname = s;
lastChange = "2019-08-15 16:01:52 +0000";
layers = (
{
anchors = (
{
name = _right_el;
position = "{141, 529}";
},
{
name = bottom;
position = "{319, 12}";
},
{
name = bottom_hook;
position = "{130, -98}";
},
{
name = center;
position = "{314, 269}";
},
{
name = top;
position = "{328, 547}";
}
);
layerId = "BA196CD0-EE58-4274-B8DF-4393D3617A29";
paths = (
{
closed = 1;
nodes = (
"434 558 OFFCURVE",
"399 564 OFFCURVE",
"332 564 CURVE SMOOTH",
"159 564 OFFCURVE",
"124 479 OFFCURVE",
"124 376 CURVE SMOOTH",
"124 284 OFFCURVE",
"245 251 OFFCURVE",
"291 235 CURVE SMOOTH",
"363 210 OFFCURVE",
"432 229 OFFCURVE",
"432 177 CURVE SMOOTH",
"432 135 OFFCURVE",
"386 127 OFFCURVE",
"321 127 CURVE SMOOTH",
"260 127 OFFCURVE",
"236 135 OFFCURVE",
"178 157 CURVE",
"80 49 LINE",
"166 8 OFFCURVE",
"251 -14 OFFCURVE",
"319 -14 CURVE SMOOTH",
"471 -14 OFFCURVE",
"549 -11 OFFCURVE",
"549 157 CURVE SMOOTH",
"549 235 OFFCURVE",
"463 270 OFFCURVE",
"353 292 CURVE SMOOTH",
"256 311 OFFCURVE",
"187 331 OFFCURVE",
"181 400 CURVE SMOOTH",
"177 447 OFFCURVE",
"214 497 OFFCURVE",
"343 497 CURVE SMOOTH",
"401 497 OFFCURVE",
"401 497 OFFCURVE",
"463 489 CURVE",
"484 549 LINE"
);
}
);
width = 629;
}
);
unicode = 0073;
},
{
glyphname = saltillo;
lastChange = "2019-08-15 15:58:40 +0000";
layers = (
{
layerId = "BA196CD0-EE58-4274-B8DF-4393D3617A29";
paths = (
{
closed = 1;
nodes = (
"275 336 LINE",
"322 336 LINE",
"360 758 LINE",
"239 758 LINE"
);
}
);
width = 600;
}
);
unicode = A78C;
},
{
glyphname = germandbls;
lastChange = "2019-08-11 02:27:54 +0000";
layers = (
{
layerId = "BA196CD0-EE58-4274-B8DF-4393D3617A29";
paths = (
{
closed = 1;
nodes = (
"109 555 LINE",
"109 686 OFFCURVE",
"190 760 OFFCURVE",
"332 760 CURVE SMOOTH",
"468 760 OFFCURVE",
"542 683 OFFCURVE",
"542 537 CURVE",
"444 532 OFFCURVE",
"387 493 OFFCURVE",
"387 430 CURVE SMOOTH",
"387 399 OFFCURVE",
"404 375 OFFCURVE",
"447 347 CURVE SMOOTH",
"475 329 LINE SMOOTH",
"582 260 OFFCURVE",
"602 224 OFFCURVE",
"602 159 CURVE SMOOTH",
"602 47 OFFCURVE",
"527 -14 OFFCURVE",
"390 -14 CURVE SMOOTH",
"348 -14 OFFCURVE",
"304 -6 OFFCURVE",
"256 10 CURVE",
"256 129 LINE",
"309 109 OFFCURVE",
"353 100 OFFCURVE",
"395 100 CURVE SMOOTH",
"471 100 OFFCURVE",
"511 122 OFFCURVE",
"511 162 CURVE SMOOTH",
"511 176 OFFCURVE",
"506 189 OFFCURVE",
"497 203 CURVE SMOOTH",
"487 217 OFFCURVE",
"465 234 OFFCURVE",
"433 254 CURVE",
"393 281 LINE",
"363 319 OFFCURVE",
"328 366 OFFCURVE",
"328 420 CURVE SMOOTH",
"328 502 OFFCURVE",
"357 561 OFFCURVE",
"488 580 CURVE",
"437 699 OFFCURVE",
"404 705 OFFCURVE",
"330 705 CURVE SMOOTH",
"246 705 OFFCURVE",
"204 665 OFFCURVE",
"191 553 CURVE",
"215 0 LINE",
"80 0 LINE"
);
}
);
width = 682;
}
);
unicode = 00DF;
},
{
color = 7;
glyphname = t;
lastChange = "2019-08-15 01:36:18 +0000";
layers = (
{
anchors = (
{
name = bottom;
position = "{333, 3}";
},
{
name = caron;
position = "{376, 616}";
},
{
name = center;
position = "{242, 341}";
},
{
name = circumflexbelowcomb;
position = "{331, 0}";
},
{
name = curl;
position = "{447, 584}";
},
{
name = top;
position = "{266, 708}";
},
{
name = top_hook;
position = "{252, 639}";
},
{
name = topright;
position = "{541, 500}";
}
);
layerId = "BA196CD0-EE58-4274-B8DF-4393D3617A29";
paths = (
{
closed = 1;
nodes = (
"80 548 LINE",
"486 548 LINE",
"468 615 LINE",
"109 615 LINE"
);
},
{
closed = 1;
nodes = (
"434 151 OFFCURVE",
"333 151 OFFCURVE",
"282 151 CURVE",
"316 737 LINE",
"222 737 LINE",
"197 499 OFFCURVE",
"162 74 OFFCURVE",
"162 50 CURVE SMOOTH",
"162 43 OFFCURVE",
"166 0 OFFCURVE",
"200 0 CURVE SMOOTH",
"247 0 OFFCURVE",
"423 0 OFFCURVE",
"460 2 CURVE",
"452 150 LINE"
);
}
);
width = 566;
}
);
unicode = 0074;
},
{
glyphname = tesh;
lastChange = "2019-08-11 02:27:54 +0000";
layers = (
{
components = (
{
name = t;
transform = "{1, 0, 0.03492, 1, -19, 0}";
},
{
name = esh;
transform = "{0.97435, 0.22503, -0.22503, 0.97435, 233, -67}";
}
);
layerId = "BA196CD0-EE58-4274-B8DF-4393D3617A29";
paths = (
{
closed = 1;
nodes = (
"396 549 LINE",
"546 549 LINE",
"546 615 LINE",
"396 615 LINE"
);
}
);
width = 921;
}
);
unicode = 02A7;
},
{
glyphname = tretroflexhook;
lastChange = "2019-08-11 02:27:54 +0000";
layers = (
{
anchors = (
{
name = bottom;
position = "{338, 0}";
},
{
name = caron;
position = "{376, 616}";
},
{
name = center;
position = "{242, 341}";
},
{
name = circumflexbelowcomb;
position = "{347, -25}";
},
{
name = curl;
position = "{447, 584}";
},
{
name = top;
position = "{254, 661}";
},
{
name = top_hook;
position = "{252, 639}";
},
{
name = topright;
position = "{541, 500}";
}
);
layerId = "BA196CD0-EE58-4274-B8DF-4393D3617A29";
paths = (
{
closed = 1;
nodes = (
"80 548 LINE",
"486 548 LINE",
"468 615 LINE",
"109 615 LINE"
);
},
{
closed = 1;
nodes = (
"404 11 OFFCURVE",
"333 11 OFFCURVE",
"282 11 CURVE",
"316 737 LINE",
"222 737 LINE",
"197 499 OFFCURVE",
"162 -66 OFFCURVE",
"162 -90 CURVE SMOOTH",
"162 -97 OFFCURVE",
"166 -140 OFFCURVE",
"200 -140 CURVE SMOOTH",
"247 -140 OFFCURVE",
"393 -140 OFFCURVE",
"430 -138 CURVE",
"422 10 LINE"
);
}
);
width = 566;
}
);
unicode = 0288;
},
{
glyphname = ts;
lastChange = "2019-08-11 02:27:54 +0000";
layers = (
{
components = (
{
alignment = -1;
name = s;
transform = "{1, 0, 0, 1.05709, 357, 15}";
},
{
alignment = -1;
name = t;
transform = "{0.93149, 0, 0, 1, 5, 0}";
}
);
layerId = "BA196CD0-EE58-4274-B8DF-4393D3617A29";
paths = (
{
closed = 1;
nodes = (
"335 549 LINE",
"693 549 LINE",
"693 612 LINE",
"335 615 LINE"
);
}
);
width = 986;
}
);
unicode = 02A6;
},
{
color = 7;
glyphname = u;
lastChange = "2019-08-16 00:28:57 +0000";
layers = (
{
anchors = (
{
name = bottom;
position = "{327, 0}";
},
{
name = horn;
position = "{571, 456}";
},
{
name = ogonek;
position = "{512, 5}";
},
{
name = top;
position = "{314, 630}";
},
{
name = topright;
position = "{629, 500}";
}
);
layerId = "BA196CD0-EE58-4274-B8DF-4393D3617A29";
paths = (
{
closed = 1;
nodes = (
"113 27 OFFCURVE",
"170 -16 OFFCURVE",
"293 -16 CURVE SMOOTH",
"372 -16 OFFCURVE",
"434 -7 OFFCURVE",
"469 84 CURVE",
"465 0 LINE",
"574 0 LINE",
"554 547 LINE",
"465 547 LINE",
"455 315 LINE",
"447 225 OFFCURVE",
"411 140 OFFCURVE",
"314 140 CURVE SMOOTH",
"233 140 OFFCURVE",
"189 140 OFFCURVE",
"176 297 CURVE SMOOTH",
"155 547 LINE",
"80 547 LINE",
"101 216 LINE SMOOTH"
);
}
);
width = 654;
}
);
unicode = 0075;
},
{
color = 7;
glyphname = v;
lastChange = "2019-08-11 02:27:54 +0000";
layers = (
{
anchors = (
{
name = bottom;
position = "{377, 0}";
},
{
name = top;
position = "{377, 500}";
}
);
layerId = "BA196CD0-EE58-4274-B8DF-4393D3617A29";
paths = (
{
closed = 1;
nodes = (
"262 144 LINE",
"80 547 LINE",
"175 547 LINE",
"387 146 LINE",
"579 547 LINE",
"674 547 LINE",
"494 144 LINE",
"474 0 LINE",
"290 0 LINE"
);
}
);
width = 754;
}
);
unicode = 0076;
},
{
glyphname = vhook;
lastChange = "2019-08-11 02:27:54 +0000";
layers = (
{
anchors = (
{
name = _vhook;
position = "{410, 456}";
},
{
name = bottom;
position = "{356, 0}";
},
{
name = horn;
position = "{520, 446}";
},
{
name = ogonek;
position = "{349, -48}";
},
{
name = top;
position = "{343, 506}";
},
{
name = topright;
position = "{608, 500}";
}
);
layerId = "BA196CD0-EE58-4274-B8DF-4393D3617A29";
paths = (
{
closed = 1;
nodes = (
"80 27 OFFCURVE",
"170 -16 OFFCURVE",
"293 -16 CURVE SMOOTH",
"499 -16 OFFCURVE",
"480 161 OFFCURVE",
"480 258 CURVE SMOOTH",
"480 469 OFFCURVE",
"498 570 OFFCURVE",
"309 570 CURVE",
"309 495 LINE",
"402 495 OFFCURVE",
"391 410 OFFCURVE",
"391 354 CURVE SMOOTH",
"391 197 OFFCURVE",
"390 140 OFFCURVE",
"293 140 CURVE SMOOTH",
"212 140 OFFCURVE",
"165 140 OFFCURVE",
"165 297 CURVE SMOOTH",
"165 547 LINE",
"80 547 LINE",
"80 216 LINE SMOOTH"
);
}
);
width = 560;
}
);
unicode = 028B;
},
{
color = 7;
glyphname = w;
lastChange = "2019-08-15 16:04:15 +0000";
layers = (
{
anchors = (
{
name = bottom;
position = "{447, 0}";
},
{
name = top;
position = "{447, 627}";
},
{
name = top_hook;
position = "{879, 311}";
}
);
layerId = "BA196CD0-EE58-4274-B8DF-4393D3617A29";
paths = (
{
closed = 1;
nodes = (
"344 0 LINE",
"447 189 LINE",
"546 0 LINE",
"671 0 LINE",
"814 547 LINE",
"724 547 LINE",
"612 198 LINE",
"478 423 LINE",
"416 423 LINE",
"282 198 LINE",
"170 547 LINE",
"80 547 LINE",
"223 0 LINE"
);
}
);
width = 894;
}
);
unicode = 0077;
},
{
color = 7;
glyphname = x;
lastChange = "2019-08-11 02:27:54 +0000";
layers = (
{
anchors = (
{
name = bottom;
position = "{395, 0}";
},
{
name = top;
position = "{395, 500}";
}
);
layerId = "BA196CD0-EE58-4274-B8DF-4393D3617A29";
paths = (
{
closed = 1;
nodes = (
"514 -7 LINE",
"654 -10 LINE",
"176 528 LINE",
"80 528 LINE"
);
},
{
closed = 1;
nodes = (
"109 0 LINE",
"248 0 LINE",
"709 528 LINE",
"618 528 LINE"
);
}
);
width = 789;
}
);
leftKerningGroup = Round;
unicode = 0078;
},
{
color = 7;
glyphname = y;
lastChange = "2019-08-15 16:01:05 +0000";
layers = (
{
anchors = (
{
name = bottom;
position = "{346, 0}";
},
{
name = top;
position = "{357, 630}";
},
{
name = top_hook;
position = "{673, 319}";
}
);
layerId = "BA196CD0-EE58-4274-B8DF-4393D3617A29";
paths = (
{
closed = 1;
nodes = (
"517 547 LINE",
"399 209 LINE",
"175 547 LINE",
"80 547 LINE",
"357 108 LINE",
"319 -39 OFFCURVE",
"264 -99 OFFCURVE",
"173 -99 CURVE SMOOTH",
"110 -99 LINE",
"110 -218 LINE",
"192 -218 LINE SMOOTH",
"272 -218 OFFCURVE",
"344 -206 OFFCURVE",
"408 -63 CURVE",
"612 547 LINE"
);
}
);
width = 692;
}
);
unicode = 0079;
},
{
color = 7;
glyphname = z;
lastChange = "2019-08-11 02:27:54 +0000";
layers = (
{
anchors = (
{
name = _right_el;
position = "{183, 539}";
},
{
name = bottom;
position = "{336, 0}";
},
{
name = bottomhook;
position = "{472, 27}";
},
{
name = center;
position = "{336, 288}";
},
{
name = top;
position = "{349, 547}";
}
);
layerId = "BA196CD0-EE58-4274-B8DF-4393D3617A29";
paths = (
{
closed = 1;
nodes = (
"482 482 LINE",
"104 131 LINE",
"80 0 LINE",
"581 0 LINE",
"524 121 LINE",
"239 121 LINE",
"591 482 LINE",
"578 549 LINE",
"169 549 LINE",
"169 482 LINE"
);
}
);
width = 671;
}
);
unicode = 007A;
},
{
glyphname = zcurl;
lastChange = "2019-08-11 02:27:54 +0000";
layers = (
{
anchors = (
{
name = _right_el;
position = "{204, 514}";
},
{
name = bottom;
position = "{336, 0}";
},
{
name = center;
position = "{336, 288}";
},
{
name = top;
position = "{349, 547}";
}
);
layerId = "BA196CD0-EE58-4274-B8DF-4393D3617A29";
paths = (
{
closed = 1;
nodes = (
"482 482 LINE",
"104 131 LINE",
"80 0 LINE",
"509 0 LINE SMOOTH",
"641 0 OFFCURVE",
"707 219 OFFCURVE",
"569 255 CURVE SMOOTH",
"433 291 OFFCURVE",
"383 181 OFFCURVE",
"383 -193 CURVE",
"482 -193 LINE",
"482 175 OFFCURVE",
"517 192 OFFCURVE",
"545 169 CURVE SMOOTH",
"557 159 OFFCURVE",
"572 121 OFFCURVE",
"479 121 CURVE SMOOTH",
"239 121 LINE",
"591 482 LINE",
"578 549 LINE",
"169 549 LINE",
"169 482 LINE"
);
}
);
width = 726;
}
);
unicode = 0291;
},
{
glyphname = zretroflexhook;
lastChange = "2019-08-11 02:27:54 +0000";
layers = (
{
components = (
{
name = z;
},
{
name = od_hook;
transform = "{1, 0, 0, 1, 243, -335}";
}
);
layerId = "BA196CD0-EE58-4274-B8DF-4393D3617A29";
paths = (
{
closed = 1;
nodes = (
"524 0 LINE",
"599 0 LINE",
"599 121 LINE",
"485 121 LINE"
);
}
);
width = 679;
}
);
unicode = 0290;
},
{
glyphname = longs_t;
lastChange = "2019-08-16 19:23:47 +0000";
layers = (
{
anchors = (
{
name = bottom;
position = "{242, 0}";
},
{
name = center;
position = "{212, 265}";
},
{
name = top;
position = "{242, 800}";
}
);
components = (
{
name = t;
transform = "{1, 0, 0, 1, 184, 0}";
}
);
layerId = "BA196CD0-EE58-4274-B8DF-4393D3617A29";
paths = (
{
closed = 1;
nodes = (
"212 795 OFFCURVE",
"161 761 OFFCURVE",
"161 547 CURVE",
"80 547 LINE",
"80 458 LINE",
"161 458 LINE",
"146 0 LINE",
"276 0 LINE",
"261 458 LINE",
"249 545 LINE",
"240 584 OFFCURVE",
"225 720 OFFCURVE",
"314 720 CURVE",
"395 720 LINE",
"395 795 LINE",
"315 795 LINE"
);
}
);
width = 750;
}
);
rightMetricsKey = t;
},
{
glyphname = "Be-cy";
lastChange = "2019-08-11 02:27:54 +0000";
layers = (
{
layerId = "BA196CD0-EE58-4274-B8DF-4393D3617A29";
paths = (
{
closed = 1;
nodes = (
"213 142 LINE",
"207 376 LINE",
"337 380 LINE SMOOTH",
"411 380 OFFCURVE",
"451 344 QCURVE SMOOTH",
"491 308 OFFCURVE",
"491 242 QCURVE SMOOTH",
"491 200 OFFCURVE",
"451 172 QCURVE SMOOTH",
"408 141 OFFCURVE",
"337 141 QCURVE SMOOTH"
);
},
{
closed = 1;
nodes = (
"80 729 LINE",
"110 0 LINE",
"327 0 LINE SMOOTH",
"575 0 OFFCURVE",
"575 218 QCURVE SMOOTH",
"575 327 OFFCURVE",
"513 386 QCURVE SMOOTH",
"449 446 OFFCURVE",
"327 446 QCURVE SMOOTH",
"204 447 LINE",
"196 660 LINE",
"541 660 LINE",
"574 729 LINE"
);
}
);
width = 655;
}
);
note = uni0411;
unicode = 0411;
},
{
glyphname = "Ve-cy";
lastChange = "2019-08-11 02:27:54 +0000";
layers = (
{
layerId = "BA196CD0-EE58-4274-B8DF-4393D3617A29";
paths = (
{
closed = 1;
nodes = (
"80 0 LINE",
"80 729 LINE",
"308 729 LINE SMOOTH",
"421 729 OFFCURVE",
"482 682 QCURVE SMOOTH",
"543 635 OFFCURVE",
"543 549 QCURVE SMOOTH",
"543 413 OFFCURVE",
"420 393 QCURVE",
"607 363 OFFCURVE",
"607 204 QCURVE SMOOTH",
"607 107 OFFCURVE",
"536 53 QCURVE SMOOTH",
"466 0 OFFCURVE",
"342 0 QCURVE SMOOTH"
);
},
{
closed = 1;
nodes = (
"179 663 LINE",
"179 428 LINE",
"325 428 LINE SMOOTH",
"468 428 OFFCURVE",
"468 538 QCURVE SMOOTH",
"468 595 OFFCURVE",
"433 628 QCURVE SMOOTH",
"395 663 OFFCURVE",
"325 663 QCURVE SMOOTH"
);
},
{
closed = 1;
nodes = (
"179 348 LINE",
"179 145 LINE",
"337 145 LINE SMOOTH",
"420 145 OFFCURVE",
"455 168 QCURVE SMOOTH",
"493 193 OFFCURVE",
"493 259 QCURVE SMOOTH",
"493 284 OFFCURVE",
"455 316 QCURVE SMOOTH",
"415 348 OFFCURVE",
"337 348 QCURVE SMOOTH"
);
}
);
width = 687;
}
);
note = uni0412;
unicode = 0412;
},
{
glyphname = "Ge-cy";
lastChange = "2019-08-11 02:27:54 +0000";
layers = (
{
layerId = "BA196CD0-EE58-4274-B8DF-4393D3617A29";
paths = (
{
closed = 1;
nodes = (
"565 729 LINE",
"94 729 LINE",
"80 0 LINE",
"232 0 LINE",
"198 648 LINE",
"575 648 LINE"
);
}
);
width = 655;
}
);
note = uni0413;
unicode = 0413;
},
{
glyphname = "Gheupturn-cy";
lastChange = "2019-08-15 20:53:36 +0000";
layers = (
{
components = (
{
name = "Ge-cy";
}
);
layerId = "BA196CD0-EE58-4274-B8DF-4393D3617A29";
paths = (
{
closed = 1;
nodes = (
"489 648 LINE",
"575 648 LINE",
"575 821 LINE",
"489 821 LINE"
);
}
);
width = 655;
}
);
unicode = 0490;
},
{
glyphname = "De-cy";
lastChange = "2019-08-11 02:27:54 +0000";
layers = (
{
layerId = "BA196CD0-EE58-4274-B8DF-4393D3617A29";
paths = (
{
closed = 1;
nodes = (
"660 726 LINE",
"254 725 LINE",
"230 236 LINE",
"196 192 LINE",
"140 114 LINE",
"80 114 LINE",
"130 -95 LINE",
"235 -95 LINE",
"218 4 LINE",
"627 4 LINE",
"602 -95 LINE",
"712 -95 LINE",
"756 114 LINE",
"681 114 LINE",
"660 638 LINE"
);
},
{
closed = 1;
nodes = (
"324 224 LINE",
"342 638 LINE",
"565 638 LINE",
"558 113 LINE",
"275 114 LINE"
);
}
);
width = 836;
}
);
note = uni0414;
unicode = 0414;
},
{
glyphname = "Ie-cy";
lastChange = "2019-08-15 21:56:37 +0000";
layers = (
{
anchors = (
{
name = top;
position = "{319, 768}";
}
);
layerId = "BA196CD0-EE58-4274-B8DF-4393D3617A29";
paths = (
{
closed = 1;
nodes = (
"179 151 LINE",
"179 347 LINE",
"526 347 LINE",
"526 430 LINE",
"179 430 LINE",
"179 646 LINE",
"541 646 LINE",
"541 729 LINE",
"80 729 LINE",
"80 0 LINE",
"550 0 LINE",
"550 151 LINE"
);
}
);
width = 630;
}
);
note = uni0415;
unicode = 0415;
},
{
glyphname = "Io-cy";
lastChange = "2019-08-11 02:27:54 +0000";
layers = (
{
layerId = "BA196CD0-EE58-4274-B8DF-4393D3617A29";
paths = (
{
closed = 1;
nodes = (
"495 833 LINE",
"405 833 LINE",
"410 937 LINE",
"490 937 LINE"
);
},
{
closed = 1;
nodes = (
"232 833 LINE",
"142 833 LINE",
"147 937 LINE",
"227 937 LINE"
);
},
{
closed = 1;
nodes = (
"550 0 LINE",
"80 0 LINE",
"80 729 LINE",
"541 729 LINE",
"541 646 LINE",
"179 646 LINE",
"179 430 LINE",
"526 430 LINE",
"526 347 LINE",
"179 347 LINE",
"179 151 LINE",
"550 151 LINE"
);
}
);
width = 630;
}
);
note = uni0401;
unicode = 0401;
},
{
glyphname = "Ze-cy";
lastChange = "2019-08-15 22:17:12 +0000";
layers = (
{
anchors = (
{
name = top;
position = "{304, 800}";
}
);
layerId = "BA196CD0-EE58-4274-B8DF-4393D3617A29";
paths = (
{
closed = 1;
nodes = (
"543 427 OFFCURVE",
"543 553 QCURVE SMOOTH",
"543 640 OFFCURVE",
"478 691 QCURVE SMOOTH",
"412 742 OFFCURVE",
"300 742 QCURVE",
"213 742 OFFCURVE",
"102 711 QCURVE SMOOTH",
"101 634 LINE",
"202 654 OFFCURVE",
"297 654 QCURVE SMOOTH",
"443 654 OFFCURVE",
"443 540 QCURVE SMOOTH",
"443 442 OFFCURVE",
"295 440 QCURVE",
"171 438 LINE",
"179 362 LINE",
"291 359 LINE SMOOTH",
"370 358 OFFCURVE",
"417 322 QCURVE SMOOTH",
"462 288 OFFCURVE",
"462 236 QCURVE SMOOTH",
"462 194 OFFCURVE",
"419 158 QCURVE SMOOTH",
"370 116 OFFCURVE",
"279 116 QCURVE SMOOTH",
"183 116 OFFCURVE",
"80 176 QCURVE",
"80 22 LINE",
"184 -14 OFFCURVE",
"275 -14 QCURVE SMOOTH",
"560 -14 OFFCURVE",
"560 222 QCURVE SMOOTH",
"560 293 OFFCURVE",
"520 340 QCURVE SMOOTH",
"479 388 OFFCURVE",
"410 393 QCURVE"
);
}
);
width = 640;
}
);
note = uni0417;
unicode = 0417;
},
{
glyphname = "El-cy";
lastChange = "2019-08-11 02:27:54 +0000";
layers = (
{
layerId = "BA196CD0-EE58-4274-B8DF-4393D3617A29";
paths = (
{
closed = 1;
nodes = (
"748 0 LINE",
"464 729 LINE",
"361 729 LINE",
"80 0 LINE",
"243 0 LINE",
"414 604 LINE",
"597 0 LINE"
);
}
);
width = 828;
}
);
note = uni041B;
unicode = 041B;
},
{
glyphname = "El-cy.loclBGR";
lastChange = "2019-08-15 23:02:54 +0000";
layers = (
{
anchors = (
{
name = bottom_hook;
position = "{458, 95}";
}
);
layerId = "BA196CD0-EE58-4274-B8DF-4393D3617A29";
paths = (
{
closed = 1;
nodes = (
"88 633 LINE",
"511 633 LINE",
"511 729 LINE",
"88 729 LINE"
);
},
{
closed = 1;
nodes = (
"92 -18 OFFCURVE",
"165 -26 OFFCURVE",
"172 95 CURVE SMOOTH",
"186 333 OFFCURVE",
"199 392 OFFCURVE",
"212 633 CURVE",
"205 644 OFFCURVE",
"162 649 OFFCURVE",
"150 649 CURVE SMOOTH",
"138 649 OFFCURVE",
"97 643 OFFCURVE",
"89 633 CURVE",
"91 412 OFFCURVE",
"64 175 OFFCURVE",
"55 120 CURVE SMOOTH",
"49 83 OFFCURVE",
"52 69 OFFCURVE",
"-16 69 CURVE",
"-34 -17 LINE"
);
},
{
closed = 1;
nodes = (
"378 -14 LINE",
"511 -14 LINE",
"511 648 LINE",
"401 648 LINE"
);
}
);
width = 600;
}
);
},
{
glyphname = "Em-cy";
lastChange = "2019-08-11 02:27:54 +0000";
layers = (
{
layerId = "BA196CD0-EE58-4274-B8DF-4393D3617A29";
paths = (
{
closed = 1;
nodes = (
"205 0 LINE",
"80 0 LINE",
"95 729 LINE",
"242 729 LINE",
"423 296 LINE",
"615 729 LINE",
"752 729 LINE",
"767 0 LINE",
"641 0 LINE",
"661 640 LINE",
"483 116 LINE",
"364 116 LINE",
"186 640 LINE"
);
}
);
width = 847;
}
);
note = uni041C;
unicode = 041C;
},
{
glyphname = "Pe-cy";
lastChange = "2019-08-11 02:27:54 +0000";
layers = (
{
layerId = "BA196CD0-EE58-4274-B8DF-4393D3617A29";
paths = (
{
closed = 1;
nodes = (
"587 726 LINE",
"84 729 LINE",
"80 0 LINE",
"200 0 LINE",
"188 642 LINE",
"491 642 LINE",
"480 0 LINE",
"600 0 LINE",
"587 642 LINE"
);
}
);
width = 680;
}
);
note = uni041F;
unicode = 041F;
},
{
glyphname = "Er-cy";
lastChange = "2019-08-11 02:27:54 +0000";
layers = (
{
layerId = "BA196CD0-EE58-4274-B8DF-4393D3617A29";
paths = (
{
closed = 1;
nodes = (
"198 0 LINE",
"80 0 LINE",
"110 729 LINE",
"327 729 LINE SMOOTH",
"575 729 OFFCURVE",
"575 511 QCURVE SMOOTH",
"575 402 OFFCURVE",
"513 343 QCURVE SMOOTH",
"449 283 OFFCURVE",
"327 283 QCURVE SMOOTH",
"208 283 LINE"
);
},
{
closed = 1;
nodes = (
"213 687 LINE",
"203 413 LINE",
"337 413 LINE SMOOTH",
"491 413 OFFCURVE",
"491 550 QCURVE SMOOTH",
"491 687 OFFCURVE",
"337 687 QCURVE SMOOTH"
);
}
);
width = 655;
}
);
note = uni0420;
unicode = 0420;
},
{
glyphname = "Es-cy";
lastChange = "2019-08-11 02:27:54 +0000";
layers = (
{
layerId = "BA196CD0-EE58-4274-B8DF-4393D3617A29";
paths = (
{
closed = 1;
nodes = (
"668 569 LINE",
"570 661 OFFCURVE",
"442 661 QCURVE SMOOTH",
"317 661 OFFCURVE",
"251 585 QCURVE SMOOTH",
"184 508 OFFCURVE",
"184 364 QCURVE SMOOTH",
"186 240 OFFCURVE",
"252 185 QCURVE SMOOTH",
"313 135 OFFCURVE",
"442 135 QCURVE SMOOTH",
"569 135 OFFCURVE",
"668 228 QCURVE",
"668 56 LINE",
"565 -14 OFFCURVE",
"436 -14 QCURVE SMOOTH",
"270 -14 OFFCURVE",
"175 87 QCURVE SMOOTH",
"80 188 OFFCURVE",
"80 364 QCURVE SMOOTH",
"80 540 OFFCURVE",
"175 641 QCURVE SMOOTH",
"270 742 OFFCURVE",
"436 742 QCURVE SMOOTH",
"566 742 OFFCURVE",
"668 673 QCURVE"
);
}
);
width = 748;
}
);
note = uni0421;
unicode = 0421;
},
{
glyphname = "Te-cy";
lastChange = "2019-08-11 02:27:54 +0000";
layers = (
{
layerId = "BA196CD0-EE58-4274-B8DF-4393D3617A29";
paths = (
{
closed = 1;
nodes = (
"339 656 LINE",
"80 646 LINE",
"80 729 LINE",
"697 729 LINE",
"697 646 LINE",
"438 656 LINE",
"458 0 LINE",
"320 0 LINE"
);
}
);
width = 777;
}
);
note = uni0422;
unicode = 0422;
},
{
glyphname = "U-cy";
lastChange = "2019-08-15 22:38:38 +0000";
layers = (
{
anchors = (
{
name = top;
position = "{365, 800}";
}
);
layerId = "BA196CD0-EE58-4274-B8DF-4393D3617A29";
paths = (
{
closed = 1;
nodes = (
"264 -16 OFFCURVE",
"335 7 QCURVE SMOOTH",
"396 27 OFFCURVE",
"441 132 QCURVE",
"484 270 LINE",
"654 730 LINE",
"571 730 LINE",
"408 369 LINE",
"175 730 LINE",
"80 730 LINE",
"366 263 LINE",
"339 200 LINE",
"321 140 OFFCURVE",
"273 136 QCURVE SMOOTH",
"205 130 OFFCURVE",
"111 198 QCURVE",
"121 21 LINE"
);
}
);
width = 734;
}
);
note = uni0423;
unicode = 0423;
},
{
glyphname = "Ef-cy";
lastChange = "2019-08-11 02:27:54 +0000";
layers = (
{
layerId = "BA196CD0-EE58-4274-B8DF-4393D3617A29";
paths = (
{
closed = 1;
nodes = (
"375 672 LINE",
"303 673 LINE",
"233 664 OFFCURVE",
"190 625 QCURVE SMOOTH",
"150 590 OFFCURVE",
"149 539 QCURVE SMOOTH",
"147 487 OFFCURVE",
"186 451 QCURVE SMOOTH",
"230 411 OFFCURVE",
"308 410 QCURVE",
"345 407 OFFCURVE",
"371 409 QCURVE"
);
},
{
closed = 1;
nodes = (
"547 728 LINE SMOOTH",
"792 729 OFFCURVE",
"792 508 QCURVE SMOOTH",
"792 399 OFFCURVE",
"730 340 QCURVE SMOOTH",
"666 280 OFFCURVE",
"544 280 QCURVE SMOOTH",
"489 280 LINE",
"498 0 LINE",
"362 0 LINE",
"371 280 LINE",
"328 280 LINE SMOOTH",
"206 280 OFFCURVE",
"143 340 QCURVE SMOOTH",
"80 399 OFFCURVE",
"80 508 QCURVE SMOOTH",
"80 726 OFFCURVE",
"328 726 QCURVE SMOOTH"
);
},
{
closed = 1;
nodes = (
"485 672 LINE",
"489 410 LINE",
"554 410 LINE SMOOTH",
"708 410 OFFCURVE",
"708 547 QCURVE SMOOTH",
"708 662 OFFCURVE",
"554 672 QCURVE"
);
}
);
width = 872;
}
);
note = uni0424;
unicode = 0424;
},
{
glyphname = "Ha-cy";
lastChange = "2019-08-11 02:27:54 +0000";
layers = (
{
layerId = "BA196CD0-EE58-4274-B8DF-4393D3617A29";
paths = (
{
closed = 1;
nodes = (
"80 0 LINE",
"331 340 LINE",
"113 729 LINE",
"219 729 LINE",
"401 389 LINE",
"583 729 LINE",
"689 729 LINE",
"464 340 LINE",
"704 0 LINE",
"545 0 LINE",
"393 221 LINE",
"240 0 LINE"
);
}
);
width = 784;
}
);
note = uni0425;
unicode = 0425;
},
{
glyphname = "Che-cy";
lastChange = "2019-08-15 22:39:09 +0000";
layers = (
{
anchors = (
{
name = top;
position = "{334, 812}";
}
);
layerId = "BA196CD0-EE58-4274-B8DF-4393D3617A29";
paths = (
{
closed = 1;
nodes = (
"80 317 OFFCURVE",
"132 256 QCURVE SMOOTH",
"184 196 OFFCURVE",
"279 196 QCURVE SMOOTH",
"412 196 OFFCURVE",
"465 278 QCURVE",
"458 0 LINE",
"583 0 LINE",
"563 730 LINE",
"480 730 LINE",
"468 477 LINE SMOOTH",
"467 398 OFFCURVE",
"423 354 QCURVE SMOOTH",
"381 312 OFFCURVE",
"309 312 QCURVE SMOOTH",
"245 312 OFFCURVE",
"212 339 QCURVE SMOOTH",
"171 373 OFFCURVE",
"170 459 QCURVE SMOOTH",
"165 730 LINE",
"85 730 LINE",
"80 430 LINE SMOOTH"
);
}
);
width = 663;
}
);
note = uni0427;
unicode = 0427;
},
{
glyphname = "Tse-cy";
lastChange = "2019-08-11 02:27:54 +0000";
layers = (
{
layerId = "BA196CD0-EE58-4274-B8DF-4393D3617A29";
paths = (
{
closed = 1;
nodes = (
"80 0 LINE",
"532 0 LINE",
"492 -144 LINE",
"602 -144 LINE",
"640 118 LINE",
"568 116 LINE",
"553 729 LINE",
"477 729 LINE",
"455 113 LINE",
"191 111 LINE",
"178 728 LINE",
"90 728 LINE"
);
}
);
width = 720;
}
);
note = uni0426;
unicode = 0426;
},
{
glyphname = "Sha-cy";
lastChange = "2019-08-11 02:27:54 +0000";
layers = (
{
layerId = "BA196CD0-EE58-4274-B8DF-4393D3617A29";
paths = (
{
closed = 1;
nodes = (
"80 726 LINE",
"85 0 LINE",
"730 0 LINE",
"725 726 LINE",
"629 726 LINE",
"647 109 LINE",
"468 110 LINE",
"475 702 LINE",
"367 702 LINE",
"385 110 LINE",
"183 110 LINE",
"192 726 LINE"
);
}
);
width = 810;
}
);
note = uni0428;
unicode = 0428;
},
{
glyphname = "Shcha-cy";
lastChange = "2019-08-11 02:27:54 +0000";
layers = (
{
layerId = "BA196CD0-EE58-4274-B8DF-4393D3617A29";
paths = (
{
closed = 1;
nodes = (
"80 726 LINE",
"85 0 LINE",
"704 0 LINE",
"667 -152 LINE",
"777 -152 LINE",
"825 104 LINE",
"729 122 LINE",
"725 726 LINE",
"629 726 LINE",
"645 121 LINE",
"468 120 LINE",
"475 702 LINE",
"367 702 LINE",
"385 120 LINE",
"172 121 LINE",
"192 726 LINE"
);
}
);
width = 905;
}
);
note = uni0429;
unicode = 0429;
},
{
glyphname = "Dzhe-cy";
lastChange = "2019-08-15 21:29:38 +0000";
layers = (
{
layerId = "BA196CD0-EE58-4274-B8DF-4393D3617A29";
paths = (
{
closed = 1;
nodes = (
"28 0 LINE",
"575 0 LINE",
"575 700 LINE",
"28 700 LINE"
);
},
{
closed = 1;
nodes = (
"472 700 LINE",
"472 98 LINE",
"134 98 LINE",
"134 700 LINE"
);
},
{
closed = 1;
nodes = (
"260 -188 LINE",
"343 -188 LINE",
"343 0 LINE",
"260 0 LINE"
);
}
);
width = 600;
}
);
unicode = 040F;
},
{
glyphname = "Softsign-cy";
lastChange = "2019-08-11 02:27:54 +0000";
layers = (
{
layerId = "BA196CD0-EE58-4274-B8DF-4393D3617A29";
paths = (
{
closed = 1;
nodes = (
"168 729 LINE",
"90 729 LINE",
"80 0 LINE",
"297 0 LINE SMOOTH",
"545 0 OFFCURVE",
"545 218 QCURVE SMOOTH",
"545 327 OFFCURVE",
"483 386 QCURVE SMOOTH",
"419 446 OFFCURVE",
"297 446 QCURVE SMOOTH",
"178 446 LINE"
);
},
{
closed = 1;
nodes = (
"181 130 LINE",
"177 378 LINE",
"311 378 LINE SMOOTH",
"383 378 OFFCURVE",
"422 336 QCURVE SMOOTH",
"459 296 OFFCURVE",
"459 228 QCURVE SMOOTH",
"459 191 OFFCURVE",
"419 162 QCURVE SMOOTH",
"374 130 OFFCURVE",
"305 130 QCURVE SMOOTH"
);
}
);
width = 625;
}
);
note = uni042C;
unicode = 042C;
},
{
glyphname = "Hardsign-cy";
lastChange = "2019-08-11 02:27:54 +0000";
layers = (
{
layerId = "BA196CD0-EE58-4274-B8DF-4393D3617A29";
paths = (
{
closed = 1;
nodes = (
"337 729 LINE",
"108 730 LINE",
"80 628 LINE",
"231 630 LINE",
"249 0 LINE",
"466 0 LINE SMOOTH",
"714 0 OFFCURVE",
"714 218 QCURVE SMOOTH",
"714 327 OFFCURVE",
"652 386 QCURVE SMOOTH",
"588 446 OFFCURVE",
"466 446 QCURVE SMOOTH",
"347 446 LINE"
);
},
{
closed = 1;
nodes = (
"350 132 LINE",
"349 384 LINE",
"478 384 LINE SMOOTH",
"625 379 OFFCURVE",
"628 254 QCURVE SMOOTH",
"629 191 OFFCURVE",
"580 158 QCURVE SMOOTH",
"536 129 OFFCURVE",
"468 130 QCURVE SMOOTH"
);
}
);
width = 794;
}
);
note = uni042A;
unicode = 042A;
},
{
glyphname = "Yeru-cy";
lastChange = "2019-08-15 22:39:31 +0000";
layers = (
{
anchors = (
{
name = top;
position = "{445, 761}";
}
);
layerId = "BA196CD0-EE58-4274-B8DF-4393D3617A29";
paths = (
{
closed = 1;
nodes = (
"666 0 LINE",
"674 122 OFFCURVE",
"686 729 QCURVE",
"770 729 LINE",
"778 122 OFFCURVE",
"784 0 QCURVE"
);
},
{
closed = 1;
nodes = (
"158 729 LINE",
"80 729 LINE",
"110 0 LINE",
"327 0 LINE SMOOTH",
"575 0 OFFCURVE",
"575 218 QCURVE SMOOTH",
"575 327 OFFCURVE",
"513 386 QCURVE SMOOTH",
"449 446 OFFCURVE",
"327 446 QCURVE SMOOTH",
"178 446 LINE"
);
},
{
closed = 1;
nodes = (
"209 135 LINE",
"193 381 LINE",
"337 381 LINE SMOOTH",
"408 381 OFFCURVE",
"451 340 QCURVE SMOOTH",
"491 301 OFFCURVE",
"491 244 QCURVE SMOOTH",
"491 198 OFFCURVE",
"449 167 QCURVE SMOOTH",
"405 135 OFFCURVE",
"333 135 QCURVE SMOOTH"
);
}
);
width = 864;
}
);
note = uni042B;
unicode = 042B;
},
{
glyphname = "Lje-cy";
lastChange = "2019-08-15 21:47:38 +0000";
layers = (
{
anchors = (
{
name = _bottom_hook;
position = "{-214, 584}";
},
{
name = center;
position = "{-22, 349}";
}
);
components = (
{
name = "Softsign-cy";
}
);
layerId = "BA196CD0-EE58-4274-B8DF-4393D3617A29";
paths = (
{
closed = 1;
nodes = (
"-255 653 LINE",
"168 653 LINE",
"168 729 LINE",
"-255 729 LINE"
);
},
{
closed = 1;
nodes = (
"-251 -18 OFFCURVE",
"-212 -20 OFFCURVE",
"-205 101 CURVE SMOOTH",
"-191 339 OFFCURVE",
"-187 412 OFFCURVE",
"-174 653 CURVE",
"-181 664 OFFCURVE",
"-201 669 OFFCURVE",
"-213 669 CURVE SMOOTH",
"-225 669 OFFCURVE",
"-246 663 OFFCURVE",
"-254 653 CURVE",
"-251 432 OFFCURVE",
"-279 175 OFFCURVE",
"-288 120 CURVE SMOOTH",
"-294 83 OFFCURVE",
"-291 69 OFFCURVE",
"-359 69 CURVE",
"-377 -17 LINE"
);
}
);
width = 600;
}
);
unicode = 0409;
},
{
glyphname = "Nje-cy";
lastChange = "2019-08-15 21:49:13 +0000";
layers = (
{
anchors = (
{
name = _bottom_hook;
position = "{-214, 584}";
},
{
name = center;
position = "{-22, 349}";
}
);
components = (
{
name = "Softsign-cy";
}
);
layerId = "BA196CD0-EE58-4274-B8DF-4393D3617A29";
paths = (
{
closed = 1;
nodes = (
"-255 368 LINE",
"168 368 LINE",
"168 444 LINE",
"-255 444 LINE"
);
},
{
closed = 1;
nodes = (
"-332 0 LINE",
"-246 0 LINE",
"-246 735 LINE",
"-332 735 LINE"
);
}
);
width = 600;
}
);
unicode = 040A;
},
{
glyphname = "E-cy";
lastChange = "2019-08-15 20:53:07 +0000";
layers = (
{
anchors = (
{
name = bottom;
position = "{418, -54}";
},
{
name = center;
position = "{418, 387}";
},
{
name = horn;
position = "{689, 547}";
},
{
name = ogonek;
position = "{748, 10}";
},
{
name = top;
position = "{414, 842}";
},
{
name = topleft;
position = "{25, 700}";
},
{
name = topright;
position = "{810, 700}";
}
);
components = (
{
name = hyphen;
transform = "{1, 0, 0, 1, 7, 91}";
}
);
layerId = "BA196CD0-EE58-4274-B8DF-4393D3617A29";
paths = (
{
closed = 1;
nodes = (
"598 219 LINE",
"557 185 OFFCURVE",
"495 173 OFFCURVE",
"418 173 CURVE SMOOTH",
"275 173 OFFCURVE",
"184 213 OFFCURVE",
"184 364 CURVE SMOOTH",
"184 548 OFFCURVE",
"275 672 OFFCURVE",
"418 672 CURVE SMOOTH",
"515 672 OFFCURVE",
"588 615 OFFCURVE",
"624 521 CURVE",
"731 521 LINE",
"684 659 OFFCURVE",
"571 742 OFFCURVE",
"418 742 CURVE SMOOTH",
"213 742 OFFCURVE",
"80 594 OFFCURVE",
"80 364 CURVE SMOOTH",
"80 54 OFFCURVE",
"185 -12 OFFCURVE",
"418 -14 CURVE SMOOTH",
"627 -16 OFFCURVE",
"720 31 OFFCURVE",
"746 219 CURVE"
);
}
);
width = 835;
}
);
unicode = 0404;
},
{
glyphname = "Iu-cy";
lastChange = "2019-08-11 02:27:54 +0000";
layers = (
{
layerId = "BA196CD0-EE58-4274-B8DF-4393D3617A29";
paths = (
{
closed = 1;
nodes = (
"467 662 OFFCURVE",
"415 582 QCURVE SMOOTH",
"365 504 OFFCURVE",
"365 364 QCURVE SMOOTH",
"365 259 OFFCURVE",
"423 200 QCURVE SMOOTH",
"477 146 OFFCURVE",
"559 146 QCURVE SMOOTH",
"646 146 OFFCURVE",
"695 200 QCURVE SMOOTH",
"746 256 OFFCURVE",
"746 364 QCURVE SMOOTH",
"746 662 OFFCURVE",
"560 662 QCURVE SMOOTH"
);
},
{
closed = 1;
nodes = (
"179 266 LINE",
"173 0 LINE",
"88 0 LINE",
"80 729 LINE",
"191 729 LINE",
"185 360 LINE",
"267 343 LINE",
"291 733 OFFCURVE",
"560 733 QCURVE SMOOTH",
"841 733 OFFCURVE",
"841 364 QCURVE SMOOTH",
"841 -2 OFFCURVE",
"560 -2 QCURVE SMOOTH",
"275 -2 OFFCURVE",
"267 275 QCURVE"
);
}
);
width = 921;
}
);
note = uni042E;
unicode = 042E;
},
{
glyphname = "Ia-cy";
lastChange = "2019-08-11 02:27:54 +0000";
layers = (
{
layerId = "BA196CD0-EE58-4274-B8DF-4393D3617A29";
paths = (
{
closed = 1;
nodes = (
"241 322 OFFCURVE",
"180 199 QCURVE SMOOTH",
"80 0 LINE",
"220 0 LINE",
"294 187 LINE",
"329 259 OFFCURVE",
"364 284 QCURVE SMOOTH",
"396 308 OFFCURVE",
"456 308 QCURVE SMOOTH",
"530 308 LINE",
"530 0 LINE",
"648 0 LINE",
"648 729 LINE",
"425 729 LINE SMOOTH",
"192 729 OFFCURVE",
"192 519 QCURVE SMOOTH",
"192 379 OFFCURVE",
"302 342 QCURVE"
);
},
{
closed = 1;
nodes = (
"539 677 LINE",
"539 409 LINE",
"415 409 LINE SMOOTH",
"358 409 OFFCURVE",
"310 442 QCURVE SMOOTH",
"262 476 OFFCURVE",
"262 519 QCURVE SMOOTH",
"262 677 OFFCURVE",
"415 677 QCURVE SMOOTH"
);
}
);
width = 728;
}
);
note = uni042F;
unicode = 042F;
},
{
glyphname = "Yat-cy";
lastChange = "2019-08-15 16:32:31 +0000";
layers = (
{
components = (
{
name = hyphen;
transform = "{1, 0, 0, 1, -104, 310}";
}
);
layerId = "BA196CD0-EE58-4274-B8DF-4393D3617A29";
paths = (
{
closed = 1;
nodes = (
"474 174 OFFCURVE",
"449 152 OFFCURVE",
"369 146 CURVE",
"239 146 OFFCURVE",
"208 144 OFFCURVE",
"208 219 CURVE SMOOTH",
"208 336 OFFCURVE",
"208 336 OFFCURVE",
"360 339 CURVE SMOOTH",
"456 341 OFFCURVE",
"475 252 OFFCURVE",
"475 227 CURVE"
);
},
{
closed = 1;
nodes = (
"196 -25 OFFCURVE",
"205 -14 OFFCURVE",
"348 -14 CURVE SMOOTH",
"515 -14 OFFCURVE",
"543 0 OFFCURVE",
"543 226 CURVE SMOOTH",
"543 297 OFFCURVE",
"498 395 OFFCURVE",
"339 395 CURVE SMOOTH",
"191 395 OFFCURVE",
"174 410 OFFCURVE",
"180 558 CURVE SMOOTH",
"186 708 LINE",
"92 708 LINE",
"92 265 OFFCURVE",
"80 104 OFFCURVE",
"132 46 CURVE SMOOTH"
);
}
);
width = 745;
}
);
unicode = 0462;
},
{
glyphname = "Yusbig-cy";
lastChange = "2019-08-15 20:39:02 +0000";
layers = (
{
layerId = "BA196CD0-EE58-4274-B8DF-4393D3617A29";
paths = (
{
closed = 1;
nodes = (
"780 715 LINE",
"80 715 LINE",
"80 616 LINE",
"780 616 LINE"
);
},
{
closed = 1;
nodes = (
"472 333 LINE",
"182 715 LINE",
"80 616 LINE",
"366 333 LINE"
);
},
{
closed = 1;
nodes = (
"472 330 LINE",
"780 616 LINE",
"671 715 LINE",
"366 330 LINE"
);
},
{
closed = 1;
nodes = (
"366 123 OFFCURVE",
"386 36 OFFCURVE",
"352 -2 CURVE",
"404 -2 OFFCURVE",
"467 -2 OFFCURVE",
"491 -2 CURVE",
"457 36 OFFCURVE",
"484 123 OFFCURVE",
"470 394 CURVE",
"366 394 LINE"
);
},
{
closed = 1;
nodes = (
"581 340 OFFCURVE",
"635 257 OFFCURVE",
"677 -2 CURVE",
"805 -2 LINE",
"727 97 OFFCURVE",
"753 377 OFFCURVE",
"517 377 CURVE",
"494 435 OFFCURVE",
"476 368 OFFCURVE",
"476 330 CURVE"
);
},
{
closed = 1;
nodes = (
"204 257 OFFCURVE",
"258 340 OFFCURVE",
"363 330 CURVE",
"363 368 OFFCURVE",
"345 435 OFFCURVE",
"322 377 CURVE",
"86 377 OFFCURVE",
"111 97 OFFCURVE",
"34 -2 CURVE",
"162 -2 LINE"
);
}
);
width = 860;
}
);
unicode = 046A;
},
{
glyphname = "Zhedescender-cy";
lastChange = "2019-08-15 21:52:26 +0000";
layers = (
{
components = (
{
alignment = -1;
name = K;
transform = "{-1, 0, 0, 1, 730, 0}";
},
{
name = K;
transform = "{1, 0, 0, 1, 389, 0}";
}
);
layerId = "BA196CD0-EE58-4274-B8DF-4393D3617A29";
paths = (
{
closed = 1;
nodes = (
"975 -133 LINE",
"1046 -133 LINE",
"1046 65 LINE",
"975 65 LINE"
);
}
);
width = 1460;
}
);
unicode = 0496;
},
{
glyphname = "Zedescender-cy";
lastChange = "2019-08-15 22:40:20 +0000";
layers = (
{
components = (
{
name = "Ze-cy";
}
);
layerId = "BA196CD0-EE58-4274-B8DF-4393D3617A29";
paths = (
{
closed = 1;
nodes = (
"247 -124 LINE",
"328 -124 LINE",
"328 10 LINE",
"247 10 LINE"
);
}
);
width = 640;
}
);
unicode = 0498;
},
{
glyphname = "Kadescender-cy";
lastChange = "2019-08-15 21:52:41 +0000";
layers = (
{
components = (
{
name = K;
}
);
layerId = "BA196CD0-EE58-4274-B8DF-4393D3617A29";
paths = (
{
closed = 1;
nodes = (
"602 -118 LINE",
"671 -118 LINE",
"671 43 LINE",
"602 43 LINE"
);
}
);
width = 730;
}
);
unicode = 049A;
},
{
glyphname = "Kaverticalstroke-cy";
lastChange = "2019-08-15 23:11:10 +0000";
layers = (
{
anchors = (
{
name = bottom;
position = "{312, 0}";
},
{
name = top;
position = "{370, 729}";
},
{
name = top_hook;
position = "{587, 515}";
}
);
components = (
{
name = verticallinemod;
transform = "{0.86338, 0, 0, 1.10693, 456, -368}";
}
);
layerId = "BA196CD0-EE58-4274-B8DF-4393D3617A29";
paths = (
{
closed = 1;
nodes = (
"299 276 LINE",
"487 0 LINE",
"720 0 LINE",
"382 327 LINE",
"625 729 LINE",
"498 729 LINE",
"299 375 LINE"
);
},
{
closed = 1;
nodes = (
"299 375 LINE",
"180 359 LINE",
"193 729 LINE",
"105 729 LINE",
"40 0 LINE",
"168 0 LINE",
"180 289 LINE",
"299 272 LINE"
);
}
);
width = 730;
}
);
unicode = 049C;
},
{
glyphname = "Endescender-cy";
lastChange = "2019-08-15 21:53:21 +0000";
layers = (
{
components = (
{
name = H;
}
);
layerId = "BA196CD0-EE58-4274-B8DF-4393D3617A29";
paths = (
{
closed = 1;
nodes = (
"678 -127 LINE",
"756 -127 LINE",
"756 39 LINE",
"678 39 LINE"
);
}
);
width = 771;
}
);
unicode = 04A2;
},
{
glyphname = "Pedescender-cy";
lastChange = "2019-08-15 23:21:26 +0000";
layers = (
{
components = (
{
name = "Pe-cy";
}
);
layerId = "BA196CD0-EE58-4274-B8DF-4393D3617A29";
paths = (
{
closed = 1;
nodes = (
"579 -126 LINE",
"663 -126 LINE",
"663 91 LINE",
"579 91 LINE"
);
}
);
width = 680;
}
);
unicode = 0524;
},
{
glyphname = "Haabkhasian-cy";
lastChange = "2019-08-15 23:37:34 +0000";
layers = (
{
layerId = "BA196CD0-EE58-4274-B8DF-4393D3617A29";
paths = (
{
closed = 1;
nodes = (
"61 704 OFFCURVE",
"-60 494 OFFCURVE",
"-60 300 CURVE SMOOTH",
"-60 163 OFFCURVE",
"0 35 OFFCURVE",
"119 -1 CURVE SMOOTH",
"176 -18 OFFCURVE",
"229 -26 OFFCURVE",
"279 -26 CURVE SMOOTH",
"592 -26 OFFCURVE",
"772 275 OFFCURVE",
"772 443 CURVE SMOOTH",
"772 523 OFFCURVE",
"739 623 OFFCURVE",
"571 623 CURVE SMOOTH",
"376 623 OFFCURVE",
"282 463 OFFCURVE",
"282 305 CURVE SMOOTH",
"282 151 OFFCURVE",
"371 -1 OFFCURVE",
"542 -1 CURVE SMOOTH",
"666 -1 OFFCURVE",
"697 12 OFFCURVE",
"824 86 CURVE",
"772 197 LINE",
"691 141 OFFCURVE",
"622 119 OFFCURVE",
"566 119 CURVE SMOOTH",
"440 119 OFFCURVE",
"377 232 OFFCURVE",
"377 343 CURVE SMOOTH",
"377 448 OFFCURVE",
"434 550 OFFCURVE",
"549 550 CURVE SMOOTH",
"556 550 OFFCURVE",
"563 550 OFFCURVE",
"571 549 CURVE SMOOTH",
"659 539 OFFCURVE",
"693 500 OFFCURVE",
"693 449 CURVE SMOOTH",
"693 334 OFFCURVE",
"521 158 OFFCURVE",
"407 118 CURVE SMOOTH",
"356 100 OFFCURVE",
"310 92 OFFCURVE",
"270 92 CURVE SMOOTH",
"119 92 OFFCURVE",
"47 204 OFFCURVE",
"47 321 CURVE SMOOTH",
"47 451 OFFCURVE",
"137 587 OFFCURVE",
"309 577 CURVE",
"309 695 LINE"
);
}
);
width = 686;
}
);
unicode = 04A8;
},
{
glyphname = "Tedescender-cy";
lastChange = "2019-08-15 23:24:29 +0000";
layers = (
{
components = (
{
name = T;
}
);
layerId = "BA196CD0-EE58-4274-B8DF-4393D3617A29";
paths = (
{
closed = 1;
nodes = (
"439 -100 LINE",
"515 -100 LINE",
"515 63 LINE",
"439 63 LINE"
);
}
);
width = 777;
}
);
unicode = 04AC;
},
{
glyphname = "Hadescender-cy";
lastChange = "2019-08-15 21:54:33 +0000";
layers = (
{
components = (
{
name = X;
}
);
layerId = "BA196CD0-EE58-4274-B8DF-4393D3617A29";
paths = (
{
closed = 1;
nodes = (
"668 -116 LINE",
"738 -116 LINE",
"738 59 LINE",
"668 59 LINE"
);
}
);
width = 789;
}
);
unicode = 04B2;
},
{
glyphname = "Tetse-cy";
lastChange = "2019-08-15 23:55:13 +0000";
layers = (
{
layerId = "BA196CD0-EE58-4274-B8DF-4393D3617A29";
paths = (
{
closed = 1;
nodes = (
"-119 623 LINE",
"360 623 LINE",
"360 700 LINE",
"-119 700 LINE"
);
},
{
closed = 1;
nodes = (
"86 0 LINE",
"192 0 LINE",
"192 639 LINE",
"86 639 LINE"
);
},
{
closed = 1;
nodes = (
"86 0 LINE",
"604 0 LINE",
"604 133 LINE",
"86 133 LINE"
);
},
{
closed = 1;
nodes = (
"499 133 LINE",
"584 133 LINE",
"584 688 LINE",
"499 688 LINE"
);
},
{
closed = 1;
nodes = (
"601 -172 LINE",
"705 -172 LINE",
"705 133 LINE",
"601 133 LINE"
);
}
);
width = 600;
}
);
unicode = 04B4;
},
{
glyphname = "Chedescender-cy";
lastChange = "2019-08-15 21:23:14 +0000";
layers = (
{
components = (
{
name = "Shha-cy";
transform = "{-1, 0, 0, -1, 676, 700}";
}
);
layerId = "BA196CD0-EE58-4274-B8DF-4393D3617A29";
paths = (
{
closed = 1;
nodes = (
"579 -220 LINE",
"673 -220 LINE",
"673 -10 LINE",
"579 -10 LINE"
);
}
);
width = 676;
}
);
unicode = 04B6;
},
{
glyphname = "Cheverticalstroke-cy";
lastChange = "2019-08-15 22:49:25 +0000";
layers = (
{
components = (
{
name = "Che-cy";
}
);
layerId = "BA196CD0-EE58-4274-B8DF-4393D3617A29";
paths = (
{
closed = 1;
nodes = (
"259 85 LINE",
"338 85 LINE",
"338 411 LINE",
"259 411 LINE"
);
}
);
width = 663;
}
);
unicode = 04B8;
},
{
glyphname = "Shha-cy";
lastChange = "2019-08-15 21:21:43 +0000";
layers = (
{
anchors = (
{
name = bottom;
position = "{338, 0}";
},
{
name = bottom_hook;
position = "{518, 0}";
},
{
name = center;
position = "{302, 273}";
},
{
name = top;
position = "{302, 547}";
},
{
name = top_hook;
position = "{181, 482}";
}
);
layerId = "BA196CD0-EE58-4274-B8DF-4393D3617A29";
paths = (
{
closed = 1;
nodes = (
"558 434 OFFCURVE",
"500 460 OFFCURVE",
"384 460 CURVE SMOOTH",
"309 460 OFFCURVE",
"264 451 OFFCURVE",
"205 434 CURVE",
"183 800 LINE",
"93 800 LINE",
"80 0 LINE",
"203 0 LINE",
"161 334 OFFCURVE",
"205 388 OFFCURVE",
"364 388 CURVE SMOOTH",
"520 388 OFFCURVE",
"496 290 OFFCURVE",
"473 0 CURVE",
"596 0 LINE",
"575 242 LINE SMOOTH"
);
}
);
width = 676;
}
);
unicode = 04BA;
},
{
glyphname = "Shhadescender-cy";
lastChange = "2019-08-15 23:05:45 +0000";
layers = (
{
components = (
{
name = "Shha-cy";
}
);
layerId = "BA196CD0-EE58-4274-B8DF-4393D3617A29";
paths = (
{
closed = 1;
nodes = (
"567 -75 LINE",
"632 -75 LINE",
"632 84 LINE",
"567 84 LINE"
);
}
);
width = 676;
}
);
unicode = 0526;
},
{
glyphname = "Chedescenderabkhasian-cy";
lastChange = "2019-08-15 23:53:07 +0000";
layers = (
{
components = (
{
name = "Cheabkhasian-cy";
transform = "{1, 0, 0, 1, 127, 0}";
}
);
layerId = "BA196CD0-EE58-4274-B8DF-4393D3617A29";
paths = (
{
closed = 1;
nodes = (
"506 -154 LINE",
"577 -154 LINE",
"577 -8 LINE",
"506 -8 LINE"
);
}
);
width = 896;
}
);
unicode = 04BE;
},
{
glyphname = "Kahook-cy";
lastChange = "2019-08-15 23:47:29 +0000";
layers = (
{
anchors = (
{
name = bottom;
position = "{312, 0}";
},
{
name = top;
position = "{370, 729}";
},
{
name = top_hook;
position = "{587, 515}";
}
);
layerId = "BA196CD0-EE58-4274-B8DF-4393D3617A29";
paths = (
{
closed = 1;
nodes = (
"208 0 LINE",
"220 281 LINE SMOOTH",
"220 284 OFFCURVE",
"222 282 OFFCURVE",
"225 282 CURVE SMOOTH",
"365 272 OFFCURVE",
"507 215 OFFCURVE",
"507 83 CURVE SMOOTH",
"507 -17 OFFCURVE",
"500 -99 OFFCURVE",
"342 -107 CURVE",
"342 -225 LINE",
"619 -225 OFFCURVE",
"624 19 OFFCURVE",
"624 69 CURVE SMOOTH",
"624 191 OFFCURVE",
"529 330 OFFCURVE",
"314 330 CURVE",
"555 729 LINE",
"428 729 LINE",
"220 359 LINE",
"233 729 LINE",
"145 729 LINE",
"80 0 LINE"
);
}
);
width = 730;
}
);
unicode = 04C3;
},
{
glyphname = "Chekhakassian-cy";
lastChange = "2019-08-15 23:08:16 +0000";
layers = (
{
components = (
{
name = "Shha-cy";
transform = "{-1, 0, 0, -1, 676, 700}";
}
);
layerId = "BA196CD0-EE58-4274-B8DF-4393D3617A29";
paths = (
{
closed = 1;
nodes = (
"437 -189 LINE",
"513 -189 LINE",
"513 -39 LINE",
"437 -39 LINE"
);
}
);
width = 676;
}
);
unicode = 04CB;
},
{
glyphname = "Gedescender-cy";
lastChange = "2019-08-15 23:48:57 +0000";
layers = (
{
components = (
{
name = "Ge-cy";
}
);
layerId = "BA196CD0-EE58-4274-B8DF-4393D3617A29";
paths = (
{
closed = 1;
nodes = (
"212 -124 LINE",
"277 -124 LINE",
"277 48 LINE",
"212 48 LINE"
);
}
);
width = 655;
}
);
unicode = 04F6;
},
{
glyphname = "Elhook-cy";
lastChange = "2019-08-15 23:04:09 +0000";
layers = (
{
components = (
{
name = "El-cy.loclBGR";
}
);
layerId = "BA196CD0-EE58-4274-B8DF-4393D3617A29";
paths = (
{
closed = 1;
nodes = (
"398 -161 OFFCURVE",
"502 -144 OFFCURVE",
"509 -23 CURVE SMOOTH",
"523 215 OFFCURVE",
"455 249 OFFCURVE",
"474 490 CURVE SMOOTH",
"475 503 OFFCURVE",
"468 506 OFFCURVE",
"456 506 CURVE SMOOTH",
"444 506 OFFCURVE",
"403 500 OFFCURVE",
"395 490 CURVE",
"397 269 OFFCURVE",
"387 48 OFFCURVE",
"378 -7 CURVE SMOOTH",
"372 -44 OFFCURVE",
"373 -62 OFFCURVE",
"290 -74 CURVE",
"272 -160 LINE"
);
}
);
width = 600;
}
);
unicode = 0512;
},
{
glyphname = "be-cy";
lastChange = "2019-08-11 02:27:54 +0000";
layers = (
{
layerId = "BA196CD0-EE58-4274-B8DF-4393D3617A29";
paths = (
{
closed = 1;
nodes = (
"205 106 LINE",
"195 286 LINE",
"307 286 LINE SMOOTH",
"374 286 OFFCURVE",
"406 254 QCURVE SMOOTH",
"431 229 OFFCURVE",
"431 190 QCURVE SMOOTH",
"431 160 OFFCURVE",
"406 137 QCURVE SMOOTH",
"372 106 OFFCURVE",
"307 106 QCURVE SMOOTH"
);
},
{
closed = 1;
nodes = (
"80 551 LINE",
"106 0 LINE",
"292 0 LINE SMOOTH",
"504 0 OFFCURVE",
"504 165 QCURVE SMOOTH",
"504 247 OFFCURVE",
"451 292 QCURVE SMOOTH",
"396 337 OFFCURVE",
"292 337 QCURVE SMOOTH",
"186 338 LINE",
"180 499 LINE",
"475 499 LINE",
"503 551 LINE"
);
}
);
width = 584;
}
);
note = uni0431;
unicode = 0431;
},
{
glyphname = "be-cy.loclSRB";
lastChange = "2019-08-15 22:12:19 +0000";
layers = (
{
layerId = "BA196CD0-EE58-4274-B8DF-4393D3617A29";
paths = (
{
closed = 1;
nodes = (
"250 394 OFFCURVE",
"196 329 OFFCURVE",
"196 234 CURVE SMOOTH",
"196 168 OFFCURVE",
"252 116 OFFCURVE",
"341 116 CURVE SMOOTH",
"429 116 OFFCURVE",
"485 168 OFFCURVE",
"485 234 CURVE SMOOTH",
"485 329 OFFCURVE",
"425 394 OFFCURVE",
"341 394 CURVE SMOOTH"
);
},
{
closed = 1;
nodes = (
"341 -14 CURVE SMOOTH",
"196 -14 OFFCURVE",
"97 92 OFFCURVE",
"80 239 CURVE SMOOTH",
"71 314 OFFCURVE",
"66 377 OFFCURVE",
"74 473 CURVE SMOOTH",
"80 549 OFFCURVE",
"143 654 OFFCURVE",
"235 700 CURVE SMOOTH",
"321 743 OFFCURVE",
"485 688 OFFCURVE",
"558 758 CURVE",
"513 650 LINE",
"447 616 OFFCURVE",
"356 684 OFFCURVE",
"252 612 CURVE SMOOTH",
"195 573 OFFCURVE",
"189 530 OFFCURVE",
"156 418 CURVE",
"282 530 OFFCURVE",
"611 531 OFFCURVE",
"611 247 CURVE SMOOTH",
"611 119 OFFCURVE",
"521 -14 OFFCURVE"
);
}
);
width = 691;
}
);
},
{
glyphname = "ve-cy";
lastChange = "2019-08-11 02:27:54 +0000";
layers = (
{
layerId = "BA196CD0-EE58-4274-B8DF-4393D3617A29";
paths = (
{
closed = 1;
nodes = (
"80 0 LINE",
"80 554 LINE",
"272 554 LINE SMOOTH",
"366 554 OFFCURVE",
"417 518 QCURVE SMOOTH",
"469 483 OFFCURVE",
"469 417 QCURVE SMOOTH",
"469 314 OFFCURVE",
"366 299 QCURVE",
"523 276 OFFCURVE",
"523 155 QCURVE SMOOTH",
"523 81 OFFCURVE",
"463 40 QCURVE SMOOTH",
"404 0 OFFCURVE",
"300 0 QCURVE SMOOTH"
);
},
{
closed = 1;
nodes = (
"185 504 LINE",
"185 325 LINE",
"286 325 LINE SMOOTH",
"406 325 OFFCURVE",
"406 409 QCURVE SMOOTH",
"406 504 OFFCURVE",
"286 504 QCURVE SMOOTH"
);
},
{
closed = 1;
nodes = (
"185 264 LINE",
"185 110 LINE",
"296 110 LINE SMOOTH",
"366 110 OFFCURVE",
"395 128 QCURVE SMOOTH",
"427 147 OFFCURVE",
"427 197 QCURVE SMOOTH",
"427 216 OFFCURVE",
"395 240 QCURVE SMOOTH",
"362 264 OFFCURVE",
"296 264 QCURVE SMOOTH"
);
}
);
width = 603;
}
);
note = uni0432;
unicode = 0432;
},
{
glyphname = "ge-cy";
lastChange = "2019-08-11 02:27:54 +0000";
layers = (
{
layerId = "BA196CD0-EE58-4274-B8DF-4393D3617A29";
paths = (
{
closed = 1;
nodes = (
"507 552 LINE",
"88 552 LINE",
"80 0 LINE",
"225 0 LINE",
"192 478 LINE",
"517 478 LINE"
);
}
);
width = 597;
}
);
note = uni0433;
unicode = 0433;
},
{
glyphname = "gheupturn-cy";
lastChange = "2019-08-15 20:54:09 +0000";
layers = (
{
components = (
{
name = "ge-cy";
}
);
layerId = "BA196CD0-EE58-4274-B8DF-4393D3617A29";
paths = (
{
closed = 1;
nodes = (
"428 478 LINE",
"517 478 LINE",
"517 674 LINE",
"428 674 LINE"
);
}
);
width = 597;
}
);
unicode = 0491;
},
{
glyphname = "de-cy";
lastChange = "2019-08-11 02:27:54 +0000";
layers = (
{
layerId = "BA196CD0-EE58-4274-B8DF-4393D3617A29";
paths = (
{
closed = 1;
nodes = (
"590 554 LINE",
"273 553 LINE",
"230 236 LINE",
"196 192 LINE",
"140 99 LINE",
"80 99 LINE",
"130 -93 LINE",
"221 -93 LINE",
"207 -1 LINE",
"572 -1 LINE",
"546 -93 LINE",
"642 -93 LINE",
"686 99 LINE",
"600 99 LINE",
"590 479 LINE"
);
},
{
closed = 1;
nodes = (
"324 224 LINE",
"345 479 LINE",
"480 479 LINE",
"494 99 LINE",
"262 99 LINE"
);
}
);
width = 766;
}
);
note = uni0434;
unicode = 0434;
},
{
glyphname = "ie-cy";
lastChange = "2019-08-11 02:27:54 +0000";
layers = (
{
layerId = "BA196CD0-EE58-4274-B8DF-4393D3617A29";
paths = (
{
closed = 1;
nodes = (
"582 291 LINE",
"174 291 LINE",
"175 190 OFFCURVE",
"227 154 QCURVE SMOOTH",
"265 126 OFFCURVE",
"367 121 QCURVE",
"503 121 OFFCURVE",
"565 154 QCURVE",
"567 40 LINE",
"470 -2 OFFCURVE",
"364 -2 QCURVE",
"230 3 OFFCURVE",
"157 68 QCURVE SMOOTH",
"80 136 OFFCURVE",
"80 263 QCURVE",
"85 399 OFFCURVE",
"155 476 QCURVE SMOOTH",
"227 555 OFFCURVE",
"349 555 QCURVE",
"460 550 OFFCURVE",
"516 496 QCURVE SMOOTH",
"573 441 OFFCURVE",
"582 325 QCURVE"
);
},
{
closed = 1;
nodes = (
"504 370 LINE",
"496 422 OFFCURVE",
"456 462 QCURVE SMOOTH",
"411 508 OFFCURVE",
"349 508 QCURVE SMOOTH",
"278 508 OFFCURVE",
"229 463 QCURVE SMOOTH",
"184 422 OFFCURVE",
"184 369 QCURVE"
);
}
);
width = 662;
}
);
note = uni0435;
unicode = 0435;
},
{
glyphname = "io-cy";
lastChange = "2019-08-11 02:27:54 +0000";
layers = (
{
layerId = "BA196CD0-EE58-4274-B8DF-4393D3617A29";
paths = (
{
closed = 1;
nodes = (
"551 633 LINE",
"461 633 LINE",
"466 730 LINE",
"546 730 LINE"
);
},
{
closed = 1;
nodes = (
"236 633 LINE",
"146 633 LINE",
"151 730 LINE",
"231 730 LINE"
);
},
{
closed = 1;
nodes = (
"582 296 LINE",
"174 296 LINE",
"175 196 OFFCURVE",
"227 162 QCURVE SMOOTH",
"263 137 OFFCURVE",
"367 132 QCURVE",
"503 132 OFFCURVE",
"565 165 QCURVE",
"567 41 LINE",
"470 -1 OFFCURVE",
"364 -1 QCURVE",
"231 4 OFFCURVE",
"157 71 QCURVE SMOOTH",
"80 141 OFFCURVE",
"80 268 QCURVE",
"85 403 OFFCURVE",
"155 478 QCURVE SMOOTH",
"226 553 OFFCURVE",
"349 553 QCURVE",
"461 548 OFFCURVE",
"516 498 QCURVE SMOOTH",
"573 445 OFFCURVE",
"582 330 QCURVE"
);
},
{
closed = 1;
nodes = (
"504 375 LINE",
"496 426 OFFCURVE",
"456 463 QCURVE SMOOTH",
"411 506 OFFCURVE",
"349 506 QCURVE SMOOTH",
"277 506 OFFCURVE",
"229 465 QCURVE SMOOTH",
"184 426 OFFCURVE",
"184 374 QCURVE"
);
}
);
width = 662;
}
);
note = uni0451;
unicode = 0451;
},
{
glyphname = "zhe-cy";
lastChange = "2019-08-15 22:34:57 +0000";
layers = (
{
anchors = (
{
name = top;
position = "{386, 629}";
}
);
layerId = "BA196CD0-EE58-4274-B8DF-4393D3617A29";
paths = (
{
closed = 1;
nodes = (
"80 -3 LINE",
"299 254 LINE",
"96 550 LINE",
"195 550 LINE",
"357 318 LINE",
"362 550 LINE",
"415 550 LINE",
"430 316 LINE",
"597 551 LINE",
"696 551 LINE",
"486 256 LINE",
"697 -3 LINE",
"562 -3 LINE",
"430 188 LINE",
"431 -3 LINE",
"347 -3 LINE",
"349 189 LINE",
"214 -4 LINE"
);
}
);
width = 777;
}
);
note = uni0436;
unicode = 0436;
},
{
glyphname = "ze-cy";
lastChange = "2019-08-11 02:27:54 +0000";
layers = (
{
layerId = "BA196CD0-EE58-4274-B8DF-4393D3617A29";
paths = (
{
closed = 1;
nodes = (
"428 292 OFFCURVE",
"463 256 QCURVE SMOOTH",
"497 222 OFFCURVE",
"497 169 QCURVE SMOOTH",
"497 -5 OFFCURVE",
"254 -5 QCURVE SMOOTH",
"168 -5 OFFCURVE",
"80 22 QCURVE",
"80 136 LINE",
"168 91 OFFCURVE",
"257 91 QCURVE SMOOTH",
"310 91 OFFCURVE",
"353 122 QCURVE SMOOTH",
"389 149 OFFCURVE",
"389 180 QCURVE SMOOTH",
"389 218 OFFCURVE",
"357 243 QCURVE SMOOTH",
"323 269 OFFCURVE",
"267 270 QCURVE SMOOTH",
"165 273 LINE",
"158 329 LINE",
"271 330 LINE SMOOTH",
"373 332 OFFCURVE",
"373 404 QCURVE SMOOTH",
"373 488 OFFCURVE",
"272 488 QCURVE SMOOTH",
"184 488 OFFCURVE",
"101 429 QCURVE",
"99 530 LINE",
"193 553 OFFCURVE",
"275 553 QCURVE SMOOTH",
"371 553 OFFCURVE",
"427 515 QCURVE SMOOTH",
"482 478 OFFCURVE",
"482 414 QCURVE SMOOTH",
"482 321 OFFCURVE",
"369 296 QCURVE"
);
}
);
width = 577;
}
);
note = uni0437;
unicode = 0437;
},
{
glyphname = "ii-cy";
lastChange = "2019-08-11 02:27:54 +0000";
layers = (
{
layerId = "BA196CD0-EE58-4274-B8DF-4393D3617A29";
paths = (
{
closed = 1;
nodes = (
"478 0 LINE",
"591 0 LINE",
"573 543 LINE",
"461 543 LINE",
"176 106 LINE",
"163 554 LINE",
"80 554 LINE",
"80 0 LINE",
"210 0 LINE",
"504 464 LINE"
);
}
);
width = 671;
}
);
note = uni0438;
unicode = 0438;
},
{
glyphname = "iishort-cy";
lastChange = "2019-08-12 13:45:04 +0000";
layers = (
{
anchors = (
{
name = top;
position = "{321, 561}";
}
);
layerId = "BA196CD0-EE58-4274-B8DF-4393D3617A29";
paths = (
{
closed = 1;
nodes = (
"311 700 LINE",
"172 738 LINE",
"172 692 LINE",
"311 606 LINE",
"454 692 LINE",
"454 738 LINE"
);
},
{
closed = 1;
nodes = (
"478 0 LINE",
"591 0 LINE",
"573 543 LINE",
"461 543 LINE",
"176 106 LINE",
"163 554 LINE",
"80 554 LINE",
"80 0 LINE",
"210 0 LINE",
"504 464 LINE"
);
}
);
width = 671;
}
);
note = uni0439;
unicode = 0439;
},
{
glyphname = "ka-cy";
lastChange = "2019-08-11 02:27:54 +0000";
layers = (
{
layerId = "BA196CD0-EE58-4274-B8DF-4393D3617A29";
paths = (
{
closed = 1;
nodes = (
"203 0 LINE",
"80 0 LINE",
"94 550 LINE",
"192 550 LINE",
"189 330 LINE",
"439 550 LINE",
"566 550 LINE",
"281 298 LINE",
"592 0 LINE",
"403 0 LINE",
"194 260 LINE"
);
}
);
width = 672;
}
);
note = uni043A;
unicode = 043A;
},
{
glyphname = "el-cy";
lastChange = "2019-08-11 02:27:54 +0000";
layers = (
{
layerId = "BA196CD0-EE58-4274-B8DF-4393D3617A29";
paths = (
{
closed = 1;
nodes = (
"648 0 LINE",
"406 548 LINE",
"319 548 LINE",
"80 0 LINE",
"219 0 LINE",
"364 459 LINE",
"519 0 LINE"
);
}
);
width = 728;
}
);
note = uni043B;
unicode = 043B;
},
{
glyphname = "em-cy";
lastChange = "2019-08-11 02:27:54 +0000";
layers = (
{
layerId = "BA196CD0-EE58-4274-B8DF-4393D3617A29";
paths = (
{
closed = 1;
nodes = (
"187 0 LINE",
"80 0 LINE",
"93 550 LINE",
"219 550 LINE",
"373 225 LINE",
"537 550 LINE",
"655 550 LINE",
"667 0 LINE",
"560 0 LINE",
"577 482 LINE",
"425 88 LINE",
"323 88 LINE",
"171 482 LINE"
);
}
);
width = 747;
}
);
note = uni043C;
unicode = 043C;
},
{
glyphname = "en-cy";
lastChange = "2019-08-11 02:27:54 +0000";
layers = (
{
layerId = "BA196CD0-EE58-4274-B8DF-4393D3617A29";
paths = (
{
closed = 1;
nodes = (
"196 0 LINE",
"80 0 LINE",
"95 548 LINE",
"186 548 LINE",
"192 290 LINE",
"485 290 LINE",
"493 548 LINE",
"582 548 LINE",
"592 0 LINE",
"478 0 LINE",
"485 186 LINE",
"192 186 LINE"
);
}
);
width = 672;
}
);
note = uni043D;
unicode = 043D;
},
{
glyphname = "o-cy";
lastChange = "2019-08-11 02:27:54 +0000";
layers = (
{
layerId = "BA196CD0-EE58-4274-B8DF-4393D3617A29";
paths = (
{
closed = 1;
nodes = (
"448 560 OFFCURVE",
"515 484 QCURVE SMOOTH",
"582 408 OFFCURVE",
"582 273 QCURVE SMOOTH",
"582 139 OFFCURVE",
"515 62 QCURVE SMOOTH",
"448 -14 OFFCURVE",
"331 -14 QCURVE SMOOTH",
"213 -14 OFFCURVE",
"147 62 QCURVE SMOOTH",
"80 139 OFFCURVE",
"80 273 QCURVE SMOOTH",
"80 408 OFFCURVE",
"147 484 QCURVE SMOOTH",
"213 560 OFFCURVE",
"331 560 QCURVE SMOOTH"
);
},
{
closed = 1;
nodes = (
"259 494 OFFCURVE",
"217 439 QCURVE SMOOTH",
"175 384 OFFCURVE",
"175 289 QCURVE SMOOTH",
"175 200 OFFCURVE",
"217 167 QCURVE SMOOTH",
"250 141 OFFCURVE",
"331 141 QCURVE SMOOTH",
"411 141 OFFCURVE",
"445 167 QCURVE SMOOTH",
"487 200 OFFCURVE",
"487 289 QCURVE SMOOTH",
"487 383 OFFCURVE",
"445 438 QCURVE SMOOTH",
"403 494 OFFCURVE",
"331 494 QCURVE SMOOTH"
);
}
);
width = 662;
}
);
note = uni043E;
unicode = 043E;
},
{
glyphname = "pe-cy";
lastChange = "2019-08-11 02:27:54 +0000";
layers = (
{
layerId = "BA196CD0-EE58-4274-B8DF-4393D3617A29";
paths = (
{
closed = 1;
nodes = (
"463 0 LINE",
"583 0 LINE",
"572 486 LINE",
"476 486 LINE"
);
},
{
closed = 1;
nodes = (
"572 547 LINE",
"80 550 LINE",
"81 0 LINE",
"194 0 LINE",
"184 486 LINE",
"572 486 LINE"
);
}
);
width = 663;
}
);
note = uni043F;
unicode = 043F;
},
{
glyphname = "er-cy";
lastChange = "2019-08-11 02:27:54 +0000";
layers = (
{
layerId = "BA196CD0-EE58-4274-B8DF-4393D3617A29";
paths = (
{
closed = 1;
nodes = (
"180 -208 LINE",
"80 -208 LINE",
"101 127 LINE",
"109 539 LINE",
"199 539 LINE",
"184 464 LINE",
"239 560 OFFCURVE",
"359 560 QCURVE SMOOTH",
"459 560 OFFCURVE",
"521 481 QCURVE SMOOTH",
"583 402 OFFCURVE",
"583 273 QCURVE SMOOTH",
"583 144 OFFCURVE",
"521 65 QCURVE SMOOTH",
"459 -14 OFFCURVE",
"359 -14 QCURVE SMOOTH",
"239 -14 OFFCURVE",
"184 82 QCURVE"
);
},
{
closed = 1;
nodes = (
"525 388 OFFCURVE",
"485 444 QCURVE SMOOTH",
"444 500 OFFCURVE",
"372 500 QCURVE SMOOTH",
"301 500 OFFCURVE",
"260 444 QCURVE SMOOTH",
"220 388 OFFCURVE",
"220 289 QCURVE SMOOTH",
"220 196 OFFCURVE",
"263 162 QCURVE SMOOTH",
"297 134 OFFCURVE",
"377 134 QCURVE SMOOTH",
"455 134 OFFCURVE",
"487 162 QCURVE SMOOTH",
"525 195 OFFCURVE",
"525 289 QCURVE SMOOTH"
);
}
);
width = 663;
}
);
note = uni0440;
unicode = 0440;
},
{
glyphname = "es-cy";
lastChange = "2019-08-11 02:27:54 +0000";
layers = (
{
layerId = "BA196CD0-EE58-4274-B8DF-4393D3617A29";
paths = (
{
closed = 1;
nodes = (
"513 447 LINE",
"437 489 OFFCURVE",
"359 489 QCURVE SMOOTH",
"272 489 OFFCURVE",
"226 431 QCURVE SMOOTH",
"180 374 OFFCURVE",
"180 273 QCURVE",
"187 204 OFFCURVE",
"227 174 QCURVE SMOOTH",
"266 146 OFFCURVE",
"355 141 QCURVE",
"473 141 OFFCURVE",
"511 162 QCURVE",
"513 21 LINE",
"437 -14 OFFCURVE",
"349 -14 QCURVE SMOOTH",
"226 -14 OFFCURVE",
"153 64 QCURVE SMOOTH",
"80 141 OFFCURVE",
"80 273 QCURVE SMOOTH",
"80 406 OFFCURVE",
"154 483 QCURVE SMOOTH",
"227 560 OFFCURVE",
"355 560 QCURVE SMOOTH",
"441 560 OFFCURVE",
"513 526 QCURVE"
);
}
);
width = 593;
}
);
note = uni0441;
unicode = 0441;
},
{
glyphname = "te-cy";
lastChange = "2019-08-11 02:27:54 +0000";
layers = (
{
layerId = "BA196CD0-EE58-4274-B8DF-4393D3617A29";
paths = (
{
closed = 1;
nodes = (
"300 495 LINE",
"80 469 LINE",
"80 552 LINE",
"604 552 LINE",
"604 469 LINE",
"384 495 LINE",
"407 0 LINE",
"278 0 LINE"
);
}
);
width = 684;
}
);
note = uni0442;
unicode = 0442;
},
{
glyphname = "u-cy";
lastChange = "2019-08-11 02:27:54 +0000";
layers = (
{
layerId = "BA196CD0-EE58-4274-B8DF-4393D3617A29";
paths = (
{
closed = 1;
nodes = (
"103 4 LINE",
"190 -64 OFFCURVE",
"253 -58 QCURVE SMOOTH",
"298 -54 OFFCURVE",
"323 -5 QCURVE",
"336 1 LINE",
"80 550 LINE",
"186 550 LINE",
"389 157 LINE",
"519 550 LINE",
"618 550 LINE",
"457 90 LINE",
"410 -62 LINE",
"368 -167 OFFCURVE",
"311 -187 QCURVE SMOOTH",
"245 -210 OFFCURVE",
"112 -173 QCURVE"
);
}
);
width = 698;
}
);
note = uni0443;
unicode = 0443;
},
{
glyphname = "ef-cy";
lastChange = "2019-08-11 02:27:54 +0000";
layers = (
{
layerId = "BA196CD0-EE58-4274-B8DF-4393D3617A29";
paths = (
{
closed = 1;
nodes = (
"375 444 LINE",
"303 445 LINE SMOOTH",
"233 446 OFFCURVE",
"190 401 QCURVE SMOOTH",
"150 361 OFFCURVE",
"149 302 QCURVE SMOOTH",
"147 242 OFFCURVE",
"186 201 QCURVE SMOOTH",
"230 155 OFFCURVE",
"308 154 QCURVE",
"345 150 OFFCURVE",
"371 153 QCURVE"
);
},
{
closed = 1;
nodes = (
"375 518 LINE",
"394 576 LINE",
"460 576 LINE",
"481 518 LINE",
"547 520 LINE SMOOTH",
"792 521 OFFCURVE",
"792 267 QCURVE SMOOTH",
"792 141 OFFCURVE",
"730 73 QCURVE SMOOTH",
"666 4 OFFCURVE",
"544 4 QCURVE SMOOTH",
"489 4 LINE",
"498 -202 LINE",
"362 -202 LINE",
"371 4 LINE",
"328 4 LINE SMOOTH",
"206 4 OFFCURVE",
"143 73 QCURVE SMOOTH",
"80 141 OFFCURVE",
"80 267 QCURVE SMOOTH",
"80 517 OFFCURVE",
"328 517 QCURVE SMOOTH"
);
},
{
closed = 1;
nodes = (
"485 444 LINE",
"489 154 LINE",
"554 154 LINE SMOOTH",
"708 154 OFFCURVE",
"708 311 QCURVE SMOOTH",
"708 444 OFFCURVE",
"554 444 QCURVE SMOOTH"
);
}
);
width = 872;
}
);
note = uni0444;
unicode = 0444;
},
{
glyphname = "ha-cy";
lastChange = "2019-08-11 02:27:54 +0000";
layers = (
{
layerId = "BA196CD0-EE58-4274-B8DF-4393D3617A29";
paths = (
{
closed = 1;
nodes = (
"354 323 LINE",
"519 547 LINE",
"610 547 LINE",
"417 256 LINE",
"630 0 LINE",
"485 0 LINE",
"360 190 LINE",
"225 0 LINE",
"80 0 LINE",
"298 262 LINE",
"108 547 LINE",
"204 547 LINE"
);
}
);
width = 710;
}
);
note = uni0445;
unicode = 0445;
},
{
glyphname = "tse-cy";
lastChange = "2019-08-11 02:27:54 +0000";
layers = (
{
layerId = "BA196CD0-EE58-4274-B8DF-4393D3617A29";
paths = (
{
closed = 1;
nodes = (
"100 0 LINE",
"520 0 LINE",
"493 -126 LINE",
"598 -126 LINE",
"633 107 LINE",
"551 105 LINE",
"546 549 LINE",
"450 549 LINE",
"468 102 LINE",
"181 100 LINE",
"188 548 LINE",
"80 548 LINE",
"98 100 LINE"
);
}
);
width = 713;
}
);
note = uni0446;
unicode = 0446;
},
{
glyphname = "sha-cy";
lastChange = "2019-08-11 02:27:54 +0000";
layers = (
{
layerId = "BA196CD0-EE58-4274-B8DF-4393D3617A29";
paths = (
{
closed = 1;
nodes = (
"80 552 LINE",
"85 0 LINE",
"730 0 LINE",
"725 552 LINE",
"629 552 LINE",
"647 99 LINE",
"468 100 LINE",
"475 528 LINE",
"367 528 LINE",
"385 100 LINE",
"183 98 LINE",
"192 552 LINE"
);
}
);
width = 810;
}
);
note = uni0448;
unicode = 0448;
},
{
glyphname = "shcha-cy";
lastChange = "2019-08-11 02:27:54 +0000";
layers = (
{
layerId = "BA196CD0-EE58-4274-B8DF-4393D3617A29";
paths = (
{
closed = 1;
nodes = (
"80 552 LINE",
"85 0 LINE",
"688 0 LINE",
"655 -166 LINE",
"777 -166 LINE",
"812 104 LINE",
"729 102 LINE",
"725 552 LINE",
"629 552 LINE",
"647 99 LINE",
"468 100 LINE",
"475 528 LINE",
"367 528 LINE",
"385 100 LINE",
"183 98 LINE",
"192 552 LINE"
);
}
);
width = 892;
}
);
note = uni0449;
unicode = 0449;
},
{
glyphname = "softsign-cy";
lastChange = "2019-08-11 02:27:54 +0000";
layers = (
{
layerId = "BA196CD0-EE58-4274-B8DF-4393D3617A29";
paths = (
{
closed = 1;
nodes = (
"165 554 LINE",
"90 554 LINE",
"80 0 LINE",
"289 0 LINE SMOOTH",
"527 0 OFFCURVE",
"527 166 QCURVE SMOOTH",
"527 339 OFFCURVE",
"289 339 QCURVE SMOOTH",
"175 339 LINE"
);
},
{
closed = 1;
nodes = (
"179 98 LINE",
"170 281 LINE",
"299 282 LINE SMOOTH",
"446 286 OFFCURVE",
"446 195 QCURVE SMOOTH",
"446 151 OFFCURVE",
"408 125 QCURVE SMOOTH",
"368 98 OFFCURVE",
"299 98 QCURVE SMOOTH"
);
}
);
width = 607;
}
);
note = uni044C;
unicode = 044C;
},
{
glyphname = "hardsign-cy";
lastChange = "2019-08-11 02:27:54 +0000";
layers = (
{
layerId = "BA196CD0-EE58-4274-B8DF-4393D3617A29";
paths = (
{
closed = 1;
nodes = (
"319 547 LINE",
"106 548 LINE",
"80 455 LINE",
"228 457 LINE",
"237 0 LINE",
"440 0 LINE SMOOTH",
"671 0 OFFCURVE",
"671 164 QCURVE SMOOTH",
"671 335 OFFCURVE",
"440 335 QCURVE SMOOTH",
"328 335 LINE"
);
},
{
closed = 1;
nodes = (
"333 97 LINE",
"329 282 LINE",
"449 282 LINE SMOOTH",
"517 282 OFFCURVE",
"555 256 QCURVE SMOOTH",
"593 230 OFFCURVE",
"593 185 QCURVE SMOOTH",
"593 145 OFFCURVE",
"555 121 QCURVE SMOOTH",
"516 97 OFFCURVE",
"449 97 QCURVE SMOOTH"
);
}
);
width = 751;
}
);
note = uni044A;
unicode = 044A;
},
{
glyphname = "yeru-cy";
lastChange = "2019-08-11 02:27:54 +0000";
layers = (
{
layerId = "BA196CD0-EE58-4274-B8DF-4393D3617A29";
paths = (
{
closed = 1;
nodes = (
"627 0 LINE",
"633 91 OFFCURVE",
"645 547 QCURVE",
"723 547 LINE",
"730 91 OFFCURVE",
"736 0 QCURVE"
);
},
{
closed = 1;
nodes = (
"189 547 LINE",
"80 547 LINE",
"108 0 LINE",
"308 0 LINE SMOOTH",
"538 0 OFFCURVE",
"538 164 QCURVE SMOOTH",
"538 335 OFFCURVE",
"308 335 QCURVE SMOOTH",
"198 335 LINE"
);
},
{
closed = 1;
nodes = (
"203 97 LINE",
"194 282 LINE",
"318 282 LINE SMOOTH",
"384 282 OFFCURVE",
"423 257 QCURVE SMOOTH",
"460 233 OFFCURVE",
"460 193 QCURVE SMOOTH",
"460 151 OFFCURVE",
"423 125 QCURVE SMOOTH",
"384 97 OFFCURVE",
"318 97 QCURVE SMOOTH"
);
}
);
width = 816;
}
);
note = uni044B;
unicode = 044B;
},
{
glyphname = "ereversed-cy";
lastChange = "2019-08-11 02:27:54 +0000";
layers = (
{
layerId = "BA196CD0-EE58-4274-B8DF-4393D3617A29";
paths = (
{
closed = 1;
nodes = (
"442 179 OFFCURVE",
"402 147 QCURVE SMOOTH",
"351 106 OFFCURVE",
"266 106 QCURVE SMOOTH",
"161 106 OFFCURVE",
"80 172 QCURVE",
"80 50 LINE",
"164 0 OFFCURVE",
"271 0 QCURVE SMOOTH",
"406 0 OFFCURVE",
"485 77 QCURVE SMOOTH",
"563 153 OFFCURVE",
"563 279 QCURVE SMOOTH",
"563 404 OFFCURVE",
"485 476 QCURVE SMOOTH",
"407 549 OFFCURVE",
"271 549 QCURVE SMOOTH",
"164 549 OFFCURVE",
"80 499 QCURVE",
"80 425 LINE",
"160 491 OFFCURVE",
"266 491 QCURVE SMOOTH",
"349 491 OFFCURVE",
"403 437 QCURVE SMOOTH",
"446 394 OFFCURVE",
"458 317 QCURVE",
"236 317 LINE",
"236 248 LINE",
"456 249 LINE"
);
}
);
width = 643;
}
);
note = uni044D;
unicode = 044D;
},
{
glyphname = "iu-cy";
lastChange = "2019-08-11 02:27:54 +0000";
layers = (
{
layerId = "BA196CD0-EE58-4274-B8DF-4393D3617A29";
paths = (
{
closed = 1;
nodes = (
"428 498 OFFCURVE",
"382 436 QCURVE SMOOTH",
"337 375 OFFCURVE",
"337 270 QCURVE SMOOTH",
"337 191 OFFCURVE",
"389 147 QCURVE SMOOTH",
"437 107 OFFCURVE",
"511 107 QCURVE SMOOTH",
"589 107 OFFCURVE",
"633 147 QCURVE SMOOTH",
"679 189 OFFCURVE",
"679 270 QCURVE SMOOTH",
"679 498 OFFCURVE",
"512 498 QCURVE SMOOTH"
);
},
{
closed = 1;
nodes = (
"169 229 LINE",
"164 -3 LINE",
"87 -3 LINE",
"80 548 LINE",
"180 548 LINE",
"171 303 LINE",
"250 298 LINE",
"271 551 OFFCURVE",
"512 551 QCURVE SMOOTH",
"765 551 OFFCURVE",
"765 270 QCURVE SMOOTH",
"765 -4 OFFCURVE",
"512 -4 QCURVE SMOOTH",
"255 -4 OFFCURVE",
"248 236 QCURVE"
);
}
);
width = 845;
}
);
note = uni044E;
unicode = 044E;
},
{
glyphname = "ia-cy";
lastChange = "2019-08-11 02:27:54 +0000";
layers = (
{
layerId = "BA196CD0-EE58-4274-B8DF-4393D3617A29";
paths = (
{
closed = 1;
nodes = (
"212 241 OFFCURVE",
"162 149 QCURVE SMOOTH",
"80 0 LINE",
"194 0 LINE",
"254 140 LINE",
"283 194 OFFCURVE",
"311 213 QCURVE SMOOTH",
"338 231 OFFCURVE",
"386 231 QCURVE SMOOTH",
"447 231 LINE",
"447 0 LINE",
"543 0 LINE",
"543 547 LINE",
"361 547 LINE SMOOTH",
"171 547 OFFCURVE",
"171 389 QCURVE SMOOTH",
"171 284 OFFCURVE",
"261 257 QCURVE"
);
},
{
closed = 1;
nodes = (
"454 508 LINE",
"454 307 LINE",
"353 307 LINE SMOOTH",
"306 307 OFFCURVE",
"268 331 QCURVE SMOOTH",
"228 357 OFFCURVE",
"228 389 QCURVE SMOOTH",
"228 508 OFFCURVE",
"353 508 QCURVE SMOOTH"
);
}
);
width = 623;
}
);
note = uni044F;
unicode = 044F;
},
{
glyphname = "yat-cy";
lastChange = "2019-08-15 16:33:49 +0000";
layers = (
{
anchors = (
{
name = _hook_top;
position = "{130, 778}";
},
{
name = bottom;
position = "{327, -37}";
},
{
name = top;
position = "{327, 800}";
},
{
name = top_hook;
position = "{128, 717}";
}
);
components = (
{
name = hyphen;
transform = "{0.94797, 0, 0, 0.71884, -98, 296}";
}
);
hints = (
{
place = "{99, 65}";
type = Stem;
}
);
layerId = "BA196CD0-EE58-4274-B8DF-4393D3617A29";
paths = (
{
closed = 1;
nodes = (
"474 156 OFFCURVE",
"411 128 OFFCURVE",
"345 128 CURVE",
"236 128 OFFCURVE",
"208 126 OFFCURVE",
"208 201 CURVE SMOOTH",
"208 318 OFFCURVE",
"208 321 OFFCURVE",
"360 321 CURVE SMOOTH",
"456 321 OFFCURVE",
"475 234 OFFCURVE",
"475 209 CURVE"
);
},
{
closed = 1;
nodes = (
"186 -23 OFFCURVE",
"209 -13 OFFCURVE",
"348 -14 CURVE SMOOTH",
"513 -15 OFFCURVE",
"543 -18 OFFCURVE",
"543 208 CURVE SMOOTH",
"543 279 OFFCURVE",
"498 377 OFFCURVE",
"339 377 CURVE SMOOTH",
"191 377 OFFCURVE",
"173 392 OFFCURVE",
"180 558 CURVE SMOOTH",
"186 708 LINE",
"92 708 LINE",
"92 247 OFFCURVE",
"81 58 OFFCURVE",
"133 18 CURVE SMOOTH"
);
}
);
width = 653;
}
);
unicode = 0463;
},
{
glyphname = "ustraight-cy";
lastChange = "2019-08-15 21:39:50 +0000";
layers = (
{
anchors = (
{
name = bottom;
position = "{382, 0}";
},
{
name = top;
position = "{382, 785}";
},
{
name = top_hook;
position = "{735, 500}";
},
{
name = topleft;
position = "{25, 700}";
}
);
layerId = "BA196CD0-EE58-4274-B8DF-4393D3617A29";
paths = (
{
closed = 1;
nodes = (
"314 -200 LINE",
"447 -200 LINE",
"447 -5 LINE",
"634 516 LINE",
"528 516 LINE",
"383 101 LINE",
"236 516 LINE",
"130 516 LINE",
"314 -5 LINE"
);
}
);
width = 764;
}
);
unicode = 04AF;
},
{
glyphname = "shhadescender-cy";
lastChange = "2019-08-15 23:17:27 +0000";
layers = (
{
components = (
{
name = h;
}
);
layerId = "BA196CD0-EE58-4274-B8DF-4393D3617A29";
paths = (
{
closed = 1;
nodes = (
"567 -87 LINE",
"640 -87 LINE",
"640 90 LINE",
"567 90 LINE"
);
}
);
width = 676;
}
);
unicode = 0527;
},
{
glyphname = "palochka-cy";
lastChange = "2019-08-15 21:38:09 +0000";
layers = (
{
layerId = "BA196CD0-EE58-4274-B8DF-4393D3617A29";
paths = (
{
closed = 1;
nodes = (
"246 0 LINE",
"350 0 LINE",
"330 700 LINE",
"226 700 LINE"
);
}
);
width = 600;
}
);
unicode = 04CF;
},
{
glyphname = "chekhakassian-cy";
lastChange = "2019-08-15 23:58:20 +0000";
layers = (
{
components = (
{
name = "che-cy";
}
);
layerId = "BA196CD0-EE58-4274-B8DF-4393D3617A29";
paths = (
{
closed = 1;
nodes = (
"257 -111 LINE",
"324 -111 LINE",
"324 84 LINE",
"257 84 LINE"
);
}
);
width = 618;
}
);
unicode = 04CC;
},
{
glyphname = Gamma;
lastChange = "2019-08-11 02:27:54 +0000";
layers = (
{
layerId = "BA196CD0-EE58-4274-B8DF-4393D3617A29";
paths = (
{
closed = 1;
nodes = (
"191 -44 LINE",
"152 745 LINE",
"82 745 LINE",
"80 -44 LINE"
);
},
{
closed = 1;
nodes = (
"490 647 LINE",
"490 746 LINE",
"85 746 LINE",
"85 646 LINE"
);
}
);
width = 570;
}
);
unicode = 0393;
},
{
glyphname = Delta;
lastChange = "2019-08-11 02:27:54 +0000";
layers = (
{
layerId = "BA196CD0-EE58-4274-B8DF-4393D3617A29";
paths = (
{
closed = 1;
nodes = (
"80 89 LINE",
"80 -10 LINE",
"780 -10 LINE",
"780 89 LINE"
);
},
{
closed = 1;
nodes = (
"80 89 LINE",
"182 -10 LINE",
"481 708 LINE",
"375 715 LINE"
);
},
{
closed = 1;
nodes = (
"671 -10 LINE",
"780 89 LINE",
"481 711 LINE",
"375 715 LINE"
);
}
);
width = 860;
}
);
unicode = 0394;
},
{
glyphname = Xi;
lastChange = "2019-08-11 02:27:54 +0000";
layers = (
{
layerId = "BA196CD0-EE58-4274-B8DF-4393D3617A29";
paths = (
{
closed = 1;
nodes = (
"118 629 LINE",
"646 629 LINE",
"646 709 LINE",
"118 709 LINE"
);
},
{
closed = 1;
nodes = (
"209 285 LINE",
"554 285 LINE",
"554 365 LINE",
"209 365 LINE"
);
},
{
closed = 1;
nodes = (
"80 0 LINE",
"683 0 LINE",
"683 108 LINE",
"80 108 LINE"
);
}
);
width = 763;
}
);
unicode = 039E;
},
{
glyphname = Pi;
lastChange = "2019-08-11 02:27:54 +0000";
layers = (
{
layerId = "BA196CD0-EE58-4274-B8DF-4393D3617A29";
paths = (
{
closed = 1;
nodes = (
"80 0 LINE",
"167 0 LINE",
"167 700 LINE",
"80 700 LINE"
);
},
{
closed = 1;
nodes = (
"91 638 LINE",
"526 638 LINE",
"526 700 LINE",
"91 700 LINE"
);
},
{
closed = 1;
nodes = (
"457 0 LINE",
"544 0 LINE",
"544 700 LINE",
"457 700 LINE"
);
}
);
width = 624;
}
);
unicode = 03A0;
},
{
glyphname = Psi;
lastChange = "2019-08-15 15:02:51 +0000";
layers = (
{
components = (
{
name = bar;
transform = "{1, 0, 0, 1, 266, 83}";
}
);
layerId = "BA196CD0-EE58-4274-B8DF-4393D3617A29";
paths = (
{
closed = 1;
nodes = (
"90 502 OFFCURVE",
"91 290 OFFCURVE",
"411 284 CURVE",
"714 291 OFFCURVE",
"721 504 OFFCURVE",
"732 779 CURVE",
"643 779 LINE",
"666 580 OFFCURVE",
"586 392 OFFCURVE",
"400 392 CURVE SMOOTH",
"218 392 OFFCURVE",
"131 574 OFFCURVE",
"176 779 CURVE",
"80 779 LINE"
);
}
);
width = 812;
}
);
unicode = 03A8;
},
{
glyphname = Omega;
lastChange = "2019-08-16 18:30:19 +0000";
layers = (
{
anchors = (
{
name = _greek_top;
position = "{58, 678}";
},
{
name = bottom;
position = "{434, -33}";
},
{
name = center;
position = "{436, 350}";
},
{
name = horn;
position = "{707, 547}";
},
{
name = mark;
position = "{434, -35}";
},
{
name = ogonek;
position = "{766, 10}";
},
{
name = polycase;
position = "{60, 648}";
},
{
name = top;
position = "{436, 729}";
},
{
name = topleft;
position = "{58, 648}";
},
{
name = topright;
position = "{828, 700}";
}
);
layerId = "BA196CD0-EE58-4274-B8DF-4393D3617A29";
paths = (
{
closed = 1;
nodes = (
"579 672 OFFCURVE",
"669 548 OFFCURVE",
"669 364 CURVE SMOOTH",
"669 264 OFFCURVE",
"609 148 OFFCURVE",
"507 116 CURVE",
"500 63 OFFCURVE",
"496 30 OFFCURVE",
"496 -12 CURVE",
"356 -12 LINE",
"356 30 OFFCURVE",
"355 49 OFFCURVE",
"347 111 CURVE",
"242 101 OFFCURVE",
"202 264 OFFCURVE",
"202 364 CURVE SMOOTH",
"202 548 OFFCURVE",
"293 672 OFFCURVE",
"436 672 CURVE SMOOTH"
);
},
{
closed = 1;
nodes = (
"231 742 OFFCURVE",
"98 594 OFFCURVE",
"98 364 CURVE SMOOTH",
"98 179 OFFCURVE",
"174 144 OFFCURVE",
"213 102 CURVE",
"161 96 OFFCURVE",
"116 90 OFFCURVE",
"80 83 CURVE",
"80 55 OFFCURVE",
"80 24 OFFCURVE",
"80 -12 CURVE",
"104 -13 OFFCURVE",
"136 -12 OFFCURVE",
"178 -12 CURVE SMOOTH",
"660 -12 LINE SMOOTH",
"698 -12 OFFCURVE",
"759 -16 OFFCURVE",
"778 -12 CURVE",
"778 29 OFFCURVE",
"778 42 OFFCURVE",
"778 83 CURVE",
"741 88 OFFCURVE",
"735 88 OFFCURVE",
"645 102 CURVE",
"709 144 OFFCURVE",
"773 176 OFFCURVE",
"773 364 CURVE SMOOTH",
"773 594 OFFCURVE",
"641 742 OFFCURVE",
"436 742 CURVE SMOOTH"
);
}
);
width = 858;
}
);
unicode = 03A9;
},
{
glyphname = Heta;
lastChange = "2019-08-16 18:32:29 +0000";
layers = (
{
anchors = (
{
name = bottom;
position = "{386, 0}";
},
{
name = center;
position = "{383, 365}";
},
{
name = greek_top;
position = "{46, 654}";
},
{
name = top;
position = "{383, 729}";
},
{
name = top_hook;
position = "{-29, 473}";
},
{
name = topleft;
position = "{25, 700}";
}
);
layerId = "BA196CD0-EE58-4274-B8DF-4393D3617A29";
paths = (
{
closed = 1;
nodes = (
"80 0 LINE",
"232 0 LINE",
"204 729 LINE",
"100 729 LINE"
);
},
{
closed = 1;
nodes = (
"445 332 LINE",
"181 332 LINE",
"181 187 LINE",
"445 187 LINE"
);
}
);
width = 771;
}
);
unicode = 0370;
},
{
glyphname = KoppaArchaic;
lastChange = "2019-08-16 18:33:03 +0000";
layers = (
{
components = (
{
name = O;
}
);
layerId = "BA196CD0-EE58-4274-B8DF-4393D3617A29";
paths = (
{
closed = 1;
nodes = (
"379 -115 LINE",
"459 -115 LINE",
"459 12 LINE",
"379 12 LINE"
);
}
);
width = 835;
}
);
unicode = 03D8;
},
{
glyphname = Stigma;
lastChange = "2019-08-16 18:45:41 +0000";
layers = (
{
layerId = "BA196CD0-EE58-4274-B8DF-4393D3617A29";
paths = (
{
closed = 1;
nodes = (
"458 722 LINE",
"491 655 LINE",
"506 764 LINE",
"458 764 LINE"
);
},
{
closed = 1;
nodes = (
"136 -47 OFFCURVE",
"136 -76 OFFCURVE",
"136 -111 CURVE",
"439 -111 OFFCURVE",
"501 -27 OFFCURVE",
"501 64 CURVE SMOOTH",
"501 348 OFFCURVE",
"36 98 OFFCURVE",
"5 306 CURVE SMOOTH",
"-78 864 OFFCURVE",
"373 655 OFFCURVE",
"491 655 CURVE",
"475 682 OFFCURVE",
"470 700 OFFCURVE",
"458 722 CURVE",
"326 722 OFFCURVE",
"-112 885 OFFCURVE",
"-91 361 CURVE SMOOTH",
"-85 216 OFFCURVE",
"-1 144 OFFCURVE",
"40 120 CURVE SMOOTH",
"160 50 OFFCURVE",
"407 140 OFFCURVE",
"409 64 CURVE SMOOTH",
"411 -15 OFFCURVE",
"221 -24 OFFCURVE",
"136 -12 CURVE"
);
}
);
width = 571;
}
);
unicode = 03DA;
},
{
glyphname = Koppa;
lastChange = "2019-08-16 18:47:19 +0000";
layers = (
{
layerId = "BA196CD0-EE58-4274-B8DF-4393D3617A29";
paths = (
{
closed = 1;
nodes = (
"60 315 LINE",
"145 315 LINE",
"335 700 LINE",
"250 700 LINE"
);
},
{
closed = 1;
nodes = (
"223 0 LINE",
"317 0 LINE",
"516 409 LINE",
"422 409 LINE"
);
},
{
closed = 1;
nodes = (
"60 315 LINE",
"470 315 LINE",
"516 409 LINE",
"104 409 LINE"
);
}
);
width = 600;
}
);
unicode = 03DE;
},
{
glyphname = KaiSymbol;
lastChange = "2019-08-11 02:27:54 +0000";
layers = (
{
anchors = (
{
name = _bottom;
position = "{365, 0}";
},
{
name = bottom;
position = "{365, -184}";
}
);
components = (
{
name = K;
}
);
layerId = "BA196CD0-EE58-4274-B8DF-4393D3617A29";
paths = (
{
closed = 1;
nodes = (
"650 -17 OFFCURVE",
"648 0 OFFCURVE",
"626 17 CURVE",
"445 -232 OFFCURVE",
"328 -200 OFFCURVE",
"111 -108 CURVE",
"108 -117 OFFCURVE",
"114 -143 OFFCURVE",
"111 -159 CURVE",
"332 -270 OFFCURVE",
"526 -272 OFFCURVE",
"676 -26 CURVE"
);
}
);
width = 756;
}
);
unicode = 03CF;
},
{
glyphname = Sho;
lastChange = "2019-08-16 18:42:41 +0000";
layers = (
{
layerId = "BA196CD0-EE58-4274-B8DF-4393D3617A29";
paths = (
{
closed = 1;
nodes = (
"96 -180 LINE",
"184 -180 LINE",
"168 800 LINE",
"80 800 LINE"
);
},
{
closed = 1;
nodes = (
"296 -59 OFFCURVE",
"541 49 OFFCURVE",
"541 371 CURVE SMOOTH",
"541 664 OFFCURVE",
"290 694 OFFCURVE",
"146 694 CURVE",
"82 556 OFFCURVE",
"85 79 OFFCURVE",
"151 -59 CURVE"
);
},
{
closed = 1;
nodes = (
"150 28 OFFCURVE",
"104 235 OFFCURVE",
"107 375 CURVE SMOOTH",
"109 460 OFFCURVE",
"140 617 OFFCURVE",
"193 617 CURVE SMOOTH",
"245 617 OFFCURVE",
"470 589 OFFCURVE",
"470 375 CURVE SMOOTH",
"470 133 OFFCURVE",
"255 28 OFFCURVE",
"203 28 CURVE SMOOTH"
);
}
);
width = 560;
}
);
unicode = 03F7;
},
{
glyphname = alpha;
lastChange = "2019-08-11 02:27:54 +0000";
layers = (
{
components = (
{
name = a;
}
);
layerId = "BA196CD0-EE58-4274-B8DF-4393D3617A29";
paths = (
{
closed = 1;
nodes = (
"396 -40 OFFCURVE",
"496 -17 OFFCURVE",
"666 3 CURVE",
"670 25 OFFCURVE",
"674 60 OFFCURVE",
"674 111 CURVE",
"559 60 OFFCURVE",
"527 86 OFFCURVE",
"503 167 CURVE"
);
}
);
width = 754;
}
);
unicode = 03B1;
},
{
glyphname = beta;
lastChange = "2019-08-11 02:27:54 +0000";
layers = (
{
anchors = (
{
name = bottom;
position = "{344, 0}";
},
{
name = top;
position = "{344, 700}";
}
);
layerId = "BA196CD0-EE58-4274-B8DF-4393D3617A29";
paths = (
{
closed = 1;
nodes = (
"81 -200 LINE",
"179 -200 LINE",
"179 574 LINE",
"81 574 LINE"
);
},
{
closed = 1;
nodes = (
"283 348 LINE",
"337 348 LINE SMOOTH",
"390 348 OFFCURVE",
"430 338 OFFCURVE",
"455 316 CURVE SMOOTH",
"481 293 OFFCURVE",
"498 268 OFFCURVE",
"498 248 CURVE SMOOTH",
"498 160 OFFCURVE",
"435 103 OFFCURVE",
"337 145 CURVE SMOOTH",
"179 212 LINE",
"179 574 LINE",
"179 574 LINE",
"248 747 OFFCURVE",
"468 612 OFFCURVE",
"468 538 CURVE SMOOTH",
"468 464 OFFCURVE",
"421 428 OFFCURVE",
"325 428 CURVE SMOOTH",
"283 428 LINE"
);
},
{
closed = 1;
nodes = (
"342 0 LINE SMOOTH",
"496 -66 OFFCURVE",
"607 0 OFFCURVE",
"607 204 CURVE SMOOTH",
"607 303 OFFCURVE",
"549 372 OFFCURVE",
"420 393 CURVE",
"500 406 OFFCURVE",
"543 459 OFFCURVE",
"543 549 CURVE SMOOTH",
"543 664 OFFCURVE",
"227 917 OFFCURVE",
"81 574 CURVE",
"81 574 LINE",
"80 113 LINE"
);
}
);
width = 687;
}
);
unicode = 03B2;
},
{
glyphname = gamma;
lastChange = "2019-08-11 02:27:54 +0000";
layers = (
{
anchors = (
{
name = bottom;
position = "{346, 0}";
},
{
name = top;
position = "{303, 547}";
}
);
layerId = "BA196CD0-EE58-4274-B8DF-4393D3617A29";
paths = (
{
closed = 1;
nodes = (
"435 -44 LINE",
"546 184 OFFCURVE",
"606 274 OFFCURVE",
"575 549 CURVE",
"474 549 LINE",
"503 358 OFFCURVE",
"455 188 OFFCURVE",
"387 146 CURVE",
"175 547 LINE",
"80 547 LINE",
"262 144 LINE",
"290 0 LINE"
);
},
{
closed = 1;
nodes = (
"330 -294 LINE",
"468 -275 LINE",
"418 82 LINE",
"280 63 LINE"
);
}
);
width = 663;
}
);
unicode = 03B3;
},
{
glyphname = delta;
lastChange = "2019-08-11 02:27:54 +0000";
layers = (
{
layerId = "BA196CD0-EE58-4274-B8DF-4393D3617A29";
paths = (
{
closed = 1;
nodes = (
"266 394 OFFCURVE",
"206 329 OFFCURVE",
"206 234 CURVE SMOOTH",
"206 168 OFFCURVE",
"262 116 OFFCURVE",
"350 116 CURVE SMOOTH",
"439 116 OFFCURVE",
"495 168 OFFCURVE",
"495 234 CURVE SMOOTH",
"495 329 OFFCURVE",
"441 394 OFFCURVE",
"350 394 CURVE SMOOTH"
);
},
{
closed = 1;
nodes = (
"80 119 OFFCURVE",
"80 247 CURVE SMOOTH",
"80 357 OFFCURVE",
"159 474 OFFCURVE",
"316 474 CURVE SMOOTH",
"329 474 OFFCURVE",
"342 474 OFFCURVE",
"356 472 CURVE",
"192 569 OFFCURVE",
"101 651 OFFCURVE",
"101 730 CURVE SMOOTH",
"101 797 OFFCURVE",
"181 840 OFFCURVE",
"324 840 CURVE SMOOTH",
"382 840 OFFCURVE",
"454 832 OFFCURVE",
"540 813 CURVE",
"540 722 LINE",
"421 744 OFFCURVE",
"399 750 OFFCURVE",
"351 758 CURVE SMOOTH",
"311 765 OFFCURVE",
"208 780 OFFCURVE",
"197 730 CURVE SMOOTH",
"186 679 OFFCURVE",
"275 633 OFFCURVE",
"324 597 CURVE SMOOTH",
"376 558 OFFCURVE",
"406 545 OFFCURVE",
"480 473 CURVE SMOOTH",
"579 377 OFFCURVE",
"611 314 OFFCURVE",
"611 239 CURVE SMOOTH",
"611 92 OFFCURVE",
"495 -14 OFFCURVE",
"350 -14 CURVE SMOOTH",
"170 -14 OFFCURVE"
);
}
);
width = 691;
}
);
unicode = 03B4;
},
{
glyphname = zeta;
lastChange = "2019-08-11 02:27:54 +0000";
layers = (
{
layerId = "BA196CD0-EE58-4274-B8DF-4393D3617A29";
paths = (
{
closed = 1;
nodes = (
"135 655 LINE",
"491 655 LINE",
"491 722 LINE",
"135 722 LINE"
);
},
{
closed = 1;
nodes = (
"255 -116 OFFCURVE",
"331 -111 OFFCURVE",
"373 -111 CURVE",
"491 -1 OFFCURVE",
"502 182 OFFCURVE",
"409 197 CURVE SMOOTH",
"148 238 OFFCURVE",
"166 295 OFFCURVE",
"180 358 CURVE SMOOTH",
"206 477 OFFCURVE",
"373 655 OFFCURVE",
"491 655 CURVE",
"491 682 OFFCURVE",
"491 688 OFFCURVE",
"491 722 CURVE",
"359 722 OFFCURVE",
"166 548 OFFCURVE",
"116 439 CURVE SMOOTH",
"90 382 OFFCURVE",
"38 279 OFFCURVE",
"145 201 CURVE SMOOTH",
"256 120 OFFCURVE",
"288 137 OFFCURVE",
"321 121 CURVE SMOOTH",
"409 78 OFFCURVE",
"280 -37 OFFCURVE",
"223 -111 CURVE"
);
}
);
width = 571;
}
);
unicode = 03B6;
},
{
glyphname = eta;
lastChange = "2019-08-11 02:27:54 +0000";
layers = (
{
anchors = (
{
name = bottom;
position = "{382, 0}";
},
{
name = top;
position = "{382, 547}";
}
);
layerId = "BA196CD0-EE58-4274-B8DF-4393D3617A29";
paths = (
{
closed = 1;
nodes = (
"621 497 OFFCURVE",
"550 555 OFFCURVE",
"425 555 CURVE SMOOTH",
"349 555 OFFCURVE",
"307 524 OFFCURVE",
"264 495 CURVE",
"244 565 LINE SMOOTH",
"240 578 OFFCURVE",
"202 611 OFFCURVE",
"164 611 CURVE SMOOTH",
"117 611 OFFCURVE",
"80 611 OFFCURVE",
"80 593 CURVE SMOOTH",
"80 547 LINE",
"103 547 OFFCURVE",
"172 559 OFFCURVE",
"168 484 CURVE SMOOTH",
"141 0 LINE",
"279 0 LINE",
"255 314 LINE SMOOTH",
"247 419 OFFCURVE",
"305 482 OFFCURVE",
"415 482 CURVE SMOOTH",
"495 482 OFFCURVE",
"547 439 OFFCURVE",
"542 339 CURVE SMOOTH",
"511 -241 LINE",
"650 -241 LINE",
"628 323 LINE SMOOTH"
);
}
);
width = 730;
}
);
unicode = 03B7;
},
{
glyphname = theta;
lastChange = "2019-08-12 13:49:58 +0000";
layers = (
{
layerId = "BA196CD0-EE58-4274-B8DF-4393D3617A29";
paths = (
{
closed = 1;
nodes = (
"437 703 OFFCURVE",
"490 614 OFFCURVE",
"490 435 CURVE",
"477 256 OFFCURVE",
"436 167 OFFCURVE",
"334 167 CURVE",
"233 167 OFFCURVE",
"184 250 OFFCURVE",
"184 435 CURVE SMOOTH",
"184 614 OFFCURVE",
"234 703 OFFCURVE",
"335 703 CURVE SMOOTH"
);
},
{
closed = 1;
nodes = (
"172 742 OFFCURVE",
"80 614 OFFCURVE",
"80 364 CURVE",
"80 118 OFFCURVE",
"171 -14 OFFCURVE",
"334 -14 CURVE SMOOTH",
"498 -14 OFFCURVE",
"584 118 OFFCURVE",
"584 364 CURVE",
"584 614 OFFCURVE",
"499 742 OFFCURVE",
"335 742 CURVE SMOOTH"
);
},
{
closed = 1;
nodes = (
"161 362 LINE",
"521 362 LINE",
"521 440 LINE",
"161 440 LINE"
);
}
);
width = 664;
}
);
unicode = 03B8;
},
{
glyphname = iota;
lastChange = "2019-08-16 18:21:50 +0000";
layers = (
{
anchors = (
{
name = bottom;
position = "{181, -152}";
},
{
name = top;
position = "{149, 566}";
}
);
components = (
{
name = idotless;
transform = "{1, 0, 0, 1, 4, 0}";
}
);
layerId = "BA196CD0-EE58-4274-B8DF-4393D3617A29";
paths = (
{
closed = 1;
nodes = (
"282 -121 LINE",
"282 -93 OFFCURVE",
"282 -107 OFFCURVE",
"282 -51 CURVE",
"248 -54 OFFCURVE",
"210 -58 OFFCURVE",
"204 4 CURVE",
"84 4 LINE",
"84 -28 LINE SMOOTH",
"84 -78 OFFCURVE",
"94 -121 OFFCURVE",
"148 -121 CURVE SMOOTH"
);
}
);
width = 358;
}
);
unicode = 03B9;
},
{
glyphname = nu;
lastChange = "2019-08-11 02:27:54 +0000";
layers = (
{
anchors = (
{
name = bottom;
position = "{377, 0}";
},
{
name = top;
position = "{377, 500}";
}
);
layerId = "BA196CD0-EE58-4274-B8DF-4393D3617A29";
paths = (
{
closed = 1;
nodes = (
"474 0 LINE",
"574 293 OFFCURVE",
"606 274 OFFCURVE",
"575 549 CURVE",
"474 549 LINE",
"503 358 OFFCURVE",
"455 188 OFFCURVE",
"387 146 CURVE",
"175 547 LINE",
"80 547 LINE",
"262 144 LINE",
"290 0 LINE"
);
}
);
width = 666;
}
);
unicode = 03BD;
},
{
glyphname = xi;
lastChange = "2019-08-11 02:27:54 +0000";
layers = (
{
layerId = "BA196CD0-EE58-4274-B8DF-4393D3617A29";
paths = (
{
closed = 1;
nodes = (
"80 655 LINE",
"436 655 LINE",
"436 722 LINE",
"80 722 LINE"
);
},
{
closed = 1;
nodes = (
"280 -116 OFFCURVE",
"356 -111 OFFCURVE",
"398 -111 CURVE",
"416 -85 OFFCURVE",
"478 -21 OFFCURVE",
"478 49 CURVE SMOOTH",
"478 98 OFFCURVE",
"441 196 OFFCURVE",
"342 196 CURVE SMOOTH",
"198 196 OFFCURVE",
"187 360 OFFCURVE",
"404 360 CURVE",
"404 417 OFFCURVE",
"410 374 OFFCURVE",
"404 417 CURVE",
"17 433 OFFCURVE",
"318 655 OFFCURVE",
"436 655 CURVE",
"436 682 OFFCURVE",
"436 688 OFFCURVE",
"436 722 CURVE",
"304 722 OFFCURVE",
"136 588 OFFCURVE",
"140 500 CURVE SMOOTH",
"143 436 OFFCURVE",
"138 453 OFFCURVE",
"214 365 CURVE",
"107 303 OFFCURVE",
"143 132 OFFCURVE",
"255 129 CURVE SMOOTH",
"496 123 OFFCURVE",
"329 -25 OFFCURVE",
"248 -111 CURVE"
);
}
);
width = 558;
}
);
unicode = 03BE;
},
{
glyphname = pi;
lastChange = "2019-08-11 02:27:54 +0000";
layers = (
{
layerId = "BA196CD0-EE58-4274-B8DF-4393D3617A29";
paths = (
{
closed = 1;
nodes = (
"80 430 LINE",
"637 430 LINE",
"637 504 LINE",
"80 504 LINE"
);
},
{
closed = 1;
nodes = (
"148 0 LINE",
"240 0 LINE",
"277 432 LINE",
"185 432 LINE"
);
},
{
closed = 1;
nodes = (
"401 117 LINE",
"492 117 LINE",
"536 477 LINE",
"445 477 LINE"
);
},
{
closed = 1;
nodes = (
"588 19 OFFCURVE",
"588 33 OFFCURVE",
"588 74 CURVE",
"539 74 OFFCURVE",
"485 65 OFFCURVE",
"492 120 CURVE SMOOTH",
"501 187 OFFCURVE",
"467 166 OFFCURVE",
"456 191 CURVE SMOOTH",
"445 216 OFFCURVE",
"409 164 OFFCURVE",
"401 117 CURVE SMOOTH",
"379 -12 OFFCURVE",
"403 -3 OFFCURVE",
"588 -3 CURVE"
);
}
);
width = 717;
}
);
unicode = 03C0;
},
{
glyphname = rho;
lastChange = "2019-08-16 18:29:26 +0000";
layers = (
{
anchors = (
{
name = bottom;
position = "{366, 0}";
},
{
name = top;
position = "{390, 542}";
},
{
name = top_hook;
position = "{188, 202}";
}
);
hints = (
{
place = "{141, 115}";
type = Stem;
},
{
horizontal = 1;
place = "{497, 63}";
type = Stem;
},
{
horizontal = 1;
place = "{-3, 140}";
type = Stem;
},
{
place = "{562, 63}";
type = Stem;
}
);
layerId = "BA196CD0-EE58-4274-B8DF-4393D3617A29";
paths = (
{
closed = 1;
nodes = (
"289 17 OFFCURVE",
"347 -14 OFFCURVE",
"427 -14 CURVE SMOOTH",
"560 -14 OFFCURVE",
"651 101 OFFCURVE",
"651 273 CURVE SMOOTH",
"651 438 OFFCURVE",
"560 553 OFFCURVE",
"427 553 CURVE SMOOTH",
"347 553 OFFCURVE",
"212 500 OFFCURVE",
"175 325 CURVE",
"160 237 LINE",
"80 -212 LINE",
"209 -204 LINE",
"252 82 LINE"
);
},
{
closed = 1;
nodes = (
"593 156 OFFCURVE",
"540 134 OFFCURVE",
"445 134 CURVE SMOOTH",
"350 134 OFFCURVE",
"288 156 OFFCURVE",
"288 289 CURVE SMOOTH",
"288 414 OFFCURVE",
"345 493 OFFCURVE",
"440 493 CURVE SMOOTH",
"536 493 OFFCURVE",
"593 414 OFFCURVE",
"593 289 CURVE SMOOTH"
);
}
);
width = 731;
}
);
unicode = 03C1;
},
{
glyphname = sigmafinal;
lastChange = "2019-08-11 02:27:54 +0000";
layers = (
{
layerId = "BA196CD0-EE58-4274-B8DF-4393D3617A29";
paths = (
{
closed = 1;
nodes = (
"329 85 OFFCURVE",
"329 122 OFFCURVE",
"329 167 CURVE SMOOTH",
"329 224 OFFCURVE",
"335 268 OFFCURVE",
"302 285 CURVE SMOOTH",
"148 365 OFFCURVE",
"143 446 OFFCURVE",
"154 517 CURVE SMOOTH",
"162 570 OFFCURVE",
"185 607 OFFCURVE",
"230 616 CURVE SMOOTH",
"297 630 OFFCURVE",
"335 637 OFFCURVE",
"384 575 CURVE",
"422 575 OFFCURVE",
"434 570 OFFCURVE",
"470 575 CURVE",
"421 690 OFFCURVE",
"282 694 OFFCURVE",
"218 679 CURVE SMOOTH",
"135 660 OFFCURVE",
"93 607 OFFCURVE",
"84 535 CURVE SMOOTH",
"69 413 OFFCURVE",
"93 329 OFFCURVE",
"216 239 CURVE",
"216 118 OFFCURVE",
"216 110 OFFCURVE",
"216 80 CURVE",
"216 73 OFFCURVE",
"288 58 OFFCURVE",
"329 51 CURVE"
);
}
);
width = 550;
}
);
unicode = 03C2;
},
{
glyphname = sigma;
lastChange = "2019-08-11 02:27:54 +0000";
layers = (
{
components = (
{
name = o;
}
);
layerId = "BA196CD0-EE58-4274-B8DF-4393D3617A29";
paths = (
{
closed = 1;
nodes = (
"326 485 LINE",
"649 485 LINE",
"649 549 LINE",
"326 549 LINE"
);
}
);
width = 729;
}
);
unicode = 03C3;
},
{
glyphname = tau;
lastChange = "2019-08-11 02:27:54 +0000";
layers = (
{
layerId = "BA196CD0-EE58-4274-B8DF-4393D3617A29";
paths = (
{
closed = 1;
nodes = (
"80 430 LINE",
"577 430 LINE",
"577 504 LINE",
"80 504 LINE"
);
},
{
closed = 1;
nodes = (
"261 117 LINE",
"352 117 LINE",
"396 477 LINE",
"305 477 LINE"
);
},
{
closed = 1;
nodes = (
"447 19 OFFCURVE",
"447 33 OFFCURVE",
"447 74 CURVE",
"398 73 OFFCURVE",
"344 65 OFFCURVE",
"351 120 CURVE SMOOTH",
"360 187 OFFCURVE",
"326 166 OFFCURVE",
"315 191 CURVE SMOOTH",
"304 216 OFFCURVE",
"268 164 OFFCURVE",
"260 117 CURVE SMOOTH",
"238 -12 OFFCURVE",
"262 -2 OFFCURVE",
"447 -3 CURVE"
);
}
);
width = 657;
}
);
unicode = 03C4;
},
{
glyphname = upsilon;
lastChange = "2019-08-15 15:03:32 +0000";
layers = (
{
anchors = (
{
name = _vhook;
position = "{431, 456}";
},
{
name = bottom;
position = "{327, 0}";
},
{
name = horn;
position = "{541, 446}";
},
{
name = ogonek;
position = "{370, -48}";
},
{
name = top;
position = "{264, 615}";
},
{
name = topright;
position = "{629, 500}";
}
);
layerId = "BA196CD0-EE58-4274-B8DF-4393D3617A29";
paths = (
{
closed = 1;
nodes = (
"113 27 OFFCURVE",
"170 -16 OFFCURVE",
"293 -16 CURVE SMOOTH",
"499 -16 OFFCURVE",
"511 136 OFFCURVE",
"501 258 CURVE SMOOTH",
"489 405 OFFCURVE",
"460 500 OFFCURVE",
"419 547 CURVE",
"340 547 LINE",
"388 484 OFFCURVE",
"406 406 OFFCURVE",
"412 354 CURVE SMOOTH",
"432 166 OFFCURVE",
"411 140 OFFCURVE",
"314 140 CURVE SMOOTH",
"233 140 OFFCURVE",
"189 140 OFFCURVE",
"176 297 CURVE SMOOTH",
"155 547 LINE",
"80 547 LINE",
"101 216 LINE SMOOTH"
);
}
);
width = 583;
}
);
unicode = 03C5;
},
{
glyphname = chi;
lastChange = "2019-08-11 02:27:54 +0000";
layers = (
{
anchors = (
{
name = bottom;
position = "{395, -200}";
},
{
name = top;
position = "{395, 500}";
}
);
layerId = "BA196CD0-EE58-4274-B8DF-4393D3617A29";
paths = (
{
closed = 1;
nodes = (
"106 423 LINE",
"241 423 OFFCURVE",
"294 330 OFFCURVE",
"309 298 CURVE SMOOTH",
"485 -89 LINE SMOOTH",
"536 -200 OFFCURVE",
"570 -200 OFFCURVE",
"746 -200 CURVE",
"746 -66 LINE",
"635 -66 OFFCURVE",
"598 -51 OFFCURVE",
"570 7 CURVE SMOOTH",
"389 375 LINE SMOOTH",
"373 407 OFFCURVE",
"294 538 OFFCURVE",
"106 538 CURVE"
);
},
{
closed = 1;
nodes = (
"80 -198 LINE",
"241 -200 LINE",
"685 530 LINE",
"597 530 LINE"
);
}
);
width = 826;
}
);
unicode = 03C7;
},
{
glyphname = psi;
lastChange = "2019-08-15 16:08:44 +0000";
layers = (
{
anchors = (
{
name = bottom;
position = "{327, 0}";
},
{
name = horn;
position = "{541, 446}";
},
{
name = ogonek;
position = "{370, -48}";
},
{
name = top;
position = "{336, 547}";
},
{
name = topright;
position = "{629, 500}";
}
);
components = (
{
name = bar;
transform = "{0.99609, 0.08838, -0.0955, 1.07636, 217, -80}";
}
);
layerId = "BA196CD0-EE58-4274-B8DF-4393D3617A29";
paths = (
{
closed = 1;
nodes = (
"113 27 OFFCURVE",
"211 -12 OFFCURVE",
"334 -12 CURVE SMOOTH",
"569 -12 OFFCURVE",
"581 140 OFFCURVE",
"571 262 CURVE SMOOTH",
"559 409 OFFCURVE",
"530 504 OFFCURVE",
"489 551 CURVE",
"410 553 LINE",
"458 490 OFFCURVE",
"476 410 OFFCURVE",
"482 358 CURVE SMOOTH",
"504 170 OFFCURVE",
"481 144 OFFCURVE",
"349 144 CURVE SMOOTH",
"268 144 OFFCURVE",
"189 140 OFFCURVE",
"176 297 CURVE SMOOTH",
"155 547 LINE",
"80 547 LINE",
"101 216 LINE SMOOTH"
);
}
);
width = 653;
}
);
unicode = 03C8;
},
{
glyphname = omega;
lastChange = "2019-08-16 18:28:48 +0000";
layers = (
{
anchors = (
{
name = bottom;
position = "{398, -34}";
},
{
name = mark;
position = "{401, -38}";
},
{
name = top;
position = "{422, 494}";
}
);
layerId = "BA196CD0-EE58-4274-B8DF-4393D3617A29";
paths = (
{
closed = 1;
nodes = (
"410 11 OFFCURVE",
"452 -2 OFFCURVE",
"515 -3 CURVE SMOOTH",
"757 -5 OFFCURVE",
"752 310 OFFCURVE",
"659 488 CURVE",
"564 488 LINE",
"652 341 OFFCURVE",
"681 101 OFFCURVE",
"497 101 CURVE",
"452 101 OFFCURVE",
"420 140 OFFCURVE",
"420 214 CURVE SMOOTH",
"420 308 LINE",
"367 296 LINE",
"367 201 LINE",
"367 135 OFFCURVE",
"338 95 OFFCURVE",
"275 99 CURVE SMOOTH",
"202 104 OFFCURVE",
"183 154 OFFCURVE",
"183 190 CURVE SMOOTH",
"183 226 OFFCURVE",
"163 343 OFFCURVE",
"290 500 CURVE",
"195 500 LINE",
"65 343 OFFCURVE",
"75 211 OFFCURVE",
"85 173 CURVE SMOOTH",
"112 71 OFFCURVE",
"153 8 OFFCURVE",
"290 8 CURVE SMOOTH",
"344 8 OFFCURVE",
"376 26 OFFCURVE",
"399 90 CURVE"
);
}
);
width = 798;
}
);
unicode = 03C9;
},
{
glyphname = iotadieresistonos;
lastChange = "2019-08-11 02:58:00 +0000";
layers = (
{
components = (
{
name = idotless;
transform = "{1, 0, 0, 1, 139, 0}";
},
{
name = dieresistonos;
transform = "{1, 0, 0, 1, 0, -63}";
}
);
layerId = "BA196CD0-EE58-4274-B8DF-4393D3617A29";
paths = (
{
closed = 1;
nodes = (
"418 -121 LINE",
"418 -93 OFFCURVE",
"418 -107 OFFCURVE",
"418 -51 CURVE",
"384 -54 OFFCURVE",
"346 -58 OFFCURVE",
"340 4 CURVE",
"220 4 LINE",
"220 -28 LINE SMOOTH",
"220 -78 OFFCURVE",
"230 -121 OFFCURVE",
"284 -121 CURVE SMOOTH"
);
}
);
width = 533;
}
);
unicode = 0390;
},
{
glyphname = prosgegrammeni;
lastChange = "2019-08-16 18:30:35 +0000";
layers = (
{
anchors = (
{
name = _bottom;
position = "{306, 5}";
},
{
name = _mark;
position = "{303, 10}";
},
{
name = bottom;
position = "{308, -213}";
}
);
layerId = "BA196CD0-EE58-4274-B8DF-4393D3617A29";
paths = (
{
closed = 1;
nodes = (
"371 -116 LINE",
"311 -128 OFFCURVE",
"290 -130 OFFCURVE",
"290 -79 CURVE SMOOTH",
"290 -55 OFFCURVE",
"290 -53 OFFCURVE",
"290 -27 CURVE SMOOTH",
"290 -25 OFFCURVE",
"243 -26 OFFCURVE",
"243 -28 CURVE",
"243 -105 OFFCURVE",
"243 -54 OFFCURVE",
"243 -80 CURVE SMOOTH",
"243 -162 OFFCURVE",
"285 -201 OFFCURVE",
"371 -187 CURVE"
);
}
);
width = 600;
}
);
unicode = 1FBE;
},
{
color = 0;
glyphname = kaiSymbol;
lastChange = "2019-08-11 02:27:54 +0000";
layers = (
{
anchors = (
{
name = _top_hook;
position = "{330, 66}";
},
{
name = bottom;
position = "{448, 0}";
},
{
name = center;
position = "{445, 365}";
},
{
name = top;
position = "{445, 729}";
},
{
name = topleft;
position = "{88, 709}";
}
);
layerId = "BA196CD0-EE58-4274-B8DF-4393D3617A29";
paths = (
{
closed = 1;
nodes = (
"117 666 LINE SMOOTH",
"162 657 OFFCURVE",
"185 593 OFFCURVE",
"268 478 CURVE SMOOTH",
"387 313 OFFCURVE",
"314 62 OFFCURVE",
"282 -19 CURVE SMOOTH",
"271 -47 OFFCURVE",
"260 -110 OFFCURVE",
"222 -90 CURVE SMOOTH",
"189 -72 OFFCURVE",
"208 -29 OFFCURVE",
"247 19 CURVE SMOOTH",
"271 48 OFFCURVE",
"309 74 OFFCURVE",
"336 116 CURVE SMOOTH",
"353 143 OFFCURVE",
"371 171 OFFCURVE",
"390 198 CURVE SMOOTH",
"568 452 OFFCURVE",
"769 739 OFFCURVE",
"776 782 CURVE SMOOTH",
"778 795 OFFCURVE",
"761 794 OFFCURVE",
"756 794 CURVE SMOOTH",
"739 794 OFFCURVE",
"711 866 OFFCURVE",
"658 767 CURVE",
"187 110 LINE SMOOTH",
"129 30 OFFCURVE",
"87 -121 OFFCURVE",
"176 -178 CURVE SMOOTH",
"297 -256 OFFCURVE",
"420 -60 OFFCURVE",
"420 155 CURVE SMOOTH",
"420 245 OFFCURVE",
"436 349 OFFCURVE",
"399 441 CURVE SMOOTH",
"386 473 OFFCURVE",
"389 489 OFFCURVE",
"282 651 CURVE SMOOTH",
"247 704 OFFCURVE",
"219 760 OFFCURVE",
"99 760 CURVE",
"87 709 OFFCURVE",
"87 709 OFFCURVE",
"80 673 CURVE"
);
},
{
closed = 1;
nodes = (
"601 69 OFFCURVE",
"654 38 OFFCURVE",
"688 38 CURVE SMOOTH",
"722 38 OFFCURVE",
"712 81 OFFCURVE",
"710 126 CURVE SMOOTH",
"686 599 LINE",
"686 657 OFFCURVE",
"728 701 OFFCURVE",
"762 740 CURVE SMOOTH",
"778 758 OFFCURVE",
"793 774 OFFCURVE",
"802 790 CURVE SMOOTH",
"807 799 OFFCURVE",
"809 808 OFFCURVE",
"809 817 CURVE SMOOTH",
"809 853 OFFCURVE",
"772 884 OFFCURVE",
"738 884 CURVE SMOOTH",
"736 884 OFFCURVE",
"733 883 OFFCURVE",
"730 883 CURVE",
"669 873 OFFCURVE",
"577 810 OFFCURVE",
"581 676 CURVE SMOOTH",
"599 126 LINE SMOOTH"
);
},
{
closed = 1;
nodes = (
"681 -138 LINE SMOOTH",
"681 -186 OFFCURVE",
"678 -189 OFFCURVE",
"610 -189 CURVE",
"610 -274 LINE",
"735 -274 OFFCURVE",
"760 -269 OFFCURVE",
"764 -157 CURVE",
"764 -116 OFFCURVE",
"764 -116 OFFCURVE",
"766 124 CURVE",
"681 124 LINE"
);
}
);
width = 889;
}
);
unicode = 03D7;
},
{
glyphname = sho;
lastChange = "2019-08-16 18:44:04 +0000";
layers = (
{
layerId = "BA196CD0-EE58-4274-B8DF-4393D3617A29";
paths = (
{
closed = 1;
nodes = (
"96 -180 LINE",
"184 -180 LINE",
"171 711 LINE",
"83 711 LINE"
);
},
{
closed = 1;
nodes = (
"296 50 OFFCURVE",
"476 151 OFFCURVE",
"480 371 CURVE SMOOTH",
"483 535 OFFCURVE",
"295 558 OFFCURVE",
"151 488 CURVE",
"87 350 OFFCURVE",
"85 188 OFFCURVE",
"151 50 CURVE"
);
},
{
closed = 1;
nodes = (
"150 137 OFFCURVE",
"130 170 OFFCURVE",
"133 310 CURVE SMOOTH",
"135 395 OFFCURVE",
"133 406 OFFCURVE",
"178 429 CURVE SMOOTH",
"257 469 OFFCURVE",
"411 460 OFFCURVE",
"409 375 CURVE SMOOTH",
"406 235 OFFCURVE",
"255 137 OFFCURVE",
"203 137 CURVE SMOOTH"
);
}
);
width = 560;
}
);
unicode = 03F8;
},
{
glyphname = ypogegrammeni;
lastChange = "2019-08-16 18:29:00 +0000";
layers = (
{
anchors = (
{
name = _bottom;
position = "{178, 728}";
},
{
name = _left;
position = "{255, 648}";
},
{
name = _mark;
position = "{170, 722}";
},
{
name = _right;
position = "{61, 635}";
},
{
name = _top;
position = "{137, 520}";
},
{
name = bottom;
position = "{178, 527}";
},
{
name = center;
position = "{177.491, 1114.339}";
}
);
layerId = "BA196CD0-EE58-4274-B8DF-4393D3617A29";
paths = (
{
closed = 1;
nodes = (
"238 607 LINE",
"178 595 OFFCURVE",
"157 593 OFFCURVE",
"157 644 CURVE SMOOTH",
"157 668 OFFCURVE",
"157 670 OFFCURVE",
"157 696 CURVE SMOOTH",
"157 698 OFFCURVE",
"110 697 OFFCURVE",
"110 695 CURVE",
"110 618 OFFCURVE",
"110 669 OFFCURVE",
"110 643 CURVE SMOOTH",
"110 561 OFFCURVE",
"152 522 OFFCURVE",
"238 536 CURVE"
);
}
);
width = 315;
}
);
unicode = 037A;
},
{
glyphname = raiseddownarrowmod;
lastChange = "2019-08-11 02:27:54 +0000";
layers = (
{
layerId = "BA196CD0-EE58-4274-B8DF-4393D3617A29";
paths = (
{
closed = 1;
nodes = (
"240 160 LINE",
"401 343 LINE",
"80 343 LINE"
);
},
{
closed = 1;
nodes = (
"192 336 LINE",
"289 336 LINE",
"289 543 LINE",
"192 543 LINE"
);
}
);
width = 481;
}
);
unicode = A71C;
},
{
color = 6;
glyphname = zero;
lastChange = "2019-08-11 02:27:54 +0000";
layers = (
{
guideLines = (
{
angle = 180;
position = "{335, 364}";
},
{
angle = 90;
position = "{334, 321}";
}
);
layerId = "BA196CD0-EE58-4274-B8DF-4393D3617A29";
paths = (
{
closed = 1;
nodes = (
"234 703 OFFCURVE",
"184 614 OFFCURVE",
"184 435 CURVE SMOOTH",
"184 250 OFFCURVE",
"233 167 OFFCURVE",
"334 167 CURVE",
"436 167 OFFCURVE",
"477 256 OFFCURVE",
"490 435 CURVE",
"490 614 OFFCURVE",
"437 703 OFFCURVE",
"335 703 CURVE SMOOTH"
);
},
{
closed = 1;
nodes = (
"499 742 OFFCURVE",
"584 614 OFFCURVE",
"584 364 CURVE",
"584 118 OFFCURVE",
"498 -14 OFFCURVE",
"334 -14 CURVE SMOOTH",
"171 -14 OFFCURVE",
"80 118 OFFCURVE",
"80 364 CURVE",
"80 614 OFFCURVE",
"172 742 OFFCURVE",
"335 742 CURVE SMOOTH"
);
},
{
closed = 1;
nodes = (
"376 321 OFFCURVE",
"385 373 OFFCURVE",
"385 410 CURVE SMOOTH",
"385 480 OFFCURVE",
"376 525 OFFCURVE",
"335 525 CURVE SMOOTH",
"289 525 OFFCURVE",
"282 467 OFFCURVE",
"282 410 CURVE SMOOTH",
"282 373 OFFCURVE",
"293 321 OFFCURVE",
"335 321 CURVE SMOOTH"
);
}
);
width = 664;
}
);
unicode = 0030;
},
{
color = 6;
glyphname = one;
lastChange = "2019-08-11 02:27:54 +0000";
layers = (
{
layerId = "BA196CD0-EE58-4274-B8DF-4393D3617A29";
paths = (
{
closed = 1;
nodes = (
"80 137 LINE",
"217 141 LINE",
"242 639 LINE",
"119 574 LINE",
"129 665 LINE",
"187 700 OFFCURVE",
"242 729 OFFCURVE",
"275 729 CURVE SMOOTH",
"335 729 LINE",
"335 142 LINE",
"500 137 LINE",
"500 0 LINE",
"80 0 LINE"
);
}
);
width = 580;
}
);
unicode = 0031;
},
{
color = 6;
glyphname = two;
lastChange = "2019-08-11 02:27:54 +0000";
layers = (
{
layerId = "BA196CD0-EE58-4274-B8DF-4393D3617A29";
paths = (
{
closed = 1;
nodes = (
"548 142 LINE",
"559 0 LINE",
"80 0 LINE",
"105 141 LINE SMOOTH",
"112 183 OFFCURVE",
"177 227 OFFCURVE",
"245 271 CURVE SMOOTH",
"364 348 OFFCURVE",
"402 406 OFFCURVE",
"428 456 CURVE SMOOTH",
"440 480 OFFCURVE",
"446 504 OFFCURVE",
"446 528 CURVE SMOOTH",
"446 605 OFFCURVE",
"387 659 OFFCURVE",
"299 659 CURVE SMOOTH",
"237 659 OFFCURVE",
"169 638 OFFCURVE",
"91 594 CURVE",
"97 694 LINE",
"177 726 OFFCURVE",
"240 742 OFFCURVE",
"297 742 CURVE SMOOTH",
"448 742 OFFCURVE",
"545 661 OFFCURVE",
"545 534 CURVE SMOOTH",
"545 431 OFFCURVE",
"556 365 OFFCURVE",
"310 142 CURVE"
);
}
);
width = 639;
}
);
unicode = 0032;
},
{
color = 6;
glyphname = three;
lastChange = "2019-08-11 02:27:54 +0000";
layers = (
{
layerId = "BA196CD0-EE58-4274-B8DF-4393D3617A29";
paths = (
{
closed = 1;
nodes = (
"526 376 OFFCURVE",
"560 315 OFFCURVE",
"560 222 CURVE SMOOTH",
"560 65 OFFCURVE",
"457 -14 OFFCURVE",
"275 -14 CURVE SMOOTH",
"214 -14 OFFCURVE",
"149 -2 OFFCURVE",
"80 22 CURVE",
"125 156 LINE",
"161 142 OFFCURVE",
"255 134 OFFCURVE",
"281 134 CURVE SMOOTH",
"422 134 OFFCURVE",
"453 170 OFFCURVE",
"453 236 CURVE",
"453 303 OFFCURVE",
"396 362 OFFCURVE",
"288 362 CURVE SMOOTH",
"194 362 LINE",
"212 440 LINE",
"307 440 LINE",
"404 440 OFFCURVE",
"472 468 OFFCURVE",
"472 560 CURVE SMOOTH",
"472 640 OFFCURVE",
"390 677 OFFCURVE",
"291 677 CURVE SMOOTH",
"237 677 OFFCURVE",
"176 668 OFFCURVE",
"102 643 CURVE",
"125 713 LINE",
"200 734 OFFCURVE",
"242 742 OFFCURVE",
"300 742 CURVE SMOOTH",
"450 742 OFFCURVE",
"543 669 OFFCURVE",
"543 553 CURVE SMOOTH",
"543 473 OFFCURVE",
"504 427 OFFCURVE",
"410 393 CURVE"
);
}
);
width = 640;
}
);
unicode = 0033;
},
{
color = 6;
glyphname = four;
lastChange = "2019-08-11 02:27:54 +0000";
layers = (
{
hints = (
{
horizontal = 1;
place = "{0, 21}";
target = up;
type = BottomGhost;
},
{
horizontal = 1;
place = "{205, 2000}";
type = Stem;
},
{
horizontal = 1;
place = "{213.5, 83}";
type = Stem;
},
{
place = "{396, 197}";
type = Stem;
},
{
place = "{383.5, 123}";
type = Stem;
}
);
layerId = "BA196CD0-EE58-4274-B8DF-4393D3617A29";
paths = (
{
closed = 1;
nodes = (
"422 0 LINE",
"557 0 LINE",
"497 730 LINE",
"447 727 LINE"
);
},
{
closed = 1;
nodes = (
"80 218 LINE",
"635 204 LINE",
"635 306 LINE",
"130 291 LINE"
);
},
{
closed = 1;
nodes = (
"130 291 LINE",
"182 256 LINE",
"497 730 LINE",
"447 727 LINE"
);
}
);
width = 715;
}
);
unicode = 0034;
},
{
color = 6;
glyphname = five;
lastChange = "2019-08-11 02:27:54 +0000";
layers = (
{
layerId = "BA196CD0-EE58-4274-B8DF-4393D3617A29";
paths = (
{
closed = 1;
nodes = (
"108 723 LINE",
"500 729 LINE",
"503 656 LINE",
"180 656 LINE",
"190 446 LINE",
"231 446 OFFCURVE",
"258 446 OFFCURVE",
"287 446 CURVE SMOOTH",
"407 446 OFFCURVE",
"552 398 OFFCURVE",
"552 234 CURVE SMOOTH",
"552 77 OFFCURVE",
"450 -14 OFFCURVE",
"272 -14 CURVE SMOOTH",
"211 -14 OFFCURVE",
"148 -4 OFFCURVE",
"80 17 CURVE",
"114 184 LINE",
"178 149 OFFCURVE",
"210 137 OFFCURVE",
"280 137 CURVE SMOOTH",
"393 137 OFFCURVE",
"438 199 OFFCURVE",
"438 249 CURVE SMOOTH",
"438 362 OFFCURVE",
"364 368 OFFCURVE",
"285 368 CURVE SMOOTH",
"233 368 OFFCURVE",
"171 362 OFFCURVE",
"92 352 CURVE"
);
}
);
width = 632;
}
);
unicode = 0035;
},
{
color = 6;
glyphname = six;
lastChange = "2019-08-11 02:27:54 +0000";
layers = (
{
layerId = "BA196CD0-EE58-4274-B8DF-4393D3617A29";
paths = (
{
closed = 1;
nodes = (
"252 404 OFFCURVE",
"196 339 OFFCURVE",
"196 234 CURVE SMOOTH",
"196 168 OFFCURVE",
"252 116 OFFCURVE",
"340 116 CURVE SMOOTH",
"429 116 OFFCURVE",
"485 168 OFFCURVE",
"485 234 CURVE SMOOTH",
"485 339 OFFCURVE",
"429 404 OFFCURVE",
"340 404 CURVE SMOOTH"
);
},
{
closed = 1;
nodes = (
"536 664 LINE",
"463 664 OFFCURVE",
"436 664 OFFCURVE",
"386 664 CURVE SMOOTH",
"256 664 OFFCURVE",
"188 597 OFFCURVE",
"178 413 CURVE",
"224 466 OFFCURVE",
"277 482 OFFCURVE",
"346 482 CURVE SMOOTH",
"493 482 OFFCURVE",
"584 387 OFFCURVE",
"584 234 CURVE SMOOTH",
"584 84 OFFCURVE",
"487 -14 OFFCURVE",
"340 -14 CURVE SMOOTH",
"172 -14 OFFCURVE",
"80 118 OFFCURVE",
"80 364 CURVE SMOOTH",
"80 594 OFFCURVE",
"198 742 OFFCURVE",
"382 742 CURVE SMOOTH",
"432 742 OFFCURVE",
"478 742 OFFCURVE",
"536 742 CURVE"
);
}
);
width = 664;
}
);
unicode = 0036;
},
{
color = 6;
glyphname = seven;
lastChange = "2019-08-11 02:27:54 +0000";
layers = (
{
layerId = "BA196CD0-EE58-4274-B8DF-4393D3617A29";
paths = (
{
closed = 1;
nodes = (
"80 656 LINE",
"532 639 LINE",
"548 715 LINE",
"83 727 LINE"
);
},
{
closed = 1;
nodes = (
"267 0 LINE",
"440 0 LINE",
"548 715 LINE",
"466 713 LINE"
);
}
);
width = 628;
}
);
unicode = 0037;
},
{
color = 6;
glyphname = eight;
lastChange = "2019-08-11 02:27:54 +0000";
layers = (
{
layerId = "BA196CD0-EE58-4274-B8DF-4393D3617A29";
paths = (
{
closed = 1;
nodes = (
"246 356 OFFCURVE",
"189 303 OFFCURVE",
"189 215 CURVE SMOOTH",
"189 166 OFFCURVE",
"247 125 OFFCURVE",
"341 125 CURVE SMOOTH",
"435 125 OFFCURVE",
"491 167 OFFCURVE",
"491 215 CURVE SMOOTH",
"491 303 OFFCURVE",
"434 356 OFFCURVE",
"340 356 CURVE SMOOTH"
);
},
{
closed = 1;
nodes = (
"157 409 OFFCURVE",
"117 470 OFFCURVE",
"117 553 CURVE SMOOTH",
"117 657 OFFCURVE",
"195 732 OFFCURVE",
"340 732 CURVE SMOOTH",
"485 732 OFFCURVE",
"563 657 OFFCURVE",
"563 553 CURVE SMOOTH",
"563 470 OFFCURVE",
"523 409 OFFCURVE",
"439 388 CURVE",
"534 366 OFFCURVE",
"600 298 OFFCURVE",
"600 205 CURVE SMOOTH",
"600 64 OFFCURVE",
"501 -14 OFFCURVE",
"340 -14 CURVE SMOOTH",
"179 -14 OFFCURVE",
"80 64 OFFCURVE",
"80 205 CURVE SMOOTH",
"80 298 OFFCURVE",
"146 366 OFFCURVE",
"241 388 CURVE"
);
},
{
closed = 1;
nodes = (
"205 498 OFFCURVE",
"255 437 OFFCURVE",
"340 437 CURVE",
"424 437 OFFCURVE",
"475 498 OFFCURVE",
"475 573 CURVE SMOOTH",
"475 636 OFFCURVE",
"424 684 OFFCURVE",
"340 684 CURVE SMOOTH",
"255 684 OFFCURVE",
"205 636 OFFCURVE",
"205 573 CURVE SMOOTH"
);
}
);
width = 680;
}
);
unicode = 0038;
},
{
color = 6;
glyphname = nine;
lastChange = "2019-08-11 02:27:54 +0000";
layers = (
{
layerId = "BA196CD0-EE58-4274-B8DF-4393D3617A29";
paths = (
{
closed = 1;
nodes = (
"139 142 LINE",
"194 128 OFFCURVE",
"272 118 OFFCURVE",
"317 118 CURVE SMOOTH",
"417 118 OFFCURVE",
"475 121 OFFCURVE",
"485 274 CURVE",
"433 258 OFFCURVE",
"387 247 OFFCURVE",
"317 247 CURVE SMOOTH",
"171 247 OFFCURVE",
"80 341 OFFCURVE",
"80 494 CURVE SMOOTH",
"80 644 OFFCURVE",
"176 742 OFFCURVE",
"323 742 CURVE SMOOTH",
"492 742 OFFCURVE",
"583 643 OFFCURVE",
"583 364 CURVE SMOOTH",
"583 0 OFFCURVE",
"469 -13 OFFCURVE",
"285 -13 CURVE SMOOTH",
"236 -13 OFFCURVE",
"177 -6 OFFCURVE",
"116 7 CURVE"
);
},
{
closed = 1;
nodes = (
"417 341 OFFCURVE",
"490 384 OFFCURVE",
"490 510 CURVE SMOOTH",
"490 628 OFFCURVE",
"423 680 OFFCURVE",
"315 680 CURVE SMOOTH",
"207 680 OFFCURVE",
"139 615 OFFCURVE",
"139 510 CURVE SMOOTH",
"139 404 OFFCURVE",
"201 341 OFFCURVE",
"309 341 CURVE"
);
}
);
width = 663;
}
);
unicode = 0039;
},
{
glyphname = fraction;
lastChange = "2019-08-11 02:27:54 +0000";
layers = (
{
layerId = "BA196CD0-EE58-4274-B8DF-4393D3617A29";
paths = (
{
closed = 1;
nodes = (
"80 -45 LINE",
"181 -45 LINE",
"633 752 LINE",
"569 752 LINE"
);
}
);
width = 713;
}
);
unicode = 2044;
},
{
glyphname = period;
lastChange = "2019-08-12 16:33:30 +0000";
layers = (
{
anchors = (
{
name = _bottom;
position = "{130, 119}";
},
{
name = _center;
position = "{131, 45}";
},
{
name = _top;
position = "{132, -10}";
}
);
layerId = "BA196CD0-EE58-4274-B8DF-4393D3617A29";
paths = (
{
closed = 1;
nodes = (
"80 0 LINE",
"181 0 LINE",
"181 101 LINE",
"80 101 LINE"
);
}
);
width = 261;
}
);
unicode = 002E;
},
{
glyphname = comma;
lastChange = "2019-08-12 15:32:19 +0000";
layers = (
{
layerId = "BA196CD0-EE58-4274-B8DF-4393D3617A29";
paths = (
{
closed = 1;
nodes = (
"80 -127 LINE",
"175 -127 LINE",
"241 106 LINE",
"165 106 LINE"
);
},
{
closed = 1;
nodes = (
"130 19 LINE",
"210 19 LINE",
"210 106 LINE",
"131 106 LINE"
);
}
);
width = 321;
}
);
unicode = 002C;
},
{
glyphname = exclam;
lastChange = "2019-08-11 02:27:54 +0000";
layers = (
{
components = (
{
name = period;
transform = "{1.24469, 0, 0, 1.24469, -20, 0}";
}
);
layerId = "BA196CD0-EE58-4274-B8DF-4393D3617A29";
paths = (
{
closed = 1;
nodes = (
"80 242 LINE",
"257 288 LINE",
"257 801 LINE",
"136 801 LINE"
);
}
);
width = 337;
}
);
unicode = 0021;
},
{
glyphname = question;
lastChange = "2019-08-12 16:34:01 +0000";
layers = (
{
anchors = (
{
name = bottom;
position = "{611, 144}";
}
);
components = (
{
name = period;
transform = "{1, 0, 0, 1, 481, 4}";
}
);
layerId = "BA196CD0-EE58-4274-B8DF-4393D3617A29";
paths = (
{
closed = 1;
nodes = (
"597 163 OFFCURVE",
"669 178 OFFCURVE",
"669 185 CURVE",
"669 215 OFFCURVE",
"669 223 OFFCURVE",
"669 344 CURVE",
"743 377 OFFCURVE",
"781 416 OFFCURVE",
"781 528 CURVE SMOOTH",
"781 600 OFFCURVE",
"750 660 OFFCURVE",
"667 679 CURVE SMOOTH",
"603 694 OFFCURVE",
"517 691 OFFCURVE",
"455 625 CURVE",
"482 599 OFFCURVE",
"487 594 OFFCURVE",
"501 575 CURVE",
"550 629 OFFCURVE",
"588 630 OFFCURVE",
"655 616 CURVE SMOOTH",
"700 607 OFFCURVE",
"720 570 OFFCURVE",
"720 517 CURVE SMOOTH",
"720 446 OFFCURVE",
"680 435 OFFCURVE",
"556 390 CURVE",
"556 350 OFFCURVE",
"556 329 OFFCURVE",
"556 272 CURVE SMOOTH",
"556 227 OFFCURVE",
"556 190 OFFCURVE",
"556 156 CURVE"
);
}
);
width = 861;
}
);
unicode = 003F;
},
{
glyphname = asterisk;
lastChange = "2019-08-11 02:27:54 +0000";
layers = (
{
layerId = "BA196CD0-EE58-4274-B8DF-4393D3617A29";
paths = (
{
closed = 1;
nodes = (
"535 609 LINE",
"360 514 LINE",
"555 438 LINE",
"507 371 LINE",
"343 470 LINE",
"362 301 LINE",
"287 286 LINE",
"287 470 LINE",
"143 352 LINE",
"95 419 LINE",
"270 514 LINE",
"80 589 LINE",
"123 657 LINE",
"287 558 LINE",
"268 723 LINE",
"343 742 LINE",
"343 558 LINE",
"527 677 LINE"
);
}
);
width = 635;
}
);
unicode = 002A;
},
{
glyphname = asterisk.ss001;
lastChange = "2019-08-16 00:30:37 +0000";
layers = (
{
layerId = "BA196CD0-EE58-4274-B8DF-4393D3617A29";
paths = (
{
closed = 1;
nodes = (
"272 380 LINE",
"387 380 LINE",
"387 878 LINE",
"272 878 LINE"
);
},
{
closed = 1;
nodes = (
"363 854 LINE",
"363 404 LINE",
"296 404 LINE",
"296 854 LINE"
);
},
{
closed = 1;
nodes = (
"329 820 LINE",
"329 438 LINE",
"330 438 LINE",
"330 820 LINE"
);
},
{
closed = 1;
nodes = (
"308 434 LINE",
"351 434 LINE",
"351 824 LINE",
"308 824 LINE"
);
},
{
closed = 1;
nodes = (
"194 846 LINE",
"113 765 LINE",
"465 413 LINE",
"546 494 LINE"
);
},
{
closed = 1;
nodes = (
"465 447 LINE",
"147 765 LINE",
"194 812 LINE",
"512 494 LINE"
);
},
{
closed = 1;
nodes = (
"465 495 LINE",
"195 765 LINE",
"194 764 LINE",
"464 494 LINE"
);
},
{
closed = 1;
nodes = (
"206 783 LINE",
"176 753 LINE",
"453 476 LINE",
"483 506 LINE"
);
},
{
closed = 1;
nodes = (
"113 494 LINE",
"194 413 LINE",
"546 764 LINE",
"465 845 LINE"
);
},
{
closed = 1;
nodes = (
"512 764 LINE",
"194 447 LINE",
"147 494 LINE",
"465 811 LINE"
);
},
{
closed = 1;
nodes = (
"464 764 LINE",
"194 495 LINE",
"195 494 LINE",
"465 763 LINE"
);
},
{
closed = 1;
nodes = (
"176 506 LINE",
"206 476 LINE",
"483 752 LINE",
"453 782 LINE"
);
},
{
closed = 1;
nodes = (
"578 574 LINE",
"578 687 LINE",
"80 687 LINE",
"80 574 LINE"
);
},
{
closed = 1;
nodes = (
"104 663 LINE",
"554 663 LINE",
"554 598 LINE",
"104 598 LINE"
);
},
{
closed = 1;
nodes = (
"138 629 LINE",
"520 629 LINE",
"520 632 LINE",
"138 632 LINE"
);
},
{
closed = 1;
nodes = (
"524 610 LINE",
"524 651 LINE",
"134 651 LINE",
"134 610 LINE"
);
}
);
width = 658;
}
);
},
{
glyphname = caretSign;
lastChange = "2019-08-16 19:41:08 +0000";
layers = (
{
anchors = (
{
name = _bottom;
position = "{271, 64}";
},
{
name = top;
position = "{271, -224}";
}
);
layerId = "BA196CD0-EE58-4274-B8DF-4393D3617A29";
paths = (
{
closed = 1;
nodes = (
"207 -89 LINE",
"74 -195 LINE",
"196 -195 LINE",
"271 -93 LINE",
"346 -195 LINE",
"470 -195 LINE",
"338 -89 LINE",
"299 -25 LINE",
"251 -25 LINE"
);
}
);
width = 556;
}
);
unicode = 2038;
},
{
glyphname = numbersign;
lastChange = "2019-08-16 00:32:17 +0000";
layers = (
{
layerId = "BA196CD0-EE58-4274-B8DF-4393D3617A29";
paths = (
{
closed = 1;
nodes = (
"222 -46 LINE",
"360 -46 LINE",
"434 808 LINE",
"348 808 LINE"
);
},
{
closed = 1;
nodes = (
"71 244 LINE",
"34 158 LINE",
"958 158 LINE",
"983 244 LINE"
);
},
{
closed = 1;
nodes = (
"85 573 LINE",
"59 487 LINE",
"983 487 LINE",
"1012 573 LINE"
);
},
{
closed = 1;
nodes = (
"535 -44 LINE",
"660 -44 LINE",
"734 810 LINE",
"648 810 LINE"
);
}
);
width = 1038;
}
);
unicode = 0023;
},
{
glyphname = slash;
lastChange = "2019-08-12 14:48:47 +0000";
layers = (
{
layerId = "BA196CD0-EE58-4274-B8DF-4393D3617A29";
paths = (
{
closed = 1;
nodes = (
"80 -136 LINE",
"222 -32 LINE",
"428 734 LINE",
"336 687 LINE"
);
}
);
width = 508;
}
);
unicode = 002F;
},
{
glyphname = backslash;
lastChange = "2019-08-11 02:27:54 +0000";
layers = (
{
layerId = "BA196CD0-EE58-4274-B8DF-4393D3617A29";
paths = (
{
closed = 1;
nodes = (
"80 634 LINE",
"325 -178 LINE",
"392 -20 LINE",
"102 765 LINE"
);
}
);
width = 472;
}
);
unicode = 005C;
},
{
glyphname = triangularbullet;
lastChange = "2019-08-16 19:37:43 +0000";
layers = (
{
layerId = "BA196CD0-EE58-4274-B8DF-4393D3617A29";
paths = (
{
closed = 1;
nodes = (
"170 191 LINE SMOOTH",
"170 164 OFFCURVE",
"186 152 OFFCURVE",
"211 165 CURVE SMOOTH",
"384 253 LINE SMOOTH",
"409 266 OFFCURVE",
"409 288 OFFCURVE",
"384 301 CURVE SMOOTH",
"212 392 LINE SMOOTH",
"188 405 OFFCURVE",
"170 394 OFFCURVE",
"170 367 CURVE SMOOTH"
);
}
);
width = 600;
}
);
unicode = 2023;
},
{
glyphname = parenleft;
lastChange = "2019-08-11 02:27:54 +0000";
layers = (
{
layerId = "BA196CD0-EE58-4274-B8DF-4393D3617A29";
paths = (
{
closed = 1;
nodes = (
"357 800 LINE",
"257 659 OFFCURVE",
"186 492 OFFCURVE",
"180 342 CURVE",
"186 191 OFFCURVE",
"215 -44 OFFCURVE",
"289 -200 CURVE",
"186 -193 LINE",
"122 -32 OFFCURVE",
"80 204 OFFCURVE",
"80 350 CURVE",
"92 495 OFFCURVE",
"168 663 OFFCURVE",
"279 807 CURVE"
);
}
);
width = 437;
}
);
unicode = 0028;
},
{
glyphname = braceleft;
lastChange = "2019-08-11 02:27:54 +0000";
layers = (
{
layerId = "BA196CD0-EE58-4274-B8DF-4393D3617A29";
paths = (
{
closed = 1;
nodes = (
"427 -70 LINE",
"433 -170 LINE",
"373 -169 LINE SMOOTH",
"211 -166 OFFCURVE",
"177 -129 OFFCURVE",
"178 15 CURVE",
"184 131 LINE",
"183 209 OFFCURVE",
"182 244 OFFCURVE",
"110 244 CURVE SMOOTH",
"80 244 LINE",
"83 354 LINE",
"113 353 LINE",
"187 358 OFFCURVE",
"196 363 OFFCURVE",
"202 460 CURVE SMOOTH",
"207 577 LINE SMOOTH",
"215 721 OFFCURVE",
"259 750 OFFCURVE",
"421 753 CURVE",
"481 753 LINE",
"468 683 LINE",
"435 684 LINE",
"336 679 OFFCURVE",
"323 666 OFFCURVE",
"318 574 CURVE SMOOTH",
"312 453 LINE SMOOTH",
"306 351 OFFCURVE",
"278 312 OFFCURVE",
"185 296 CURVE",
"276 277 OFFCURVE",
"294 234 OFFCURVE",
"295 146 CURVE",
"289 24 LINE",
"291 -42 OFFCURVE",
"302 -70 OFFCURVE",
"394 -70 CURVE SMOOTH"
);
}
);
width = 561;
}
);
unicode = 007B;
},
{
glyphname = bracketleft;
lastChange = "2019-08-11 02:27:54 +0000";
layers = (
{
layerId = "BA196CD0-EE58-4274-B8DF-4393D3617A29";
paths = (
{
closed = 1;
nodes = (
"80 -136 LINE",
"158 -136 LINE",
"221 700 LINE",
"143 700 LINE"
);
},
{
closed = 1;
nodes = (
"148 629 LINE",
"391 629 LINE",
"391 700 LINE",
"148 700 LINE"
);
},
{
closed = 1;
nodes = (
"92 -136 LINE",
"349 -136 LINE",
"349 -39 LINE",
"92 -39 LINE"
);
}
);
width = 471;
}
);
unicode = 005B;
},
{
glyphname = hyphen;
lastChange = "2019-08-12 14:52:51 +0000";
layers = (
{
anchors = (
{
name = _center;
position = "{277, 290}";
},
{
name = _croat;
position = "{284, 288}";
},
{
name = _stroke;
position = "{285, 288}";
}
);
layerId = "BA196CD0-EE58-4274-B8DF-4393D3617A29";
paths = (
{
closed = 1;
nodes = (
"80 244 LINE",
"471 244 LINE",
"471 335 LINE",
"80 335 LINE"
);
}
);
width = 551;
}
);
unicode = 002D;
},
{
glyphname = endash;
lastChange = "2019-08-11 02:27:54 +0000";
layers = (
{
layerId = "BA196CD0-EE58-4274-B8DF-4393D3617A29";
paths = (
{
closed = 1;
nodes = (
"80 244 LINE",
"706 242 LINE",
"716 333 LINE",
"90 335 LINE"
);
}
);
width = 796;
}
);
unicode = 2013;
},
{
glyphname = emdash;
lastChange = "2019-08-15 15:07:51 +0000";
layers = (
{
layerId = "BA196CD0-EE58-4274-B8DF-4393D3617A29";
paths = (
{
closed = 1;
nodes = (
"81 244 LINE",
"1038 242 LINE",
"1048 333 LINE",
"90 335 LINE"
);
}
);
width = 1128;
}
);
unicode = 2014;
},
{
glyphname = guilsinglleft;
lastChange = "2019-08-11 02:27:54 +0000";
layers = (
{
layerId = "BA196CD0-EE58-4274-B8DF-4393D3617A29";
paths = (
{
closed = 1;
nodes = (
"337 501 LINE",
"335 408 LINE",
"183 282 LINE",
"325 146 LINE",
"302 34 LINE",
"80 246 LINE",
"102 305 LINE"
);
}
);
width = 417;
}
);
unicode = 2039;
},
{
glyphname = primeReversed;
lastChange = "2019-08-16 19:43:58 +0000";
layers = (
{
anchors = (
{
name = _top;
position = "{160, 519.576}";
}
);
layerId = "BA196CD0-EE58-4274-B8DF-4393D3617A29";
paths = (
{
closed = 1;
nodes = (
"251 586 LINE SMOOTH",
"261 584 OFFCURVE",
"266 591 OFFCURVE",
"261 600 CURVE SMOOTH",
"163 776 LINE SMOOTH",
"159 782 OFFCURVE",
"153 784 OFFCURVE",
"147 781 CURVE SMOOTH",
"92 752 LINE SMOOTH",
"85 748 OFFCURVE",
"83 742 OFFCURVE",
"88 736 CURVE SMOOTH",
"191 603 LINE SMOOTH",
"194 598 OFFCURVE",
"198 596 OFFCURVE",
"204 595 CURVE SMOOTH"
);
}
);
width = 410;
}
);
unicode = 2035;
},
{
glyphname = "leftanglebracket-math";
lastChange = "2019-08-16 19:42:48 +0000";
layers = (
{
layerId = "BA196CD0-EE58-4274-B8DF-4393D3617A29";
paths = (
{
closed = 1;
nodes = (
"36 340 LINE",
"327 -100 LINE",
"350 12 LINE",
"137 350 LINE",
"353 610 LINE",
"353 703 LINE"
);
}
);
width = 417;
}
);
unicode = 27E8;
},
{
glyphname = currency;
lastChange = "2019-08-11 02:27:54 +0000";
layers = (
{
layerId = "BA196CD0-EE58-4274-B8DF-4393D3617A29";
paths = (
{
closed = 1;
nodes = (
"276 277 OFFCURVE",
"230 324 OFFCURVE",
"230 382 CURVE SMOOTH",
"230 439 OFFCURVE",
"277 486 OFFCURVE",
"334 486 CURVE SMOOTH",
"391 486 OFFCURVE",
"438 439 OFFCURVE",
"438 382 CURVE SMOOTH",
"438 324 OFFCURVE",
"391 277 OFFCURVE",
"334 277 CURVE SMOOTH"
);
},
{
closed = 1;
nodes = (
"514 269 LINE",
"527 295 OFFCURVE",
"534 325 OFFCURVE",
"534 357 CURVE SMOOTH",
"534 396 OFFCURVE",
"523 432 OFFCURVE",
"503 463 CURVE",
"568 528 LINE",
"492 606 LINE",
"422 536 LINE",
"396 549 OFFCURVE",
"366 556 OFFCURVE",
"335 556 CURVE SMOOTH",
"304 556 OFFCURVE",
"274 549 OFFCURVE",
"248 536 CURVE",
"178 606 LINE",
"102 528 LINE",
"167 463 LINE",
"147 432 OFFCURVE",
"136 396 OFFCURVE",
"136 357 CURVE SMOOTH",
"136 325 OFFCURVE",
"143 295 OFFCURVE",
"156 269 CURVE",
"80 192 LINE",
"156 114 LINE",
"230 188 LINE",
"260 169 OFFCURVE",
"296 158 OFFCURVE",
"335 158 CURVE SMOOTH",
"374 158 OFFCURVE",
"410 169 OFFCURVE",
"440 188 CURVE",
"514 114 LINE",
"590 192 LINE"
);
}
);
width = 670;
}
);
unicode = 00A4;
},
{
glyphname = euro;
lastChange = "2019-08-11 02:27:54 +0000";
layers = (
{
components = (
{
name = equal;
transform = "{1, 0, 0, 1, 0, 76}";
}
);
layerId = "BA196CD0-EE58-4274-B8DF-4393D3617A29";
paths = (
{
closed = 1;
nodes = (
"664 -41 OFFCURVE",
"664 28 OFFCURVE",
"664 70 CURVE",
"451 70 OFFCURVE",
"335 24 OFFCURVE",
"335 386 CURVE SMOOTH",
"335 624 OFFCURVE",
"431 677 OFFCURVE",
"664 624 CURVE",
"664 670 OFFCURVE",
"664 710 OFFCURVE",
"664 735 CURVE",
"283 787 OFFCURVE",
"233 654 OFFCURVE",
"240 347 CURVE SMOOTH",
"248 0 OFFCURVE",
"265 -82 OFFCURVE",
"664 -71 CURVE"
);
}
);
width = 744;
}
);
unicode = 20AC;
},
{
glyphname = florin;
lastChange = "2019-08-14 12:28:11 +0000";
layers = (
{
layerId = "BA196CD0-EE58-4274-B8DF-4393D3617A29";
paths = (
{
closed = 1;
nodes = (
"659 713 OFFCURVE",
"660 712 OFFCURVE",
"654 689 CURVE",
"544 716 OFFCURVE",
"503 703 OFFCURVE",
"482 568 CURVE SMOOTH",
"461 432 LINE SMOOTH",
"459 421 OFFCURVE",
"464 415 OFFCURVE",
"473 416 CURVE SMOOTH",
"573 424 LINE SMOOTH",
"582 425 OFFCURVE",
"588 419 OFFCURVE",
"588 409 CURVE SMOOTH",
"588 365 LINE SMOOTH",
"588 355 OFFCURVE",
"583 350 OFFCURVE",
"574 349 CURVE SMOOTH",
"461 342 LINE SMOOTH",
"453 341 OFFCURVE",
"447 337 OFFCURVE",
"446 327 CURVE SMOOTH",
"419 106 LINE SMOOTH",
"385 -175 OFFCURVE",
"311 -206 OFFCURVE",
"203 -206 CURVE SMOOTH",
"174 -206 OFFCURVE",
"94 -181 OFFCURVE",
"72 -164 CURVE",
"104 -92 OFFCURVE",
"109 -82 OFFCURVE",
"136 -19 CURVE",
"160 -34 OFFCURVE",
"202 -54 OFFCURVE",
"225 -54 CURVE SMOOTH",
"282 -54 OFFCURVE",
"311 -15 OFFCURVE",
"330 82 CURVE",
"363 319 LINE SMOOTH",
"365 330 OFFCURVE",
"359 336 OFFCURVE",
"349 335 CURVE SMOOTH",
"270 329 LINE SMOOTH",
"261 328 OFFCURVE",
"256 334 OFFCURVE",
"256 344 CURVE SMOOTH",
"256 386 LINE SMOOTH",
"256 395 OFFCURVE",
"260 400 OFFCURVE",
"268 401 CURVE SMOOTH",
"363 409 LINE SMOOTH",
"371 410 OFFCURVE",
"375 414 OFFCURVE",
"377 423 CURVE SMOOTH",
"402 572 LINE SMOOTH",
"422 690 OFFCURVE",
"487 752 OFFCURVE",
"575 752 CURVE SMOOTH",
"602 752 OFFCURVE",
"642 745 OFFCURVE",
"665 737 CURVE"
);
}
);
width = 600;
}
);
unicode = 0192;
},
{
glyphname = hryvnia;
lastChange = "2019-08-16 20:18:45 +0000";
layers = (
{
anchors = (
{
name = bottom;
position = "{385, 13}";
},
{
name = top;
position = "{385, 729}";
}
);
components = (
{
name = hyphen;
transform = "{1.94693, 0, 0, 1, -158, 163}";
},
{
name = hyphen;
transform = "{1.94693, 0, 0, 1, -158, -14}";
},
{
name = S;
transform = "{-1, 0, 0, 1, 760, 0}";
}
);
layerId = "BA196CD0-EE58-4274-B8DF-4393D3617A29";
paths = (
{
closed = 1;
nodes = (
"629 488 LINE",
"613 406 OFFCURVE",
"549 360 OFFCURVE",
"424 335 CURVE SMOOTH",
"364 323 LINE SMOOTH",
"302 311 OFFCURVE",
"253 293 OFFCURVE",
"224 267 CURVE",
"92 267 LINE",
"124 346 OFFCURVE",
"215 393 OFFCURVE",
"335 417 CURVE SMOOTH",
"394 429 LINE SMOOTH",
"449 440 OFFCURVE",
"500 460 OFFCURVE",
"530 488 CURVE"
);
}
);
width = 760;
}
);
unicode = 20B4;
},
{
glyphname = liraTurkish;
lastChange = "2019-08-16 20:29:47 +0000";
layers = (
{
anchors = (
{
name = _center;
position = "{277, 531}";
}
);
layerId = "BA196CD0-EE58-4274-B8DF-4393D3617A29";
paths = (
{
closed = 1;
nodes = (
"130 647 LINE",
"134 569 OFFCURVE",
"130 534 OFFCURVE",
"130 419 CURVE SMOOTH",
"130 417 OFFCURVE",
"130 335 OFFCURVE",
"130 240 CURVE SMOOTH",
"130 88 OFFCURVE",
"130 88 OFFCURVE",
"129 -3 CURVE",
"255 -16 OFFCURVE",
"517 56 OFFCURVE",
"549 242 CURVE",
"470 242 LINE",
"459 151 OFFCURVE",
"271 66 OFFCURVE",
"226 82 CURVE",
"226 156 OFFCURVE",
"227 169 OFFCURVE",
"227 236 CURVE SMOOTH",
"227 437 LINE",
"223 562 OFFCURVE",
"223 562 OFFCURVE",
"223 658 CURVE"
);
},
{
closed = 1;
nodes = (
"20 335 LINE",
"411 486 LINE",
"411 577 LINE",
"20 426 LINE"
);
},
{
closed = 1;
nodes = (
"20 149 LINE",
"411 300 LINE",
"411 391 LINE",
"20 240 LINE"
);
}
);
width = 691;
}
);
unicode = 20BA;
},
{
glyphname = manat;
lastChange = "2019-08-16 20:32:24 +0000";
layers = (
{
layerId = "BA196CD0-EE58-4274-B8DF-4393D3617A29";
paths = (
{
closed = 1;
nodes = (
"267 7 LINE",
"222 212 OFFCURVE",
"217 526 OFFCURVE",
"399 526 CURVE SMOOTH",
"585 526 OFFCURVE",
"553 206 OFFCURVE",
"530 7 CURVE",
"619 7 LINE",
"608 282 OFFCURVE",
"702 627 OFFCURVE",
"399 634 CURVE",
"79 628 OFFCURVE",
"181 284 OFFCURVE",
"171 7 CURVE"
);
},
{
closed = 1;
nodes = (
"434 5 LINE",
"411 762 LINE",
"341 762 LINE",
"364 5 LINE"
);
}
);
width = 812;
}
);
unicode = 20BC;
},
{
glyphname = rupeeIndian;
lastChange = "2019-08-16 20:40:33 +0000";
layers = (
{
anchors = (
{
name = _center;
position = "{414, 531}";
},
{
name = bottom;
position = "{320, 0}";
},
{
name = bottom_hook;
position = "{125, -20}";
},
{
name = top;
position = "{320, 729}";
}
);
layerId = "BA196CD0-EE58-4274-B8DF-4393D3617A29";
paths = (
{
closed = 1;
nodes = (
"167 738 LINE",
"167 672 LINE",
"607 672 LINE",
"607 738 LINE"
);
},
{
closed = 1;
nodes = (
"170 549 LINE",
"170 483 LINE",
"610 483 LINE",
"610 549 LINE"
);
},
{
closed = 1;
nodes = (
"165 679 LINE",
"242 679 LINE SMOOTH",
"317 679 OFFCURVE",
"395 646 OFFCURVE",
"395 521 CURVE SMOOTH",
"395 458 OFFCURVE",
"317 407 OFFCURVE",
"242 407 CURVE SMOOTH",
"165 407 LINE",
"165 287 LINE",
"201 293 LINE SMOOTH",
"261 303 OFFCURVE",
"368 296 OFFCURVE",
"363 189 CURVE SMOOTH",
"354 2 LINE",
"534 2 LINE",
"477 201 LINE SMOOTH",
"455 279 OFFCURVE",
"397 342 OFFCURVE",
"355 364 CURVE",
"423 375 OFFCURVE",
"465 425 OFFCURVE",
"465 521 CURVE SMOOTH",
"465 662 OFFCURVE",
"379 731 OFFCURVE",
"232 731 CURVE SMOOTH",
"165 731 LINE"
);
}
);
width = 691;
}
);
unicode = 20B9;
},
{
color = 0;
glyphname = sterling;
lastChange = "2019-08-14 23:57:09 +0000";
layers = (
{
components = (
{
name = hyphen;
transform = "{1, 0, 0, 0.90858, 17, 86}";
}
);
guideLines = (
{
angle = 90;
position = "{166, 179}";
},
{
position = "{166, 179}";
},
{
angle = 90;
position = "{118, 685}";
},
{
position = "{118, 685}";
}
);
layerId = "BA196CD0-EE58-4274-B8DF-4393D3617A29";
paths = (
{
closed = 1;
nodes = (
"215 347 LINE SMOOTH",
"215 346 OFFCURVE",
"215 346 OFFCURVE",
"215 345 CURVE SMOOTH",
"259 216 OFFCURVE",
"255 174 OFFCURVE",
"80 112 CURVE",
"80 0 LINE",
"611 0 LINE",
"563 70 LINE",
"363 98 OFFCURVE",
"344 101 OFFCURVE",
"193 90 CURVE",
"393 127 OFFCURVE",
"310 290 OFFCURVE",
"288 348 CURVE SMOOTH",
"213 549 LINE SMOOTH",
"195 596 OFFCURVE",
"187 634 OFFCURVE",
"213 663 CURVE SMOOTH",
"258 714 OFFCURVE",
"373 759 OFFCURVE",
"498 663 CURVE",
"560 680 LINE",
"439 825 OFFCURVE",
"273 786 OFFCURVE",
"170 712 CURVE SMOOTH",
"134 686 OFFCURVE",
"119 656 OFFCURVE",
"159 527 CURVE SMOOTH"
);
}
);
width = 691;
}
);
unicode = 00A3;
},
{
glyphname = tugrik;
lastChange = "2019-08-16 20:43:09 +0000";
layers = (
{
components = (
{
name = T;
}
);
layerId = "BA196CD0-EE58-4274-B8DF-4393D3617A29";
paths = (
{
closed = 1;
nodes = (
"188 292 LINE",
"579 443 LINE",
"579 534 LINE",
"188 383 LINE"
);
},
{
closed = 1;
nodes = (
"188 106 LINE",
"579 257 LINE",
"579 348 LINE",
"188 197 LINE"
);
}
);
width = 777;
}
);
unicode = 20AE;
},
{
glyphname = yen;
lastChange = "2019-08-11 02:27:54 +0000";
layers = (
{
anchors = (
{
name = top;
position = "{382, 729}";
}
);
components = (
{
name = equal;
transform = "{1, 0, 0, 1, 63, -57}";
}
);
layerId = "BA196CD0-EE58-4274-B8DF-4393D3617A29";
paths = (
{
closed = 1;
nodes = (
"300 -69 LINE",
"433 -69 LINE",
"447 410 LINE",
"684 729 LINE",
"578 729 LINE",
"383 516 LINE",
"186 729 LINE",
"80 729 LINE",
"314 410 LINE"
);
}
);
width = 764;
}
);
unicode = 00A5;
},
{
glyphname = plus;
lastChange = "2019-08-11 02:27:54 +0000";
layers = (
{
layerId = "BA196CD0-EE58-4274-B8DF-4393D3617A29";
paths = (
{
closed = 1;
nodes = (
"282 51 LINE",
"366 51 LINE",
"366 512 LINE",
"282 512 LINE"
);
},
{
closed = 1;
nodes = (
"540 239 LINE",
"540 313 LINE",
"80 316 LINE",
"80 242 LINE"
);
}
);
width = 620;
}
);
unicode = 002B;
},
{
glyphname = minus;
lastChange = "2019-08-11 02:27:54 +0000";
layers = (
{
layerId = "BA196CD0-EE58-4274-B8DF-4393D3617A29";
paths = (
{
closed = 1;
nodes = (
"80 232 LINE",
"526 249 LINE",
"497 326 LINE",
"111 302 LINE"
);
}
);
width = 606;
}
);
unicode = 2212;
},
{
glyphname = multiply;
lastChange = "2019-08-11 02:27:54 +0000";
layers = (
{
layerId = "BA196CD0-EE58-4274-B8DF-4393D3617A29";
paths = (
{
closed = 1;
nodes = (
"370 105 LINE",
"510 105 LINE",
"200 379 LINE",
"104 379 LINE"
);
},
{
closed = 1;
nodes = (
"80 105 LINE",
"219 105 LINE",
"466 376 LINE",
"375 376 LINE"
);
}
);
width = 590;
}
);
unicode = 00D7;
},
{
glyphname = greater;
lastChange = "2019-08-11 02:27:54 +0000";
layers = (
{
layerId = "BA196CD0-EE58-4274-B8DF-4393D3617A29";
paths = (
{
closed = 1;
nodes = (
"111 516 LINE",
"718 226 LINE",
"725 336 LINE",
"116 604 LINE"
);
},
{
closed = 1;
nodes = (
"720 229 LINE",
"581 293 LINE",
"81 157 LINE",
"80 37 LINE"
);
}
);
width = 805;
}
);
unicode = 003E;
},
{
glyphname = greaterequal;
lastChange = "2019-08-11 02:27:54 +0000";
layers = (
{
components = (
{
name = greater;
transform = "{1, 0, 0, 1, 56, 90}";
}
);
layerId = "BA196CD0-EE58-4274-B8DF-4393D3617A29";
paths = (
{
closed = 1;
nodes = (
"80 -53 LINE",
"755 15 LINE",
"726 92 LINE",
"111 17 LINE"
);
}
);
width = 861;
}
);
unicode = 2265;
},
{
glyphname = logicalnot;
lastChange = "2019-08-11 02:27:54 +0000";
layers = (
{
layerId = "BA196CD0-EE58-4274-B8DF-4393D3617A29";
paths = (
{
closed = 1;
nodes = (
"80 253 LINE",
"519 238 LINE",
"519 308 LINE",
"80 344 LINE"
);
},
{
closed = 1;
nodes = (
"424 57 LINE",
"531 57 LINE",
"520 305 LINE",
"420 305 LINE"
);
}
);
width = 611;
}
);
unicode = 00AC;
},
{
glyphname = emptyset;
lastChange = "2019-08-11 02:27:54 +0000";
layers = (
{
components = (
{
name = O;
}
);
layerId = "BA196CD0-EE58-4274-B8DF-4393D3617A29";
paths = (
{
closed = 1;
nodes = (
"102 -131 LINE",
"164 -163 LINE",
"746 768 LINE",
"684 801 LINE"
);
}
);
width = 835;
}
);
unicode = 2205;
},
{
glyphname = infinity;
lastChange = "2019-08-11 02:27:54 +0000";
layers = (
{
layerId = "BA196CD0-EE58-4274-B8DF-4393D3617A29";
paths = (
{
closed = 1;
nodes = (
"450 453 OFFCURVE",
"397 510 OFFCURVE",
"309 510 CURVE SMOOTH",
"213 510 OFFCURVE",
"156 453 OFFCURVE",
"156 359 CURVE SMOOTH",
"156 265 OFFCURVE",
"208 244 OFFCURVE",
"304 249 CURVE SMOOTH",
"392 254 OFFCURVE",
"450 265 OFFCURVE",
"450 359 CURVE SMOOTH"
);
},
{
closed = 1;
nodes = (
"510 553 OFFCURVE",
"564 599 OFFCURVE",
"647 599 CURVE SMOOTH",
"751 599 OFFCURVE",
"835 504 OFFCURVE",
"835 359 CURVE SMOOTH",
"835 214 OFFCURVE",
"751 119 OFFCURVE",
"647 119 CURVE SMOOTH",
"564 119 OFFCURVE",
"503 163 OFFCURVE",
"482 260 CURVE",
"460 165 OFFCURVE",
"392 119 OFFCURVE",
"299 119 CURVE SMOOTH",
"158 119 OFFCURVE",
"80 198 OFFCURVE",
"80 359 CURVE SMOOTH",
"80 520 OFFCURVE",
"158 599 OFFCURVE",
"299 599 CURVE SMOOTH",
"392 599 OFFCURVE",
"460 553 OFFCURVE",
"482 458 CURVE"
);
},
{
closed = 1;
nodes = (
"592 507 OFFCURVE",
"531 457 OFFCURVE",
"531 372 CURVE",
"531 288 OFFCURVE",
"586 270 OFFCURVE",
"661 270 CURVE SMOOTH",
"724 270 OFFCURVE",
"778 288 OFFCURVE",
"778 372 CURVE SMOOTH",
"778 457 OFFCURVE",
"730 507 OFFCURVE",
"667 507 CURVE SMOOTH"
);
}
);
width = 915;
}
);
unicode = 221E;
},
{
glyphname = integral;
lastChange = "2019-08-11 02:27:54 +0000";
layers = (
{
layerId = "BA196CD0-EE58-4274-B8DF-4393D3617A29";
paths = (
{
closed = 1;
nodes = (
"691 672 LINE",
"666 691 OFFCURVE",
"641 700 OFFCURVE",
"612 700 CURVE SMOOTH",
"549 700 OFFCURVE",
"513 662 OFFCURVE",
"497 576 CURVE SMOOTH",
"468 414 LINE",
"453 344 LINE",
"421 107 LINE SMOOTH",
"378 -202 OFFCURVE",
"301 -208 OFFCURVE",
"180 -208 CURVE SMOOTH",
"143 -208 OFFCURVE",
"111 -201 OFFCURVE",
"80 -187 CURVE",
"110 -33 LINE",
"143 -54 OFFCURVE",
"174 -65 OFFCURVE",
"205 -65 CURVE SMOOTH",
"268 -65 OFFCURVE",
"300 -25 OFFCURVE",
"322 83 CURVE",
"360 344 LINE",
"375 414 LINE",
"406 575 LINE SMOOTH",
"429 694 OFFCURVE",
"496 760 OFFCURVE",
"594 760 CURVE SMOOTH",
"629 760 OFFCURVE",
"661 754 OFFCURVE",
"691 742 CURVE"
);
}
);
width = 771;
}
);
unicode = 222B;
},
{
glyphname = product;
lastChange = "2019-08-11 02:27:54 +0000";
layers = (
{
layerId = "BA196CD0-EE58-4274-B8DF-4393D3617A29";
paths = (
{
closed = 1;
nodes = (
"80 628 LINE",
"658 628 LINE",
"658 700 LINE",
"80 700 LINE"
);
},
{
closed = 1;
nodes = (
"167 0 LINE",
"266 0 LINE",
"266 650 LINE",
"167 650 LINE"
);
},
{
closed = 1;
nodes = (
"473 -1 LINE",
"572 -1 LINE",
"572 649 LINE",
"473 649 LINE"
);
}
);
width = 738;
}
);
unicode = 220F;
},
{
glyphname = summation;
lastChange = "2019-08-11 02:27:54 +0000";
layers = (
{
layerId = "BA196CD0-EE58-4274-B8DF-4393D3617A29";
paths = (
{
closed = 1;
nodes = (
"80 629 LINE",
"519 629 LINE",
"519 700 LINE",
"80 700 LINE"
);
},
{
closed = 1;
nodes = (
"385 311 LINE",
"385 383 LINE",
"80 103 LINE",
"80 -7 LINE"
);
},
{
closed = 1;
nodes = (
"80 -6 LINE",
"519 -6 LINE",
"519 103 LINE",
"80 103 LINE"
);
},
{
closed = 0;
nodes = (
"385 311 LINE",
"385 383 LINE"
);
},
{
closed = 1;
nodes = (
"81 627 LINE",
"386 309 LINE",
"386 381 LINE",
"81 699 LINE"
);
}
);
width = 599;
}
);
unicode = 2211;
},
{
glyphname = radical;
lastChange = "2019-08-11 02:27:54 +0000";
layers = (
{
layerId = "BA196CD0-EE58-4274-B8DF-4393D3617A29";
paths = (
{
closed = 1;
nodes = (
"524 778 LINE",
"851 778 LINE",
"851 731 LINE",
"587 700 LINE",
"381 -53 LINE",
"198 -53 LINE",
"80 178 LINE",
"126 224 LINE",
"272 97 LINE"
);
}
);
width = 931;
}
);
unicode = 221A;
},
{
glyphname = partialdiff;
lastChange = "2019-08-11 03:12:17 +0000";
layers = (
{
anchors = (
{
name = stroke;
position = "{570, 525}";
}
);
layerId = "BA196CD0-EE58-4274-B8DF-4393D3617A29";
paths = (
{
closed = 1;
nodes = (
"412 404 OFFCURVE",
"454 326 OFFCURVE",
"468 234 CURVE SMOOTH",
"478 170 OFFCURVE",
"412 116 OFFCURVE",
"324 116 CURVE SMOOTH",
"235 116 OFFCURVE",
"179 168 OFFCURVE",
"179 234 CURVE SMOOTH",
"179 339 OFFCURVE",
"235 404 OFFCURVE",
"324 404 CURVE"
);
},
{
closed = 1;
nodes = (
"401 720 LINE",
"474 720 OFFCURVE",
"524 704 OFFCURVE",
"531 632 CURVE SMOOTH",
"542 515 OFFCURVE",
"522 456 OFFCURVE",
"502 336 CURVE",
"456 456 OFFCURVE",
"387 482 OFFCURVE",
"318 482 CURVE SMOOTH",
"171 482 OFFCURVE",
"80 387 OFFCURVE",
"80 234 CURVE SMOOTH",
"80 84 OFFCURVE",
"177 -14 OFFCURVE",
"324 -14 CURVE SMOOTH",
"492 -14 OFFCURVE",
"547 124 OFFCURVE",
"584 364 CURVE SMOOTH",
"609 525 OFFCURVE",
"610 519 OFFCURVE",
"609 656 CURVE SMOOTH",
"608 768 OFFCURVE",
"490 787 OFFCURVE",
"432 787 CURVE"
);
}
);
width = 689;
}
);
unicode = 2202;
},
{
glyphname = upArrow;
lastChange = "2019-08-11 02:27:54 +0000";
layers = (
{
layerId = "BA196CD0-EE58-4274-B8DF-4393D3617A29";
paths = (
{
closed = 1;
nodes = (
"347 0 LINE",
"424 0 LINE",
"424 549 LINE",
"347 549 LINE"
);
},
{
closed = 1;
nodes = (
"132 279 LINE",
"440 543 LINE",
"388 595 LINE",
"80 330 LINE"
);
},
{
closed = 1;
nodes = (
"336 544 LINE",
"629 290 LINE",
"681 341 LINE",
"388 596 LINE"
);
}
);
width = 761;
}
);
unicode = 2191;
},
